%TF.GenerationSoftware,KiCad,Pcbnew,(6.0.4-0)*%
%TF.CreationDate,2023-06-16T16:22:12+02:00*%
%TF.ProjectId,EOL,454f4c2e-6b69-4636-9164-5f7063625858,rev?*%
%TF.SameCoordinates,Original*%
%TF.FileFunction,Copper,L2,Bot*%
%TF.FilePolarity,Positive*%
%FSLAX46Y46*%
G04 Gerber Fmt 4.6, Leading zero omitted, Abs format (unit mm)*
G04 Created by KiCad (PCBNEW (6.0.4-0)) date 2023-06-16 16:22:12*
%MOMM*%
%LPD*%
G01*
G04 APERTURE LIST*
%TA.AperFunction,ComponentPad*%
%ADD10C,0.800000*%
%TD*%
%TA.AperFunction,ComponentPad*%
%ADD11C,6.400000*%
%TD*%
%TA.AperFunction,ComponentPad*%
%ADD12R,1.600000X1.600000*%
%TD*%
%TA.AperFunction,ComponentPad*%
%ADD13C,1.600000*%
%TD*%
%TA.AperFunction,ComponentPad*%
%ADD14C,1.524000*%
%TD*%
%TA.AperFunction,ComponentPad*%
%ADD15R,2.600000X2.600000*%
%TD*%
%TA.AperFunction,ComponentPad*%
%ADD16C,2.600000*%
%TD*%
G04 APERTURE END LIST*
D10*
%TO.P,H1,1*%
%TO.N,N/C*%
X18000000Y-50600000D03*
D11*
X18000000Y-53000000D03*
D10*
X18000000Y-55400000D03*
X16302944Y-51302944D03*
X20400000Y-53000000D03*
X19697056Y-51302944D03*
X15600000Y-53000000D03*
X19697056Y-54697056D03*
X16302944Y-54697056D03*
%TD*%
%TO.P,H2,1*%
%TO.N,N/C*%
X61000000Y-11350000D03*
X62697056Y-12052944D03*
X59302944Y-12052944D03*
X59302944Y-15447056D03*
X61000000Y-16150000D03*
D11*
X61000000Y-13750000D03*
D10*
X63400000Y-13750000D03*
X58600000Y-13750000D03*
X62697056Y-15447056D03*
%TD*%
%TO.P,H3,1*%
%TO.N,N/C*%
X18000000Y-11350000D03*
X15600000Y-13750000D03*
D11*
X18000000Y-13750000D03*
D10*
X19697056Y-15447056D03*
X18000000Y-16150000D03*
X16302944Y-15447056D03*
X16302944Y-12052944D03*
X20400000Y-13750000D03*
X19697056Y-12052944D03*
%TD*%
%TO.P,H4,1*%
%TO.N,N/C*%
X61000000Y-50600000D03*
X61000000Y-55400000D03*
X62697056Y-54697056D03*
X59302944Y-51302944D03*
D11*
X61000000Y-53000000D03*
D10*
X58600000Y-53000000D03*
X63400000Y-53000000D03*
X59302944Y-54697056D03*
X62697056Y-51302944D03*
%TD*%
D12*
%TO.P,SW1,1,A*%
%TO.N,unconnected-(SW1-Pad1)*%
X43500000Y-29000000D03*
D13*
%TO.P,SW1,2,B*%
%TO.N,unconnected-(SW1-Pad2)*%
X43500000Y-31500000D03*
%TO.P,SW1,3,C*%
%TO.N,unconnected-(SW1-Pad3)*%
X43500000Y-34000000D03*
%TO.P,SW1,4,A*%
%TO.N,unconnected-(SW1-Pad4)*%
X40300000Y-29000000D03*
%TO.P,SW1,5,B*%
%TO.N,Net-(R1-Pad1)*%
X40300000Y-31500000D03*
%TO.P,SW1,6,C*%
%TO.N,IN2*%
X40300000Y-34000000D03*
%TD*%
D12*
%TO.P,SW2,1,A*%
%TO.N,Net-(R2-Pad2)*%
X51500000Y-34000000D03*
D13*
%TO.P,SW2,2,B*%
%TO.N,DL*%
X51500000Y-31500000D03*
%TO.P,SW2,3,C*%
%TO.N,IN3*%
X51500000Y-29000000D03*
%TO.P,SW2,4,A*%
%TO.N,unconnected-(SW2-Pad4)*%
X54700000Y-34000000D03*
%TO.P,SW2,5,B*%
%TO.N,unconnected-(SW2-Pad5)*%
X54700000Y-31500000D03*
%TO.P,SW2,6,C*%
%TO.N,unconnected-(SW2-Pad6)*%
X54700000Y-29000000D03*
%TD*%
D12*
%TO.P,SW3,1,A*%
%TO.N,Net-(R3-Pad2)*%
X29500000Y-34000000D03*
D13*
%TO.P,SW3,2,B*%
%TO.N,SLS1*%
X29500000Y-31500000D03*
%TO.P,SW3,3,C*%
%TO.N,IN1*%
X29500000Y-29000000D03*
%TO.P,SW3,4,A*%
%TO.N,unconnected-(SW3-Pad4)*%
X32700000Y-34000000D03*
%TO.P,SW3,5,B*%
%TO.N,unconnected-(SW3-Pad5)*%
X32700000Y-31500000D03*
%TO.P,SW3,6,C*%
%TO.N,unconnected-(SW3-Pad6)*%
X32700000Y-29000000D03*
%TD*%
D12*
%TO.P,SW4,1,A*%
%TO.N,unconnected-(SW4-Pad1)*%
X63500000Y-29000000D03*
D13*
%TO.P,SW4,2,B*%
%TO.N,unconnected-(SW4-Pad2)*%
X63500000Y-31500000D03*
%TO.P,SW4,3,C*%
%TO.N,unconnected-(SW4-Pad3)*%
X63500000Y-34000000D03*
%TO.P,SW4,4,A*%
%TO.N,unconnected-(SW4-Pad4)*%
X60300000Y-29000000D03*
%TO.P,SW4,5,B*%
%TO.N,Net-(R4-Pad1)*%
X60300000Y-31500000D03*
%TO.P,SW4,6,C*%
%TO.N,IN3*%
X60300000Y-34000000D03*
%TD*%
D14*
%TO.P,SW5,1,A*%
%TO.N,unconnected-(SW5-Pad1)*%
X42000000Y-44000000D03*
%TO.P,SW5,2,B*%
%TO.N,SLC1*%
X37000000Y-44000000D03*
%TO.P,SW5,3,C*%
%TO.N,Net-(R1-Pad1)*%
X39500000Y-44000000D03*
%TO.P,SW5,4,A*%
%TO.N,unconnected-(SW5-Pad4)*%
X37000000Y-50000000D03*
%TO.P,SW5,5,B*%
%TO.N,unconnected-(SW5-Pad5)*%
X42000000Y-50000000D03*
%TO.P,SW5,6,C*%
%TO.N,unconnected-(SW5-Pad6)*%
X39500000Y-50000000D03*
%TD*%
%TO.P,SW6,1,A*%
%TO.N,unconnected-(SW6-Pad1)*%
X53000000Y-44000000D03*
%TO.P,SW6,2,B*%
%TO.N,Net-(R2-Pad1)*%
X48000000Y-44000000D03*
%TO.P,SW6,3,C*%
%TO.N,Net-(R4-Pad1)*%
X50500000Y-44000000D03*
%TO.P,SW6,4,A*%
%TO.N,unconnected-(SW6-Pad4)*%
X48000000Y-50000000D03*
%TO.P,SW6,5,B*%
%TO.N,unconnected-(SW6-Pad5)*%
X53000000Y-50000000D03*
%TO.P,SW6,6,C*%
%TO.N,unconnected-(SW6-Pad6)*%
X50500000Y-50000000D03*
%TD*%
%TO.P,SW7,1,A*%
%TO.N,unconnected-(SW7-Pad1)*%
X31000000Y-44000000D03*
%TO.P,SW7,2,B*%
%TO.N,Net-(R3-Pad1)*%
X26000000Y-44000000D03*
%TO.P,SW7,3,C*%
%TO.N,IN1*%
X28500000Y-44000000D03*
%TO.P,SW7,4,A*%
%TO.N,unconnected-(SW7-Pad4)*%
X26000000Y-50000000D03*
%TO.P,SW7,5,B*%
%TO.N,unconnected-(SW7-Pad5)*%
X31000000Y-50000000D03*
%TO.P,SW7,6,C*%
%TO.N,unconnected-(SW7-Pad6)*%
X28500000Y-50000000D03*
%TD*%
D15*
%TO.P,J1,1,Pin_1*%
%TO.N,IN3*%
X52000000Y-17195000D03*
D16*
%TO.P,J1,2,Pin_2*%
%TO.N,DL*%
X47000000Y-17195000D03*
%TO.P,J1,3,Pin_3*%
%TO.N,IN2*%
X42000000Y-17195000D03*
%TO.P,J1,4,Pin_4*%
%TO.N,SLC1*%
X37000000Y-17195000D03*
%TO.P,J1,5,Pin_5*%
%TO.N,IN1*%
X32000000Y-17195000D03*
%TO.P,J1,6,Pin_6*%
%TO.N,SLS1*%
X27000000Y-17195000D03*
%TD*%
M02*
