%TF.GenerationSoftware,KiCad,Pcbnew,(5.1.6-0-10_14)*%
%TF.CreationDate,2022-03-19T18:54:14+01:00*%
%TF.ProjectId,EOL,454f4c2e-6b69-4636-9164-5f7063625858,rev?*%
%TF.SameCoordinates,Original*%
%TF.FileFunction,Soldermask,Bot*%
%TF.FilePolarity,Negative*%
%FSLAX46Y46*%
G04 Gerber Fmt 4.6, Leading zero omitted, Abs format (unit mm)*
G04 Created by KiCad (PCBNEW (5.1.6-0-10_14)) date 2022-03-19 18:54:14*
%MOMM*%
%LPD*%
G01*
G04 APERTURE LIST*
%ADD10C,1.624000*%
%ADD11C,1.700000*%
%ADD12R,1.700000X1.700000*%
%ADD13C,3.100000*%
%ADD14R,3.100000X3.100000*%
%ADD15C,0.900000*%
%ADD16C,6.500000*%
G04 APERTURE END LIST*
D10*
%TO.C,SW7*%
X28500000Y-50000000D03*
X31000000Y-50000000D03*
X26000000Y-50000000D03*
X31000000Y-44000000D03*
X28500000Y-44000000D03*
X26000000Y-44000000D03*
%TD*%
D11*
%TO.C,SW3*%
X32700000Y-29000000D03*
X32700000Y-31500000D03*
X32700000Y-34000000D03*
X29500000Y-29000000D03*
X29500000Y-31500000D03*
D12*
X29500000Y-34000000D03*
%TD*%
D10*
%TO.C,SW6*%
X50500000Y-50000000D03*
X53000000Y-50000000D03*
X48000000Y-50000000D03*
X53000000Y-44000000D03*
X50500000Y-44000000D03*
X48000000Y-44000000D03*
%TD*%
%TO.C,SW5*%
X39500000Y-50000000D03*
X42000000Y-50000000D03*
X37000000Y-50000000D03*
X42000000Y-44000000D03*
X39500000Y-44000000D03*
X37000000Y-44000000D03*
%TD*%
D11*
%TO.C,SW4*%
X60300000Y-34000000D03*
X60300000Y-31500000D03*
X60300000Y-29000000D03*
X63500000Y-34000000D03*
X63500000Y-31500000D03*
D12*
X63500000Y-29000000D03*
%TD*%
D11*
%TO.C,SW2*%
X54700000Y-29000000D03*
X54700000Y-31500000D03*
X54700000Y-34000000D03*
X51500000Y-29000000D03*
X51500000Y-31500000D03*
D12*
X51500000Y-34000000D03*
%TD*%
D11*
%TO.C,SW1*%
X40300000Y-34000000D03*
X40300000Y-31500000D03*
X40300000Y-29000000D03*
X43500000Y-34000000D03*
X43500000Y-31500000D03*
D12*
X43500000Y-29000000D03*
%TD*%
D13*
%TO.C,J3*%
X47920000Y-18500000D03*
D14*
X53000000Y-18500000D03*
%TD*%
D13*
%TO.C,J2*%
X36920000Y-18500000D03*
D14*
X42000000Y-18500000D03*
%TD*%
D13*
%TO.C,J1*%
X25920000Y-18500000D03*
D14*
X31000000Y-18500000D03*
%TD*%
D15*
%TO.C,H4*%
X62697056Y-51302944D03*
X61000000Y-50600000D03*
X59302944Y-51302944D03*
X58600000Y-53000000D03*
X59302944Y-54697056D03*
X61000000Y-55400000D03*
X62697056Y-54697056D03*
X63400000Y-53000000D03*
D16*
X61000000Y-53000000D03*
%TD*%
D15*
%TO.C,H3*%
X19697056Y-14802944D03*
X18000000Y-14100000D03*
X16302944Y-14802944D03*
X15600000Y-16500000D03*
X16302944Y-18197056D03*
X18000000Y-18900000D03*
X19697056Y-18197056D03*
X20400000Y-16500000D03*
D16*
X18000000Y-16500000D03*
%TD*%
D15*
%TO.C,H2*%
X62697056Y-14802944D03*
X61000000Y-14100000D03*
X59302944Y-14802944D03*
X58600000Y-16500000D03*
X59302944Y-18197056D03*
X61000000Y-18900000D03*
X62697056Y-18197056D03*
X63400000Y-16500000D03*
D16*
X61000000Y-16500000D03*
%TD*%
D15*
%TO.C,H1*%
X19697056Y-51302944D03*
X18000000Y-50600000D03*
X16302944Y-51302944D03*
X15600000Y-53000000D03*
X16302944Y-54697056D03*
X18000000Y-55400000D03*
X19697056Y-54697056D03*
X20400000Y-53000000D03*
D16*
X18000000Y-53000000D03*
%TD*%
M02*
