%TF.GenerationSoftware,KiCad,Pcbnew,(6.0.4-0)*%
%TF.CreationDate,2023-06-16T16:22:12+02:00*%
%TF.ProjectId,EOL,454f4c2e-6b69-4636-9164-5f7063625858,rev?*%
%TF.SameCoordinates,Original*%
%TF.FileFunction,Legend,Top*%
%TF.FilePolarity,Positive*%
%FSLAX46Y46*%
G04 Gerber Fmt 4.6, Leading zero omitted, Abs format (unit mm)*
G04 Created by KiCad (PCBNEW (6.0.4-0)) date 2023-06-16 16:22:12*
%MOMM*%
%LPD*%
G01*
G04 APERTURE LIST*
%ADD10C,0.120000*%
%ADD11C,0.150000*%
%ADD12C,0.500000*%
G04 APERTURE END LIST*
D10*
X34000000Y-23000000D02*
X34000000Y-25000000D01*
X34000000Y-28000000D02*
X34000000Y-30000000D01*
X34000000Y-30500000D02*
X34000000Y-32500000D01*
X34000000Y-33000000D02*
X34000000Y-35000000D01*
X34000000Y-35500000D02*
X34000000Y-37500000D01*
X34000000Y-38000000D02*
X34000000Y-40000000D01*
X34000000Y-40500000D02*
X34000000Y-42500000D01*
X34000000Y-43000000D02*
X34000000Y-45000000D01*
X34000000Y-45500000D02*
X34000000Y-47500000D01*
X34000000Y-48000000D02*
X34000000Y-50000000D01*
X45000000Y-23000000D02*
X45000000Y-25000000D01*
X45000000Y-38000000D02*
X45000000Y-40000000D01*
X45000000Y-28000000D02*
X45000000Y-30000000D01*
X45000000Y-48000000D02*
X45000000Y-50000000D01*
X45000000Y-40500000D02*
X45000000Y-42500000D01*
X45000000Y-30500000D02*
X45000000Y-32500000D01*
X45000000Y-33000000D02*
X45000000Y-35000000D01*
X45000000Y-43000000D02*
X45000000Y-45000000D01*
X45000000Y-45500000D02*
X45000000Y-47500000D01*
X45000000Y-35500000D02*
X45000000Y-37500000D01*
X34000000Y-50500000D02*
X34000000Y-52500000D01*
X45000000Y-50500000D02*
X45000000Y-52500000D01*
X34000000Y-25500000D02*
X34000000Y-27500000D01*
X34000000Y-53000000D02*
X34000000Y-55000000D01*
X45000000Y-25500000D02*
X45000000Y-27500000D01*
X45000000Y-53000000D02*
X45000000Y-55000000D01*
D11*
X27071428Y-34119047D02*
X27928571Y-34119047D01*
X38071428Y-34119047D02*
X38928571Y-34119047D01*
X49071428Y-34119047D02*
X49928571Y-34119047D01*
X58071428Y-34119047D02*
X58928571Y-34119047D01*
D10*
X34528571Y-53839785D02*
X34657142Y-53882642D01*
X34871428Y-53882642D01*
X34957142Y-53839785D01*
X35000000Y-53796928D01*
X35042857Y-53711214D01*
X35042857Y-53625500D01*
X35000000Y-53539785D01*
X34957142Y-53496928D01*
X34871428Y-53454071D01*
X34700000Y-53411214D01*
X34614285Y-53368357D01*
X34571428Y-53325500D01*
X34528571Y-53239785D01*
X34528571Y-53154071D01*
X34571428Y-53068357D01*
X34614285Y-53025500D01*
X34700000Y-52982642D01*
X34914285Y-52982642D01*
X35042857Y-53025500D01*
X35428571Y-53882642D02*
X35428571Y-53282642D01*
X35428571Y-52982642D02*
X35385714Y-53025500D01*
X35428571Y-53068357D01*
X35471428Y-53025500D01*
X35428571Y-52982642D01*
X35428571Y-53068357D01*
X35857142Y-53282642D02*
X35857142Y-53882642D01*
X35857142Y-53368357D02*
X35900000Y-53325500D01*
X35985714Y-53282642D01*
X36114285Y-53282642D01*
X36200000Y-53325500D01*
X36242857Y-53411214D01*
X36242857Y-53882642D01*
X37057142Y-53282642D02*
X37057142Y-54011214D01*
X37014285Y-54096928D01*
X36971428Y-54139785D01*
X36885714Y-54182642D01*
X36757142Y-54182642D01*
X36671428Y-54139785D01*
X37057142Y-53839785D02*
X36971428Y-53882642D01*
X36800000Y-53882642D01*
X36714285Y-53839785D01*
X36671428Y-53796928D01*
X36628571Y-53711214D01*
X36628571Y-53454071D01*
X36671428Y-53368357D01*
X36714285Y-53325500D01*
X36800000Y-53282642D01*
X36971428Y-53282642D01*
X37057142Y-53325500D01*
X37614285Y-53882642D02*
X37528571Y-53839785D01*
X37485714Y-53754071D01*
X37485714Y-52982642D01*
X38300000Y-53839785D02*
X38214285Y-53882642D01*
X38042857Y-53882642D01*
X37957142Y-53839785D01*
X37914285Y-53754071D01*
X37914285Y-53411214D01*
X37957142Y-53325500D01*
X38042857Y-53282642D01*
X38214285Y-53282642D01*
X38300000Y-53325500D01*
X38342857Y-53411214D01*
X38342857Y-53496928D01*
X37914285Y-53582642D01*
X39928571Y-53882642D02*
X39628571Y-53454071D01*
X39414285Y-53882642D02*
X39414285Y-52982642D01*
X39757142Y-52982642D01*
X39842857Y-53025500D01*
X39885714Y-53068357D01*
X39928571Y-53154071D01*
X39928571Y-53282642D01*
X39885714Y-53368357D01*
X39842857Y-53411214D01*
X39757142Y-53454071D01*
X39414285Y-53454071D01*
X40657142Y-53839785D02*
X40571428Y-53882642D01*
X40400000Y-53882642D01*
X40314285Y-53839785D01*
X40271428Y-53754071D01*
X40271428Y-53411214D01*
X40314285Y-53325500D01*
X40400000Y-53282642D01*
X40571428Y-53282642D01*
X40657142Y-53325500D01*
X40700000Y-53411214D01*
X40700000Y-53496928D01*
X40271428Y-53582642D01*
X41042857Y-53839785D02*
X41128571Y-53882642D01*
X41300000Y-53882642D01*
X41385714Y-53839785D01*
X41428571Y-53754071D01*
X41428571Y-53711214D01*
X41385714Y-53625500D01*
X41300000Y-53582642D01*
X41171428Y-53582642D01*
X41085714Y-53539785D01*
X41042857Y-53454071D01*
X41042857Y-53411214D01*
X41085714Y-53325500D01*
X41171428Y-53282642D01*
X41300000Y-53282642D01*
X41385714Y-53325500D01*
X41814285Y-53882642D02*
X41814285Y-53282642D01*
X41814285Y-52982642D02*
X41771428Y-53025500D01*
X41814285Y-53068357D01*
X41857142Y-53025500D01*
X41814285Y-52982642D01*
X41814285Y-53068357D01*
X42200000Y-53839785D02*
X42285714Y-53882642D01*
X42457142Y-53882642D01*
X42542857Y-53839785D01*
X42585714Y-53754071D01*
X42585714Y-53711214D01*
X42542857Y-53625500D01*
X42457142Y-53582642D01*
X42328571Y-53582642D01*
X42242857Y-53539785D01*
X42200000Y-53454071D01*
X42200000Y-53411214D01*
X42242857Y-53325500D01*
X42328571Y-53282642D01*
X42457142Y-53282642D01*
X42542857Y-53325500D01*
X42842857Y-53282642D02*
X43185714Y-53282642D01*
X42971428Y-52982642D02*
X42971428Y-53754071D01*
X43014285Y-53839785D01*
X43100000Y-53882642D01*
X43185714Y-53882642D01*
X43614285Y-53882642D02*
X43528571Y-53839785D01*
X43485714Y-53796928D01*
X43442857Y-53711214D01*
X43442857Y-53454071D01*
X43485714Y-53368357D01*
X43528571Y-53325500D01*
X43614285Y-53282642D01*
X43742857Y-53282642D01*
X43828571Y-53325500D01*
X43871428Y-53368357D01*
X43914285Y-53454071D01*
X43914285Y-53711214D01*
X43871428Y-53796928D01*
X43828571Y-53839785D01*
X43742857Y-53882642D01*
X43614285Y-53882642D01*
X44300000Y-53882642D02*
X44300000Y-53282642D01*
X44300000Y-53454071D02*
X44342857Y-53368357D01*
X44385714Y-53325500D01*
X44471428Y-53282642D01*
X44557142Y-53282642D01*
X37314285Y-55331642D02*
X36885714Y-55331642D01*
X36885714Y-54431642D01*
X37614285Y-55331642D02*
X37614285Y-54731642D01*
X37614285Y-54431642D02*
X37571428Y-54474500D01*
X37614285Y-54517357D01*
X37657142Y-54474500D01*
X37614285Y-54431642D01*
X37614285Y-54517357D01*
X38042857Y-54731642D02*
X38042857Y-55331642D01*
X38042857Y-54817357D02*
X38085714Y-54774500D01*
X38171428Y-54731642D01*
X38300000Y-54731642D01*
X38385714Y-54774500D01*
X38428571Y-54860214D01*
X38428571Y-55331642D01*
X39200000Y-55288785D02*
X39114285Y-55331642D01*
X38942857Y-55331642D01*
X38857142Y-55288785D01*
X38814285Y-55203071D01*
X38814285Y-54860214D01*
X38857142Y-54774500D01*
X38942857Y-54731642D01*
X39114285Y-54731642D01*
X39200000Y-54774500D01*
X39242857Y-54860214D01*
X39242857Y-54945928D01*
X38814285Y-55031642D01*
X40828571Y-55245928D02*
X40785714Y-55288785D01*
X40657142Y-55331642D01*
X40571428Y-55331642D01*
X40442857Y-55288785D01*
X40357142Y-55203071D01*
X40314285Y-55117357D01*
X40271428Y-54945928D01*
X40271428Y-54817357D01*
X40314285Y-54645928D01*
X40357142Y-54560214D01*
X40442857Y-54474500D01*
X40571428Y-54431642D01*
X40657142Y-54431642D01*
X40785714Y-54474500D01*
X40828571Y-54517357D01*
X41600000Y-54731642D02*
X41600000Y-55331642D01*
X41214285Y-54731642D02*
X41214285Y-55203071D01*
X41257142Y-55288785D01*
X41342857Y-55331642D01*
X41471428Y-55331642D01*
X41557142Y-55288785D01*
X41600000Y-55245928D01*
X41900000Y-54731642D02*
X42242857Y-54731642D01*
X42028571Y-54431642D02*
X42028571Y-55203071D01*
X42071428Y-55288785D01*
X42157142Y-55331642D01*
X42242857Y-55331642D01*
X46107142Y-53882642D02*
X46107142Y-52982642D01*
X46321428Y-52982642D01*
X46450000Y-53025500D01*
X46535714Y-53111214D01*
X46578571Y-53196928D01*
X46621428Y-53368357D01*
X46621428Y-53496928D01*
X46578571Y-53668357D01*
X46535714Y-53754071D01*
X46450000Y-53839785D01*
X46321428Y-53882642D01*
X46107142Y-53882642D01*
X47135714Y-53882642D02*
X47050000Y-53839785D01*
X47007142Y-53796928D01*
X46964285Y-53711214D01*
X46964285Y-53454071D01*
X47007142Y-53368357D01*
X47050000Y-53325500D01*
X47135714Y-53282642D01*
X47264285Y-53282642D01*
X47350000Y-53325500D01*
X47392857Y-53368357D01*
X47435714Y-53454071D01*
X47435714Y-53711214D01*
X47392857Y-53796928D01*
X47350000Y-53839785D01*
X47264285Y-53882642D01*
X47135714Y-53882642D01*
X48207142Y-53282642D02*
X48207142Y-53882642D01*
X47821428Y-53282642D02*
X47821428Y-53754071D01*
X47864285Y-53839785D01*
X47950000Y-53882642D01*
X48078571Y-53882642D01*
X48164285Y-53839785D01*
X48207142Y-53796928D01*
X48635714Y-53882642D02*
X48635714Y-52982642D01*
X48635714Y-53325500D02*
X48721428Y-53282642D01*
X48892857Y-53282642D01*
X48978571Y-53325500D01*
X49021428Y-53368357D01*
X49064285Y-53454071D01*
X49064285Y-53711214D01*
X49021428Y-53796928D01*
X48978571Y-53839785D01*
X48892857Y-53882642D01*
X48721428Y-53882642D01*
X48635714Y-53839785D01*
X49578571Y-53882642D02*
X49492857Y-53839785D01*
X49450000Y-53754071D01*
X49450000Y-52982642D01*
X50264285Y-53839785D02*
X50178571Y-53882642D01*
X50007142Y-53882642D01*
X49921428Y-53839785D01*
X49878571Y-53754071D01*
X49878571Y-53411214D01*
X49921428Y-53325500D01*
X50007142Y-53282642D01*
X50178571Y-53282642D01*
X50264285Y-53325500D01*
X50307142Y-53411214D01*
X50307142Y-53496928D01*
X49878571Y-53582642D01*
X51892857Y-53882642D02*
X51592857Y-53454071D01*
X51378571Y-53882642D02*
X51378571Y-52982642D01*
X51721428Y-52982642D01*
X51807142Y-53025500D01*
X51850000Y-53068357D01*
X51892857Y-53154071D01*
X51892857Y-53282642D01*
X51850000Y-53368357D01*
X51807142Y-53411214D01*
X51721428Y-53454071D01*
X51378571Y-53454071D01*
X52621428Y-53839785D02*
X52535714Y-53882642D01*
X52364285Y-53882642D01*
X52278571Y-53839785D01*
X52235714Y-53754071D01*
X52235714Y-53411214D01*
X52278571Y-53325500D01*
X52364285Y-53282642D01*
X52535714Y-53282642D01*
X52621428Y-53325500D01*
X52664285Y-53411214D01*
X52664285Y-53496928D01*
X52235714Y-53582642D01*
X53007142Y-53839785D02*
X53092857Y-53882642D01*
X53264285Y-53882642D01*
X53350000Y-53839785D01*
X53392857Y-53754071D01*
X53392857Y-53711214D01*
X53350000Y-53625500D01*
X53264285Y-53582642D01*
X53135714Y-53582642D01*
X53050000Y-53539785D01*
X53007142Y-53454071D01*
X53007142Y-53411214D01*
X53050000Y-53325500D01*
X53135714Y-53282642D01*
X53264285Y-53282642D01*
X53350000Y-53325500D01*
X53778571Y-53882642D02*
X53778571Y-53282642D01*
X53778571Y-52982642D02*
X53735714Y-53025500D01*
X53778571Y-53068357D01*
X53821428Y-53025500D01*
X53778571Y-52982642D01*
X53778571Y-53068357D01*
X54164285Y-53839785D02*
X54250000Y-53882642D01*
X54421428Y-53882642D01*
X54507142Y-53839785D01*
X54550000Y-53754071D01*
X54550000Y-53711214D01*
X54507142Y-53625500D01*
X54421428Y-53582642D01*
X54292857Y-53582642D01*
X54207142Y-53539785D01*
X54164285Y-53454071D01*
X54164285Y-53411214D01*
X54207142Y-53325500D01*
X54292857Y-53282642D01*
X54421428Y-53282642D01*
X54507142Y-53325500D01*
X54807142Y-53282642D02*
X55150000Y-53282642D01*
X54935714Y-52982642D02*
X54935714Y-53754071D01*
X54978571Y-53839785D01*
X55064285Y-53882642D01*
X55150000Y-53882642D01*
X55578571Y-53882642D02*
X55492857Y-53839785D01*
X55450000Y-53796928D01*
X55407142Y-53711214D01*
X55407142Y-53454071D01*
X55450000Y-53368357D01*
X55492857Y-53325500D01*
X55578571Y-53282642D01*
X55707142Y-53282642D01*
X55792857Y-53325500D01*
X55835714Y-53368357D01*
X55878571Y-53454071D01*
X55878571Y-53711214D01*
X55835714Y-53796928D01*
X55792857Y-53839785D01*
X55707142Y-53882642D01*
X55578571Y-53882642D01*
X56264285Y-53882642D02*
X56264285Y-53282642D01*
X56264285Y-53454071D02*
X56307142Y-53368357D01*
X56350000Y-53325500D01*
X56435714Y-53282642D01*
X56521428Y-53282642D01*
X46042857Y-55331642D02*
X45614285Y-55331642D01*
X45614285Y-54431642D01*
X46342857Y-55331642D02*
X46342857Y-54731642D01*
X46342857Y-54431642D02*
X46300000Y-54474500D01*
X46342857Y-54517357D01*
X46385714Y-54474500D01*
X46342857Y-54431642D01*
X46342857Y-54517357D01*
X46771428Y-54731642D02*
X46771428Y-55331642D01*
X46771428Y-54817357D02*
X46814285Y-54774500D01*
X46900000Y-54731642D01*
X47028571Y-54731642D01*
X47114285Y-54774500D01*
X47157142Y-54860214D01*
X47157142Y-55331642D01*
X47928571Y-55288785D02*
X47842857Y-55331642D01*
X47671428Y-55331642D01*
X47585714Y-55288785D01*
X47542857Y-55203071D01*
X47542857Y-54860214D01*
X47585714Y-54774500D01*
X47671428Y-54731642D01*
X47842857Y-54731642D01*
X47928571Y-54774500D01*
X47971428Y-54860214D01*
X47971428Y-54945928D01*
X47542857Y-55031642D01*
X49000000Y-55288785D02*
X49128571Y-55331642D01*
X49342857Y-55331642D01*
X49428571Y-55288785D01*
X49471428Y-55245928D01*
X49514285Y-55160214D01*
X49514285Y-55074500D01*
X49471428Y-54988785D01*
X49428571Y-54945928D01*
X49342857Y-54903071D01*
X49171428Y-54860214D01*
X49085714Y-54817357D01*
X49042857Y-54774500D01*
X49000000Y-54688785D01*
X49000000Y-54603071D01*
X49042857Y-54517357D01*
X49085714Y-54474500D01*
X49171428Y-54431642D01*
X49385714Y-54431642D01*
X49514285Y-54474500D01*
X49900000Y-55331642D02*
X49900000Y-54431642D01*
X50285714Y-55331642D02*
X50285714Y-54860214D01*
X50242857Y-54774500D01*
X50157142Y-54731642D01*
X50028571Y-54731642D01*
X49942857Y-54774500D01*
X49900000Y-54817357D01*
X50842857Y-55331642D02*
X50757142Y-55288785D01*
X50714285Y-55245928D01*
X50671428Y-55160214D01*
X50671428Y-54903071D01*
X50714285Y-54817357D01*
X50757142Y-54774500D01*
X50842857Y-54731642D01*
X50971428Y-54731642D01*
X51057142Y-54774500D01*
X51100000Y-54817357D01*
X51142857Y-54903071D01*
X51142857Y-55160214D01*
X51100000Y-55245928D01*
X51057142Y-55288785D01*
X50971428Y-55331642D01*
X50842857Y-55331642D01*
X51528571Y-55331642D02*
X51528571Y-54731642D01*
X51528571Y-54903071D02*
X51571428Y-54817357D01*
X51614285Y-54774500D01*
X51700000Y-54731642D01*
X51785714Y-54731642D01*
X51957142Y-54731642D02*
X52300000Y-54731642D01*
X52085714Y-54431642D02*
X52085714Y-55203071D01*
X52128571Y-55288785D01*
X52214285Y-55331642D01*
X52300000Y-55331642D01*
X54014285Y-55331642D02*
X53971428Y-55331642D01*
X53885714Y-55288785D01*
X53757142Y-55160214D01*
X53542857Y-54903071D01*
X53457142Y-54774500D01*
X53414285Y-54645928D01*
X53414285Y-54560214D01*
X53457142Y-54474500D01*
X53542857Y-54431642D01*
X53585714Y-54431642D01*
X53671428Y-54474500D01*
X53714285Y-54560214D01*
X53714285Y-54603071D01*
X53671428Y-54688785D01*
X53628571Y-54731642D01*
X53371428Y-54903071D01*
X53328571Y-54945928D01*
X53285714Y-55031642D01*
X53285714Y-55160214D01*
X53328571Y-55245928D01*
X53371428Y-55288785D01*
X53457142Y-55331642D01*
X53585714Y-55331642D01*
X53671428Y-55288785D01*
X53714285Y-55245928D01*
X53842857Y-55074500D01*
X53885714Y-54945928D01*
X53885714Y-54860214D01*
X55600000Y-55245928D02*
X55557142Y-55288785D01*
X55428571Y-55331642D01*
X55342857Y-55331642D01*
X55214285Y-55288785D01*
X55128571Y-55203071D01*
X55085714Y-55117357D01*
X55042857Y-54945928D01*
X55042857Y-54817357D01*
X55085714Y-54645928D01*
X55128571Y-54560214D01*
X55214285Y-54474500D01*
X55342857Y-54431642D01*
X55428571Y-54431642D01*
X55557142Y-54474500D01*
X55600000Y-54517357D01*
X56371428Y-54731642D02*
X56371428Y-55331642D01*
X55985714Y-54731642D02*
X55985714Y-55203071D01*
X56028571Y-55288785D01*
X56114285Y-55331642D01*
X56242857Y-55331642D01*
X56328571Y-55288785D01*
X56371428Y-55245928D01*
X56671428Y-54731642D02*
X57014285Y-54731642D01*
X56800000Y-54431642D02*
X56800000Y-55203071D01*
X56842857Y-55288785D01*
X56928571Y-55331642D01*
X57014285Y-55331642D01*
X23552743Y-53839785D02*
X23681314Y-53882642D01*
X23895600Y-53882642D01*
X23981314Y-53839785D01*
X24024172Y-53796928D01*
X24067029Y-53711214D01*
X24067029Y-53625500D01*
X24024172Y-53539785D01*
X23981314Y-53496928D01*
X23895600Y-53454071D01*
X23724172Y-53411214D01*
X23638457Y-53368357D01*
X23595600Y-53325500D01*
X23552743Y-53239785D01*
X23552743Y-53154071D01*
X23595600Y-53068357D01*
X23638457Y-53025500D01*
X23724172Y-52982642D01*
X23938457Y-52982642D01*
X24067029Y-53025500D01*
X24452743Y-53882642D02*
X24452743Y-53282642D01*
X24452743Y-52982642D02*
X24409886Y-53025500D01*
X24452743Y-53068357D01*
X24495600Y-53025500D01*
X24452743Y-52982642D01*
X24452743Y-53068357D01*
X24881314Y-53282642D02*
X24881314Y-53882642D01*
X24881314Y-53368357D02*
X24924172Y-53325500D01*
X25009886Y-53282642D01*
X25138457Y-53282642D01*
X25224172Y-53325500D01*
X25267029Y-53411214D01*
X25267029Y-53882642D01*
X26081314Y-53282642D02*
X26081314Y-54011214D01*
X26038457Y-54096928D01*
X25995600Y-54139785D01*
X25909886Y-54182642D01*
X25781314Y-54182642D01*
X25695600Y-54139785D01*
X26081314Y-53839785D02*
X25995600Y-53882642D01*
X25824172Y-53882642D01*
X25738457Y-53839785D01*
X25695600Y-53796928D01*
X25652743Y-53711214D01*
X25652743Y-53454071D01*
X25695600Y-53368357D01*
X25738457Y-53325500D01*
X25824172Y-53282642D01*
X25995600Y-53282642D01*
X26081314Y-53325500D01*
X26638457Y-53882642D02*
X26552743Y-53839785D01*
X26509886Y-53754071D01*
X26509886Y-52982642D01*
X27324172Y-53839785D02*
X27238457Y-53882642D01*
X27067029Y-53882642D01*
X26981314Y-53839785D01*
X26938457Y-53754071D01*
X26938457Y-53411214D01*
X26981314Y-53325500D01*
X27067029Y-53282642D01*
X27238457Y-53282642D01*
X27324172Y-53325500D01*
X27367029Y-53411214D01*
X27367029Y-53496928D01*
X26938457Y-53582642D01*
X28952743Y-53882642D02*
X28652743Y-53454071D01*
X28438457Y-53882642D02*
X28438457Y-52982642D01*
X28781314Y-52982642D01*
X28867029Y-53025500D01*
X28909886Y-53068357D01*
X28952743Y-53154071D01*
X28952743Y-53282642D01*
X28909886Y-53368357D01*
X28867029Y-53411214D01*
X28781314Y-53454071D01*
X28438457Y-53454071D01*
X29681314Y-53839785D02*
X29595600Y-53882642D01*
X29424172Y-53882642D01*
X29338457Y-53839785D01*
X29295600Y-53754071D01*
X29295600Y-53411214D01*
X29338457Y-53325500D01*
X29424172Y-53282642D01*
X29595600Y-53282642D01*
X29681314Y-53325500D01*
X29724172Y-53411214D01*
X29724172Y-53496928D01*
X29295600Y-53582642D01*
X30067029Y-53839785D02*
X30152743Y-53882642D01*
X30324172Y-53882642D01*
X30409886Y-53839785D01*
X30452743Y-53754071D01*
X30452743Y-53711214D01*
X30409886Y-53625500D01*
X30324172Y-53582642D01*
X30195600Y-53582642D01*
X30109886Y-53539785D01*
X30067029Y-53454071D01*
X30067029Y-53411214D01*
X30109886Y-53325500D01*
X30195600Y-53282642D01*
X30324172Y-53282642D01*
X30409886Y-53325500D01*
X30838457Y-53882642D02*
X30838457Y-53282642D01*
X30838457Y-52982642D02*
X30795600Y-53025500D01*
X30838457Y-53068357D01*
X30881314Y-53025500D01*
X30838457Y-52982642D01*
X30838457Y-53068357D01*
X31224172Y-53839785D02*
X31309886Y-53882642D01*
X31481314Y-53882642D01*
X31567029Y-53839785D01*
X31609886Y-53754071D01*
X31609886Y-53711214D01*
X31567029Y-53625500D01*
X31481314Y-53582642D01*
X31352743Y-53582642D01*
X31267029Y-53539785D01*
X31224172Y-53454071D01*
X31224172Y-53411214D01*
X31267029Y-53325500D01*
X31352743Y-53282642D01*
X31481314Y-53282642D01*
X31567029Y-53325500D01*
X31867029Y-53282642D02*
X32209886Y-53282642D01*
X31995600Y-52982642D02*
X31995600Y-53754071D01*
X32038457Y-53839785D01*
X32124172Y-53882642D01*
X32209886Y-53882642D01*
X32638457Y-53882642D02*
X32552743Y-53839785D01*
X32509886Y-53796928D01*
X32467029Y-53711214D01*
X32467029Y-53454071D01*
X32509886Y-53368357D01*
X32552743Y-53325500D01*
X32638457Y-53282642D01*
X32767029Y-53282642D01*
X32852743Y-53325500D01*
X32895600Y-53368357D01*
X32938457Y-53454071D01*
X32938457Y-53711214D01*
X32895600Y-53796928D01*
X32852743Y-53839785D01*
X32767029Y-53882642D01*
X32638457Y-53882642D01*
X33324172Y-53882642D02*
X33324172Y-53282642D01*
X33324172Y-53454071D02*
X33367029Y-53368357D01*
X33409886Y-53325500D01*
X33495600Y-53282642D01*
X33581314Y-53282642D01*
X25674172Y-55331642D02*
X25245600Y-55331642D01*
X25245600Y-54431642D01*
X25974172Y-55331642D02*
X25974172Y-54731642D01*
X25974172Y-54431642D02*
X25931314Y-54474500D01*
X25974172Y-54517357D01*
X26017029Y-54474500D01*
X25974172Y-54431642D01*
X25974172Y-54517357D01*
X26402743Y-54731642D02*
X26402743Y-55331642D01*
X26402743Y-54817357D02*
X26445600Y-54774500D01*
X26531314Y-54731642D01*
X26659886Y-54731642D01*
X26745600Y-54774500D01*
X26788457Y-54860214D01*
X26788457Y-55331642D01*
X27559886Y-55288785D02*
X27474172Y-55331642D01*
X27302743Y-55331642D01*
X27217029Y-55288785D01*
X27174172Y-55203071D01*
X27174172Y-54860214D01*
X27217029Y-54774500D01*
X27302743Y-54731642D01*
X27474172Y-54731642D01*
X27559886Y-54774500D01*
X27602743Y-54860214D01*
X27602743Y-54945928D01*
X27174172Y-55031642D01*
X28631314Y-55288785D02*
X28759886Y-55331642D01*
X28974172Y-55331642D01*
X29059886Y-55288785D01*
X29102743Y-55245928D01*
X29145600Y-55160214D01*
X29145600Y-55074500D01*
X29102743Y-54988785D01*
X29059886Y-54945928D01*
X28974172Y-54903071D01*
X28802743Y-54860214D01*
X28717029Y-54817357D01*
X28674172Y-54774500D01*
X28631314Y-54688785D01*
X28631314Y-54603071D01*
X28674172Y-54517357D01*
X28717029Y-54474500D01*
X28802743Y-54431642D01*
X29017029Y-54431642D01*
X29145600Y-54474500D01*
X29531314Y-55331642D02*
X29531314Y-54431642D01*
X29917029Y-55331642D02*
X29917029Y-54860214D01*
X29874172Y-54774500D01*
X29788457Y-54731642D01*
X29659886Y-54731642D01*
X29574172Y-54774500D01*
X29531314Y-54817357D01*
X30474172Y-55331642D02*
X30388457Y-55288785D01*
X30345600Y-55245928D01*
X30302743Y-55160214D01*
X30302743Y-54903071D01*
X30345600Y-54817357D01*
X30388457Y-54774500D01*
X30474172Y-54731642D01*
X30602743Y-54731642D01*
X30688457Y-54774500D01*
X30731314Y-54817357D01*
X30774172Y-54903071D01*
X30774172Y-55160214D01*
X30731314Y-55245928D01*
X30688457Y-55288785D01*
X30602743Y-55331642D01*
X30474172Y-55331642D01*
X31159886Y-55331642D02*
X31159886Y-54731642D01*
X31159886Y-54903071D02*
X31202743Y-54817357D01*
X31245600Y-54774500D01*
X31331314Y-54731642D01*
X31417029Y-54731642D01*
X31588457Y-54731642D02*
X31931314Y-54731642D01*
X31717029Y-54431642D02*
X31717029Y-55203071D01*
X31759886Y-55288785D01*
X31845600Y-55331642D01*
X31931314Y-55331642D01*
D11*
%TO.C,SW5*%
X38166666Y-47904761D02*
X38309523Y-47952380D01*
X38547619Y-47952380D01*
X38642857Y-47904761D01*
X38690476Y-47857142D01*
X38738095Y-47761904D01*
X38738095Y-47666666D01*
X38690476Y-47571428D01*
X38642857Y-47523809D01*
X38547619Y-47476190D01*
X38357142Y-47428571D01*
X38261904Y-47380952D01*
X38214285Y-47333333D01*
X38166666Y-47238095D01*
X38166666Y-47142857D01*
X38214285Y-47047619D01*
X38261904Y-47000000D01*
X38357142Y-46952380D01*
X38595238Y-46952380D01*
X38738095Y-47000000D01*
X39071428Y-46952380D02*
X39309523Y-47952380D01*
X39500000Y-47238095D01*
X39690476Y-47952380D01*
X39928571Y-46952380D01*
X40785714Y-46952380D02*
X40309523Y-46952380D01*
X40261904Y-47428571D01*
X40309523Y-47380952D01*
X40404761Y-47333333D01*
X40642857Y-47333333D01*
X40738095Y-47380952D01*
X40785714Y-47428571D01*
X40833333Y-47523809D01*
X40833333Y-47761904D01*
X40785714Y-47857142D01*
X40738095Y-47904761D01*
X40642857Y-47952380D01*
X40404761Y-47952380D01*
X40309523Y-47904761D01*
X40261904Y-47857142D01*
%TO.C,SW6*%
X49271666Y-47719761D02*
X49414523Y-47767380D01*
X49652619Y-47767380D01*
X49747857Y-47719761D01*
X49795476Y-47672142D01*
X49843095Y-47576904D01*
X49843095Y-47481666D01*
X49795476Y-47386428D01*
X49747857Y-47338809D01*
X49652619Y-47291190D01*
X49462142Y-47243571D01*
X49366904Y-47195952D01*
X49319285Y-47148333D01*
X49271666Y-47053095D01*
X49271666Y-46957857D01*
X49319285Y-46862619D01*
X49366904Y-46815000D01*
X49462142Y-46767380D01*
X49700238Y-46767380D01*
X49843095Y-46815000D01*
X50176428Y-46767380D02*
X50414523Y-47767380D01*
X50605000Y-47053095D01*
X50795476Y-47767380D01*
X51033571Y-46767380D01*
X51843095Y-46767380D02*
X51652619Y-46767380D01*
X51557380Y-46815000D01*
X51509761Y-46862619D01*
X51414523Y-47005476D01*
X51366904Y-47195952D01*
X51366904Y-47576904D01*
X51414523Y-47672142D01*
X51462142Y-47719761D01*
X51557380Y-47767380D01*
X51747857Y-47767380D01*
X51843095Y-47719761D01*
X51890714Y-47672142D01*
X51938333Y-47576904D01*
X51938333Y-47338809D01*
X51890714Y-47243571D01*
X51843095Y-47195952D01*
X51747857Y-47148333D01*
X51557380Y-47148333D01*
X51462142Y-47195952D01*
X51414523Y-47243571D01*
X51366904Y-47338809D01*
%TO.C,SW7*%
X27166666Y-47904761D02*
X27309523Y-47952380D01*
X27547619Y-47952380D01*
X27642857Y-47904761D01*
X27690476Y-47857142D01*
X27738095Y-47761904D01*
X27738095Y-47666666D01*
X27690476Y-47571428D01*
X27642857Y-47523809D01*
X27547619Y-47476190D01*
X27357142Y-47428571D01*
X27261904Y-47380952D01*
X27214285Y-47333333D01*
X27166666Y-47238095D01*
X27166666Y-47142857D01*
X27214285Y-47047619D01*
X27261904Y-47000000D01*
X27357142Y-46952380D01*
X27595238Y-46952380D01*
X27738095Y-47000000D01*
X28071428Y-46952380D02*
X28309523Y-47952380D01*
X28500000Y-47238095D01*
X28690476Y-47952380D01*
X28928571Y-46952380D01*
X29214285Y-46952380D02*
X29880952Y-46952380D01*
X29452380Y-47952380D01*
%TO.C,J1*%
X39166666Y-20452380D02*
X39166666Y-21166666D01*
X39119047Y-21309523D01*
X39023809Y-21404761D01*
X38880952Y-21452380D01*
X38785714Y-21452380D01*
X40166666Y-21452380D02*
X39595238Y-21452380D01*
X39880952Y-21452380D02*
X39880952Y-20452380D01*
X39785714Y-20595238D01*
X39690476Y-20690476D01*
X39595238Y-20738095D01*
D10*
%TO.C,R1*%
X38171267Y-38490000D02*
X37828733Y-38490000D01*
X38171267Y-39510000D02*
X37828733Y-39510000D01*
%TO.C,R2*%
X48510000Y-39671267D02*
X48510000Y-39328733D01*
X47490000Y-39671267D02*
X47490000Y-39328733D01*
%TO.C,R3*%
X26510000Y-39671267D02*
X26510000Y-39328733D01*
X25490000Y-39671267D02*
X25490000Y-39328733D01*
%TO.C,R4*%
X51021267Y-40910000D02*
X50678733Y-40910000D01*
X51021267Y-39890000D02*
X50678733Y-39890000D01*
%TO.C,SW1*%
X43750000Y-35850000D02*
X40050000Y-35850000D01*
X40050000Y-27150000D02*
X43750000Y-27150000D01*
X40050000Y-28030000D02*
X40050000Y-27150000D01*
X43750000Y-27150000D02*
X43750000Y-28000000D01*
X40050000Y-33020000D02*
X40050000Y-32470000D01*
X43750000Y-30000000D02*
X43750000Y-30530000D01*
X43750000Y-34970000D02*
X43750000Y-35850000D01*
X44050000Y-26850000D02*
X44050000Y-27850000D01*
X43750000Y-32470000D02*
X43750000Y-33030000D01*
X43050000Y-26850000D02*
X44050000Y-26850000D01*
X40050000Y-30530000D02*
X40050000Y-29970000D01*
X40050000Y-35850000D02*
X40050000Y-34980000D01*
%TO.C,SW2*%
X51250000Y-35850000D02*
X51250000Y-35000000D01*
X51250000Y-33000000D02*
X51250000Y-32470000D01*
X51250000Y-30530000D02*
X51250000Y-29970000D01*
X54950000Y-35850000D02*
X51250000Y-35850000D01*
X54950000Y-32470000D02*
X54950000Y-33030000D01*
X54950000Y-34970000D02*
X54950000Y-35850000D01*
X51950000Y-36150000D02*
X50950000Y-36150000D01*
X54950000Y-27150000D02*
X54950000Y-28020000D01*
X54950000Y-29980000D02*
X54950000Y-30530000D01*
X51250000Y-27150000D02*
X54950000Y-27150000D01*
X50950000Y-36150000D02*
X50950000Y-35150000D01*
X51250000Y-28030000D02*
X51250000Y-27150000D01*
%TO.C,SW3*%
X29250000Y-35850000D02*
X29250000Y-35000000D01*
X32950000Y-35850000D02*
X29250000Y-35850000D01*
X32950000Y-27150000D02*
X32950000Y-28020000D01*
X28950000Y-36150000D02*
X28950000Y-35150000D01*
X29250000Y-27150000D02*
X32950000Y-27150000D01*
X32950000Y-34970000D02*
X32950000Y-35850000D01*
X29950000Y-36150000D02*
X28950000Y-36150000D01*
X29250000Y-33000000D02*
X29250000Y-32470000D01*
X32950000Y-32470000D02*
X32950000Y-33030000D01*
X32950000Y-29980000D02*
X32950000Y-30530000D01*
X29250000Y-28030000D02*
X29250000Y-27150000D01*
X29250000Y-30530000D02*
X29250000Y-29970000D01*
%TO.C,SW4*%
X60050000Y-35850000D02*
X60050000Y-34980000D01*
X64050000Y-26850000D02*
X64050000Y-27850000D01*
X60050000Y-33020000D02*
X60050000Y-32470000D01*
X63750000Y-35850000D02*
X60050000Y-35850000D01*
X60050000Y-28030000D02*
X60050000Y-27150000D01*
X63750000Y-30000000D02*
X63750000Y-30530000D01*
X63750000Y-34970000D02*
X63750000Y-35850000D01*
X63050000Y-26850000D02*
X64050000Y-26850000D01*
X60050000Y-27150000D02*
X63750000Y-27150000D01*
X63750000Y-27150000D02*
X63750000Y-28000000D01*
X63750000Y-32470000D02*
X63750000Y-33030000D01*
X60050000Y-30530000D02*
X60050000Y-29970000D01*
%TO.C,SW5*%
X43500000Y-42500000D02*
X43500000Y-51500000D01*
X35500000Y-51500000D02*
X35500000Y-42500000D01*
X35500000Y-42500000D02*
X43500000Y-42500000D01*
X43500000Y-51500000D02*
X35500000Y-51500000D01*
D12*
X37500000Y-46000000D02*
G75*
G03*
X37500000Y-46000000I-500000J0D01*
G01*
X42500000Y-48000000D02*
G75*
G03*
X42500000Y-48000000I-500000J0D01*
G01*
D10*
%TO.C,SW6*%
X46500000Y-42500000D02*
X54500000Y-42500000D01*
X46500000Y-51500000D02*
X46500000Y-42500000D01*
X54500000Y-51500000D02*
X46500000Y-51500000D01*
X54500000Y-42500000D02*
X54500000Y-51500000D01*
D12*
X53500000Y-48000000D02*
G75*
G03*
X53500000Y-48000000I-500000J0D01*
G01*
X48500000Y-46000000D02*
G75*
G03*
X48500000Y-46000000I-500000J0D01*
G01*
D10*
%TO.C,SW7*%
X32500000Y-42500000D02*
X32500000Y-51500000D01*
X32500000Y-51500000D02*
X24500000Y-51500000D01*
X24500000Y-42500000D02*
X32500000Y-42500000D01*
X24500000Y-51500000D02*
X24500000Y-42500000D01*
D12*
X31500000Y-48000000D02*
G75*
G03*
X31500000Y-48000000I-500000J0D01*
G01*
X26500000Y-46000000D02*
G75*
G03*
X26500000Y-46000000I-500000J0D01*
G01*
%TO.C,kibuzzard-6481E3F6*%
G36*
X55137810Y-51519739D02*
G01*
X55137810Y-50698049D01*
X55534685Y-50698049D01*
X55551936Y-50821663D01*
X55603688Y-50925803D01*
X55689942Y-51010469D01*
X55776918Y-51059642D01*
X55882586Y-51094765D01*
X56006946Y-51115839D01*
X56150000Y-51122864D01*
X56293054Y-51116018D01*
X56417414Y-51095480D01*
X56523082Y-51061249D01*
X56610057Y-51013327D01*
X56696312Y-50929401D01*
X56748064Y-50823673D01*
X56765315Y-50696144D01*
X56748064Y-50571684D01*
X56696312Y-50467544D01*
X56610057Y-50383724D01*
X56523082Y-50335385D01*
X56417414Y-50300857D01*
X56293054Y-50280140D01*
X56150000Y-50273234D01*
X56006946Y-50280021D01*
X55882586Y-50300380D01*
X55776918Y-50334313D01*
X55689942Y-50381819D01*
X55603688Y-50465216D01*
X55551936Y-50570626D01*
X55534685Y-50698049D01*
X55137810Y-50698049D01*
X55137810Y-49795079D01*
X55548020Y-49795079D01*
X55549925Y-49869374D01*
X55554687Y-49955099D01*
X55563260Y-50041777D01*
X55576595Y-50118929D01*
X56740550Y-50118929D01*
X56740550Y-49884614D01*
X56342405Y-49884614D01*
X56342405Y-49800794D01*
X56331927Y-49659930D01*
X56300495Y-49542138D01*
X56248107Y-49447417D01*
X56172225Y-49378096D01*
X56070307Y-49336503D01*
X55942355Y-49322639D01*
X55815672Y-49336398D01*
X55715025Y-49377673D01*
X55640412Y-49446464D01*
X55589083Y-49540233D01*
X55558286Y-49656438D01*
X55548020Y-49795079D01*
X55137810Y-49795079D01*
X55137810Y-49149284D01*
X55561355Y-49149284D01*
X56740550Y-49149284D01*
X56740550Y-48392999D01*
X56546240Y-48392999D01*
X56546240Y-48914969D01*
X56214770Y-48914969D01*
X56214770Y-48497774D01*
X56020460Y-48497774D01*
X56020460Y-48914969D01*
X55755665Y-48914969D01*
X55755665Y-48434909D01*
X55561355Y-48434909D01*
X55561355Y-49149284D01*
X55137810Y-49149284D01*
X55137810Y-48229169D01*
X55561355Y-48229169D01*
X56740550Y-48229169D01*
X56740550Y-48017714D01*
X55957595Y-48017714D01*
X56088299Y-47946912D01*
X56218792Y-47879284D01*
X56349072Y-47814832D01*
X56479353Y-47753554D01*
X56609846Y-47695452D01*
X56740550Y-47640524D01*
X56740550Y-47451929D01*
X55561355Y-47451929D01*
X55561355Y-47663384D01*
X56287160Y-47663384D01*
X56212865Y-47696960D01*
X56127140Y-47736727D01*
X56034271Y-47781494D01*
X55938545Y-47830072D01*
X55841152Y-47881269D01*
X55743282Y-47933894D01*
X55648747Y-47987234D01*
X55561355Y-48040574D01*
X55561355Y-48229169D01*
X55137810Y-48229169D01*
X55137810Y-47055054D01*
X56150000Y-46380261D01*
X57162190Y-47055054D01*
X57162190Y-51519739D01*
X55137810Y-51519739D01*
G37*
G36*
X56033081Y-49576957D02*
G01*
X56093802Y-49619819D01*
X56127378Y-49690780D01*
X56138570Y-49789364D01*
X56138570Y-49884614D01*
X55757570Y-49884614D01*
X55752807Y-49826512D01*
X55751855Y-49768409D01*
X55762571Y-49684351D01*
X55794717Y-49618867D01*
X55852582Y-49576719D01*
X55940450Y-49562669D01*
X56033081Y-49576957D01*
G37*
G36*
X56232867Y-50513026D02*
G01*
X56310020Y-50518027D01*
X56440512Y-50544697D01*
X56529095Y-50601847D01*
X56561480Y-50698049D01*
X56529095Y-50795204D01*
X56441465Y-50851402D01*
X56310972Y-50878072D01*
X56233106Y-50883072D01*
X56150000Y-50884739D01*
X56067132Y-50883072D01*
X55989980Y-50878072D01*
X55859487Y-50851402D01*
X55770905Y-50795204D01*
X55738520Y-50698049D01*
X55770905Y-50600894D01*
X55858535Y-50544697D01*
X55989027Y-50518027D01*
X56066894Y-50513026D01*
X56150000Y-50511359D01*
X56232867Y-50513026D01*
G37*
%TO.C,kibuzzard-6481E55F*%
G36*
X18050000Y-34632642D02*
G01*
X15847368Y-36101063D01*
X15847368Y-34235767D01*
X16270913Y-34235767D01*
X16377593Y-34213859D01*
X16510943Y-34182427D01*
X16610744Y-34157238D01*
X16714566Y-34129933D01*
X16822410Y-34100512D01*
X16932371Y-34069397D01*
X17042544Y-34037012D01*
X17152928Y-34003357D01*
X17310090Y-33953351D01*
X17450108Y-33906202D01*
X17450108Y-33787566D01*
X18669590Y-33787566D01*
X18742787Y-33868271D01*
X18768551Y-33906202D01*
X18810353Y-33967744D01*
X18868535Y-34072847D01*
X18911703Y-34170443D01*
X19103141Y-34095369D01*
X19057158Y-33980882D01*
X18990530Y-33860763D01*
X19639920Y-33860763D01*
X19639920Y-34104754D01*
X19831358Y-34104754D01*
X19831358Y-33399059D01*
X19639920Y-33399059D01*
X19639920Y-33629911D01*
X18669590Y-33629911D01*
X18669590Y-33787566D01*
X17450108Y-33787566D01*
X17450108Y-33664267D01*
X17348614Y-33627860D01*
X17244791Y-33592300D01*
X17138640Y-33557587D01*
X17031960Y-33524249D01*
X16926550Y-33492817D01*
X16822410Y-33463289D01*
X16670725Y-33422808D01*
X16526183Y-33387089D01*
X16391880Y-33356371D01*
X16270913Y-33330892D01*
X16270913Y-33576637D01*
X16369973Y-33593782D01*
X16484273Y-33614737D01*
X16607860Y-33638549D01*
X16734780Y-33664267D01*
X16862415Y-33691889D01*
X16988145Y-33721417D01*
X17106017Y-33751897D01*
X17210078Y-33782377D01*
X17104589Y-33813095D01*
X16986240Y-33844289D01*
X16860510Y-33874769D01*
X16732875Y-33903344D01*
X16606193Y-33929776D01*
X16483320Y-33953827D01*
X16369735Y-33973829D01*
X16270913Y-33988117D01*
X16270913Y-34235767D01*
X15847368Y-34235767D01*
X15847368Y-33188017D01*
X16270913Y-33188017D01*
X17450108Y-33188017D01*
X17450108Y-32851020D01*
X19517924Y-32851020D01*
X19529186Y-32914832D01*
X19561092Y-32968322D01*
X19612705Y-33005859D01*
X19683087Y-33019936D01*
X19755346Y-33005859D01*
X19807897Y-32968322D01*
X19840742Y-32914832D01*
X19852003Y-32851020D01*
X19808836Y-32734655D01*
X19683087Y-32683980D01*
X19561092Y-32734655D01*
X19517924Y-32851020D01*
X17450108Y-32851020D01*
X17450108Y-32431732D01*
X17255798Y-32431732D01*
X17255798Y-32953702D01*
X16924328Y-32953702D01*
X16924328Y-32536507D01*
X16730018Y-32536507D01*
X16730018Y-32953702D01*
X16465223Y-32953702D01*
X16465223Y-32473642D01*
X16270913Y-32473642D01*
X16270913Y-33188017D01*
X15847368Y-33188017D01*
X15847368Y-31947862D01*
X16257578Y-31947862D01*
X16259483Y-32014537D01*
X16264245Y-32094547D01*
X16273770Y-32177414D01*
X16288058Y-32252662D01*
X17450108Y-32252662D01*
X17450108Y-32018347D01*
X17015768Y-32018347D01*
X17015768Y-31914473D01*
X18643314Y-31914473D01*
X18659997Y-32033548D01*
X18710046Y-32133021D01*
X18793461Y-32212891D01*
X18878154Y-32258874D01*
X18982085Y-32291719D01*
X19105253Y-32311426D01*
X19247658Y-32317995D01*
X19391707Y-32311543D01*
X19516048Y-32292188D01*
X19620682Y-32259930D01*
X19705609Y-32214768D01*
X19789025Y-32135524D01*
X19839074Y-32035425D01*
X19855757Y-31914473D01*
X19839074Y-31793520D01*
X19789025Y-31693422D01*
X19705609Y-31614177D01*
X19620682Y-31569016D01*
X19516048Y-31536757D01*
X19391707Y-31517402D01*
X19247658Y-31510951D01*
X19104490Y-31517402D01*
X18980912Y-31536757D01*
X18876922Y-31569016D01*
X18792523Y-31614177D01*
X18709629Y-31693422D01*
X18659892Y-31793520D01*
X18643314Y-31914473D01*
X17015768Y-31914473D01*
X17015768Y-31896427D01*
X17123639Y-31831895D01*
X17230080Y-31771649D01*
X17337951Y-31717119D01*
X17450108Y-31669732D01*
X17450108Y-31423987D01*
X17325330Y-31478279D01*
X17193885Y-31544002D01*
X17068155Y-31614487D01*
X16958618Y-31683067D01*
X16904802Y-31599723D01*
X16830983Y-31544002D01*
X16742400Y-31512569D01*
X16644293Y-31502092D01*
X16551662Y-31509950D01*
X16471890Y-31533524D01*
X16350923Y-31624012D01*
X16309489Y-31688782D01*
X16280438Y-31764982D01*
X16263293Y-31851659D01*
X16257578Y-31947862D01*
X15847368Y-31947862D01*
X15847368Y-30905827D01*
X16244243Y-30905827D01*
X16254615Y-31022561D01*
X16285730Y-31121303D01*
X16337588Y-31202054D01*
X16449030Y-31282779D01*
X16596668Y-31309687D01*
X16736685Y-31279207D01*
X16830983Y-31202054D01*
X16893848Y-31098232D01*
X16937663Y-30987742D01*
X16971000Y-30907732D01*
X17011005Y-30835342D01*
X17061488Y-30782002D01*
X17126258Y-30761047D01*
X17182455Y-30769619D01*
X17231985Y-30801052D01*
X17266275Y-30862964D01*
X17278658Y-30961072D01*
X17271990Y-31056084D01*
X17251988Y-31135379D01*
X17194838Y-31258252D01*
X17385338Y-31326832D01*
X17443440Y-31195387D01*
X17467015Y-31092993D01*
X17474873Y-30961072D01*
X17464819Y-30827404D01*
X17434656Y-30718502D01*
X17384385Y-30634364D01*
X17275086Y-30553640D01*
X17128163Y-30526732D01*
X17039342Y-30534828D01*
X16967190Y-30559117D01*
X16860510Y-30641984D01*
X16791930Y-30752474D01*
X16745258Y-30867727D01*
X16716683Y-30941069D01*
X16681440Y-31007744D01*
X16635720Y-31056322D01*
X16575713Y-31075372D01*
X16500571Y-31054628D01*
X16455486Y-30992398D01*
X16440458Y-30888682D01*
X16459508Y-30754379D01*
X16505228Y-30648652D01*
X16324253Y-30580072D01*
X16269008Y-30716279D01*
X16250434Y-30804147D01*
X16244243Y-30905827D01*
X15847368Y-30905827D01*
X15847368Y-30347662D01*
X16270913Y-30347662D01*
X16465223Y-30347662D01*
X16465223Y-30090487D01*
X17255798Y-30090487D01*
X17255798Y-30347662D01*
X17450108Y-30347662D01*
X17450108Y-29598997D01*
X17255798Y-29598997D01*
X17255798Y-29854267D01*
X16465223Y-29854267D01*
X16465223Y-29598997D01*
X16270913Y-29598997D01*
X16270913Y-30347662D01*
X15847368Y-30347662D01*
X15847368Y-29021782D01*
X16244243Y-29021782D01*
X16261494Y-29145395D01*
X16313246Y-29249535D01*
X16399500Y-29334202D01*
X16486476Y-29383375D01*
X16592144Y-29418498D01*
X16716504Y-29439572D01*
X16859558Y-29446597D01*
X17002612Y-29439751D01*
X17126972Y-29419212D01*
X17232640Y-29384982D01*
X17319615Y-29337059D01*
X17405870Y-29253133D01*
X17457622Y-29147406D01*
X17474873Y-29019877D01*
X17457622Y-28895417D01*
X17405870Y-28791277D01*
X17319615Y-28707457D01*
X17232640Y-28659117D01*
X17126972Y-28624589D01*
X17002612Y-28603872D01*
X16859558Y-28596967D01*
X16716504Y-28603753D01*
X16592144Y-28624113D01*
X16486476Y-28658046D01*
X16399500Y-28705552D01*
X16313246Y-28788948D01*
X16261494Y-28894358D01*
X16244243Y-29021782D01*
X15847368Y-29021782D01*
X15847368Y-28457902D01*
X16270913Y-28457902D01*
X17450108Y-28457902D01*
X17450108Y-28246447D01*
X16667153Y-28246447D01*
X16797857Y-28175644D01*
X16928350Y-28108017D01*
X17058630Y-28043564D01*
X17188911Y-27982287D01*
X17319404Y-27924184D01*
X17450108Y-27869257D01*
X17450108Y-27680662D01*
X16270913Y-27680662D01*
X16270913Y-27892117D01*
X16996718Y-27892117D01*
X16922423Y-27925692D01*
X16836698Y-27965459D01*
X16743829Y-28010227D01*
X16648103Y-28058804D01*
X16550710Y-28110001D01*
X16452840Y-28162627D01*
X16358305Y-28215967D01*
X16270913Y-28269307D01*
X16270913Y-28457902D01*
X15847368Y-28457902D01*
X15847368Y-27283787D01*
X20252632Y-27283787D01*
X20252632Y-36101063D01*
X18050000Y-34632642D01*
G37*
G36*
X19630770Y-31997523D02*
G01*
X19552646Y-32058990D01*
X19424317Y-32096996D01*
X19247658Y-32109665D01*
X19072408Y-32096996D01*
X18944548Y-32058990D01*
X18866424Y-31997523D01*
X18840383Y-31914473D01*
X18840963Y-31912596D01*
X19103141Y-31912596D01*
X19140678Y-31989547D01*
X19228890Y-32017699D01*
X19316163Y-31989547D01*
X19352762Y-31912596D01*
X19316163Y-31838460D01*
X19228890Y-31809369D01*
X19140678Y-31838460D01*
X19103141Y-31912596D01*
X18840963Y-31912596D01*
X18866424Y-31830249D01*
X18944548Y-31769017D01*
X19072408Y-31731715D01*
X19247658Y-31719281D01*
X19424317Y-31731715D01*
X19552646Y-31769017D01*
X19630770Y-31830249D01*
X19656231Y-31912596D01*
X19656811Y-31914473D01*
X19630770Y-31997523D01*
G37*
G36*
X16942425Y-28836759D02*
G01*
X17019578Y-28841759D01*
X17150070Y-28868429D01*
X17238653Y-28925579D01*
X17271038Y-29021782D01*
X17238653Y-29118937D01*
X17151023Y-29175134D01*
X17020530Y-29201804D01*
X16942664Y-29206805D01*
X16859558Y-29208472D01*
X16776690Y-29206805D01*
X16699538Y-29201804D01*
X16569045Y-29175134D01*
X16480463Y-29118937D01*
X16448078Y-29021782D01*
X16480463Y-28924627D01*
X16568093Y-28868429D01*
X16698585Y-28841759D01*
X16776452Y-28836759D01*
X16859558Y-28835092D01*
X16942425Y-28836759D01*
G37*
G36*
X16774785Y-31793557D02*
G01*
X16809790Y-31863566D01*
X16821458Y-31966912D01*
X16821458Y-32018347D01*
X16467128Y-32018347D01*
X16462365Y-31980247D01*
X16461413Y-31947862D01*
X16472367Y-31863566D01*
X16505228Y-31797367D01*
X16561425Y-31754504D01*
X16642388Y-31740217D01*
X16774785Y-31793557D01*
G37*
%TO.C,kibuzzard-6481E2F6*%
G36*
X23000192Y-41010471D02*
G01*
X23000192Y-40238311D01*
X23397067Y-40238311D01*
X23406592Y-40337610D01*
X23435167Y-40437384D01*
X23483745Y-40531443D01*
X23553277Y-40613597D01*
X23717107Y-40497392D01*
X23627572Y-40377377D01*
X23600902Y-40261171D01*
X23639955Y-40150681D01*
X23751398Y-40106866D01*
X23852363Y-40142109D01*
X23955232Y-40231644D01*
X24009763Y-40287842D01*
X24066675Y-40347849D01*
X24127159Y-40407857D01*
X24192405Y-40464054D01*
X24263128Y-40513584D01*
X24340042Y-40553589D01*
X24423863Y-40580021D01*
X24515303Y-40588831D01*
X24555308Y-40589784D01*
X24602933Y-40585022D01*
X24602933Y-39815401D01*
X24408623Y-39815401D01*
X24408623Y-40322132D01*
X24345757Y-40302129D01*
X24278130Y-40253551D01*
X24213360Y-40192591D01*
X24159068Y-40135441D01*
X24063817Y-40038286D01*
X23960947Y-39952562D01*
X23851410Y-39891601D01*
X23734252Y-39868741D01*
X23586615Y-39899221D01*
X23480887Y-39981136D01*
X23418022Y-40099246D01*
X23397067Y-40238311D01*
X23000192Y-40238311D01*
X23000192Y-39657286D01*
X23423737Y-39657286D01*
X24602933Y-39657286D01*
X24602933Y-39422971D01*
X24063817Y-39422971D01*
X24171450Y-39322959D01*
X24237649Y-39271762D01*
X24308610Y-39222946D01*
X24382905Y-39177465D01*
X24459105Y-39136269D01*
X24602933Y-39076261D01*
X24602933Y-38811466D01*
X24517922Y-38842423D01*
X24430530Y-38881951D01*
X24342900Y-38928386D01*
X24257175Y-38980059D01*
X24175022Y-39036018D01*
X24098108Y-39095311D01*
X24028099Y-39155795D01*
X23966663Y-39215326D01*
X23896654Y-39157462D01*
X23823787Y-39101979D01*
X23750207Y-39049353D01*
X23678055Y-39000061D01*
X23608046Y-38955056D01*
X23540895Y-38915289D01*
X23423737Y-38851471D01*
X23423737Y-39116266D01*
X23538037Y-39173416D01*
X23665672Y-39248664D01*
X23795212Y-39335341D01*
X23913322Y-39422971D01*
X23423737Y-39422971D01*
X23423737Y-39657286D01*
X23000192Y-39657286D01*
X23000192Y-38333311D01*
X23397067Y-38333311D01*
X23406592Y-38432610D01*
X23435167Y-38532384D01*
X23483745Y-38626443D01*
X23553277Y-38708596D01*
X23717107Y-38592391D01*
X23627572Y-38472376D01*
X23600902Y-38356171D01*
X23639955Y-38245681D01*
X23751398Y-38201866D01*
X23852363Y-38237109D01*
X23955232Y-38326644D01*
X24009763Y-38382841D01*
X24066675Y-38442849D01*
X24127159Y-38502856D01*
X24192405Y-38559054D01*
X24263128Y-38608584D01*
X24340042Y-38648589D01*
X24423863Y-38675021D01*
X24515303Y-38683831D01*
X24555308Y-38684784D01*
X24602933Y-38680021D01*
X24602933Y-37910401D01*
X24408623Y-37910401D01*
X24408623Y-38417131D01*
X24345757Y-38397129D01*
X24278130Y-38348551D01*
X24213360Y-38287591D01*
X24159068Y-38230441D01*
X24063817Y-38133286D01*
X23960947Y-38047561D01*
X23851410Y-37986601D01*
X23734252Y-37963742D01*
X23586615Y-37994222D01*
X23480887Y-38076136D01*
X23418022Y-38194246D01*
X23397067Y-38333311D01*
X23000192Y-38333311D01*
X23000192Y-37513527D01*
X24999808Y-37513527D01*
X24999808Y-41010471D01*
X23000192Y-41010471D01*
G37*
%TO.C,kibuzzard-6481E268*%
G36*
X56487810Y-30835977D02*
G01*
X56487810Y-29903797D01*
X56884685Y-29903797D01*
X56894924Y-30015478D01*
X56925642Y-30118109D01*
X56976125Y-30209549D01*
X57045657Y-30287654D01*
X57133526Y-30351234D01*
X57239015Y-30399097D01*
X57361411Y-30429101D01*
X57500000Y-30439102D01*
X57639184Y-30430887D01*
X57761461Y-30406241D01*
X57866832Y-30365164D01*
X57955295Y-30307657D01*
X58044195Y-30206904D01*
X58097535Y-30079904D01*
X58115315Y-29926657D01*
X58108886Y-29822596D01*
X58089597Y-29731394D01*
X58033400Y-29597092D01*
X57848615Y-29656147D01*
X57890525Y-29752349D01*
X57911480Y-29903797D01*
X57884572Y-30039766D01*
X57803847Y-30131444D01*
X57721615Y-30170074D01*
X57618427Y-30193251D01*
X57494285Y-30200977D01*
X57387605Y-30194548D01*
X57299975Y-30175260D01*
X57175197Y-30108584D01*
X57108522Y-30015239D01*
X57088520Y-29907607D01*
X57108522Y-29765684D01*
X57157100Y-29659957D01*
X56970410Y-29598997D01*
X56947550Y-29638049D01*
X56918975Y-29701867D01*
X56895162Y-29790449D01*
X56884685Y-29903797D01*
X56487810Y-29903797D01*
X56487810Y-29463742D01*
X56911355Y-29463742D01*
X57663830Y-29463742D01*
X57761937Y-29458979D01*
X57850520Y-29444692D01*
X57928149Y-29418974D01*
X57993395Y-29379922D01*
X58083882Y-29257049D01*
X58107457Y-29170610D01*
X58115315Y-29065597D01*
X58107457Y-28958917D01*
X58083882Y-28871287D01*
X58045544Y-28800802D01*
X57993395Y-28745557D01*
X57928149Y-28705076D01*
X57850520Y-28678882D01*
X57761937Y-28664594D01*
X57663830Y-28659832D01*
X56911355Y-28659832D01*
X56911355Y-28894147D01*
X57646685Y-28894147D01*
X57771462Y-28901767D01*
X57853377Y-28928437D01*
X57898145Y-28979872D01*
X57911480Y-29061787D01*
X57898145Y-29143702D01*
X57854330Y-29194184D01*
X57773367Y-29219902D01*
X57648590Y-29227522D01*
X56911355Y-29227522D01*
X56911355Y-29463742D01*
X56487810Y-29463742D01*
X56487810Y-28537912D01*
X56911355Y-28537912D01*
X57105665Y-28537912D01*
X57105665Y-28227397D01*
X58090550Y-28227397D01*
X58090550Y-27991177D01*
X57105665Y-27991177D01*
X57105665Y-27680662D01*
X56911355Y-27680662D01*
X56911355Y-28537912D01*
X56487810Y-28537912D01*
X56487810Y-27283787D01*
X58512190Y-27283787D01*
X58512190Y-30835977D01*
X56487810Y-30835977D01*
G37*
%TO.C,kibuzzard-6481E2B4*%
G36*
X49556822Y-37513527D02*
G01*
X52143177Y-37513527D01*
X52143177Y-39486473D01*
X49556822Y-39486473D01*
X49556822Y-38156148D01*
X49953697Y-38156148D01*
X50029897Y-38350458D01*
X50146102Y-38303785D01*
X50268022Y-38236157D01*
X50268022Y-38895288D01*
X50020372Y-38895288D01*
X50020372Y-39089598D01*
X50736652Y-39089598D01*
X50900482Y-39089598D01*
X51134797Y-39089598D01*
X51134797Y-38550482D01*
X51234810Y-38658115D01*
X51286007Y-38724314D01*
X51334822Y-38795275D01*
X51380304Y-38869570D01*
X51421500Y-38945770D01*
X51481507Y-39089598D01*
X51746302Y-39089598D01*
X51715346Y-39004587D01*
X51675817Y-38917195D01*
X51629383Y-38829565D01*
X51577710Y-38743840D01*
X51521751Y-38661687D01*
X51462457Y-38584773D01*
X51401974Y-38514764D01*
X51342442Y-38453328D01*
X51400307Y-38383319D01*
X51455790Y-38310452D01*
X51508416Y-38236872D01*
X51557707Y-38164720D01*
X51602713Y-38094711D01*
X51642480Y-38027560D01*
X51706297Y-37910403D01*
X51441502Y-37910403D01*
X51384353Y-38024702D01*
X51309105Y-38152338D01*
X51222427Y-38281878D01*
X51134797Y-38399988D01*
X51134797Y-37910403D01*
X50900482Y-37910403D01*
X50900482Y-39089598D01*
X50736652Y-39089598D01*
X50736652Y-38895288D01*
X50502337Y-38895288D01*
X50502337Y-37910403D01*
X50342317Y-37910403D01*
X50260402Y-37984698D01*
X50159437Y-38053277D01*
X50052757Y-38112333D01*
X49953697Y-38156148D01*
X49556822Y-38156148D01*
X49556822Y-37513527D01*
G37*
%TO.C,kibuzzard-6482D2A7*%
G36*
X40102933Y-10599950D02*
G01*
X40102933Y-11392430D01*
X40068643Y-11397193D01*
X40034353Y-11398145D01*
X39906718Y-11364808D01*
X39828613Y-11276225D01*
X39788608Y-11148590D01*
X39777178Y-11000000D01*
X39780749Y-10915942D01*
X39791465Y-10839028D01*
X39839090Y-10712345D01*
X39926720Y-10628525D01*
X40061023Y-10598045D01*
X40081978Y-10598045D01*
X40102933Y-10599950D01*
G37*
G36*
X42690558Y-12012190D02*
G01*
X36309443Y-12012190D01*
X36309443Y-11588645D01*
X37605478Y-11588645D01*
X37851223Y-11588645D01*
X37868368Y-11489585D01*
X37889323Y-11375285D01*
X37913135Y-11251698D01*
X37938853Y-11124778D01*
X37966475Y-10997143D01*
X37996003Y-10871413D01*
X38026483Y-10753541D01*
X38056963Y-10649480D01*
X38087681Y-10754969D01*
X38118875Y-10873318D01*
X38149355Y-10999048D01*
X38177930Y-11126683D01*
X38204362Y-11253365D01*
X38228413Y-11376238D01*
X38248415Y-11489823D01*
X38262703Y-11588645D01*
X38510353Y-11588645D01*
X38488445Y-11481965D01*
X38457013Y-11348615D01*
X38431824Y-11248814D01*
X38404519Y-11144992D01*
X38375098Y-11037148D01*
X38364586Y-11000000D01*
X39539053Y-11000000D01*
X39548339Y-11148352D01*
X39576200Y-11273368D01*
X39620729Y-11376714D01*
X39680023Y-11460058D01*
X39754079Y-11523637D01*
X39842900Y-11567690D01*
X39944103Y-11593408D01*
X40055308Y-11601980D01*
X40186753Y-11596265D01*
X40236918Y-11588645D01*
X40527748Y-11588645D01*
X40739203Y-11588645D01*
X40739203Y-10862840D01*
X40772778Y-10937135D01*
X40812545Y-11022860D01*
X40857313Y-11115729D01*
X40905890Y-11211455D01*
X40957087Y-11308848D01*
X41009713Y-11406718D01*
X41063053Y-11501253D01*
X41116393Y-11588645D01*
X41304988Y-11588645D01*
X41304988Y-11529590D01*
X41461198Y-11529590D01*
X41500250Y-11552450D01*
X41565973Y-11581025D01*
X41660270Y-11604838D01*
X41783143Y-11615315D01*
X41886489Y-11605552D01*
X41983168Y-11576263D01*
X42070321Y-11527447D01*
X42145093Y-11459105D01*
X42206529Y-11371713D01*
X42253678Y-11265748D01*
X42283681Y-11141684D01*
X42293683Y-11000000D01*
X42285110Y-10856887D01*
X42259393Y-10732348D01*
X42217959Y-10626620D01*
X42162238Y-10539943D01*
X42092943Y-10472315D01*
X42010790Y-10423738D01*
X41916731Y-10394448D01*
X41811718Y-10384685D01*
X41695274Y-10389447D01*
X41597405Y-10403735D01*
X41466913Y-10438025D01*
X41466913Y-11026670D01*
X41701228Y-11026670D01*
X41701228Y-10596140D01*
X41746948Y-10590425D01*
X41792668Y-10588520D01*
X41906491Y-10613523D01*
X41988883Y-10688533D01*
X42025924Y-10767590D01*
X42048149Y-10871413D01*
X42055558Y-11000000D01*
X42051509Y-11087392D01*
X42039365Y-11166688D01*
X41986025Y-11296228D01*
X41891728Y-11381000D01*
X41750758Y-11411480D01*
X41625028Y-11390525D01*
X41522158Y-11342900D01*
X41461198Y-11529590D01*
X41304988Y-11529590D01*
X41304988Y-10409450D01*
X41093533Y-10409450D01*
X41093533Y-11192405D01*
X41022730Y-11061701D01*
X40955103Y-10931208D01*
X40890650Y-10800928D01*
X40829373Y-10670647D01*
X40771270Y-10540154D01*
X40716343Y-10409450D01*
X40527748Y-10409450D01*
X40527748Y-11588645D01*
X40236918Y-11588645D01*
X40337248Y-11573405D01*
X40337248Y-10422785D01*
X40208660Y-10400878D01*
X40085788Y-10394210D01*
X39970773Y-10402544D01*
X39865760Y-10427548D01*
X39772653Y-10470648D01*
X39693358Y-10533275D01*
X39628826Y-10616381D01*
X39580010Y-10720918D01*
X39549292Y-10848314D01*
X39539053Y-11000000D01*
X38364586Y-11000000D01*
X38343983Y-10927187D01*
X38311598Y-10817014D01*
X38277943Y-10706630D01*
X38227936Y-10549468D01*
X38180788Y-10409450D01*
X37938853Y-10409450D01*
X37902446Y-10510944D01*
X37866886Y-10614767D01*
X37832173Y-10720918D01*
X37798835Y-10827597D01*
X37767403Y-10933008D01*
X37737875Y-11037148D01*
X37697394Y-11188833D01*
X37661675Y-11333375D01*
X37630957Y-11467678D01*
X37605478Y-11588645D01*
X36309443Y-11588645D01*
X36309443Y-11005715D01*
X36706317Y-11005715D01*
X37005402Y-11005715D01*
X37005402Y-11337185D01*
X37207333Y-11337185D01*
X37207333Y-11005715D01*
X37506418Y-11005715D01*
X37506418Y-10813310D01*
X37207333Y-10813310D01*
X37207333Y-10481840D01*
X37005402Y-10481840D01*
X37005402Y-10813310D01*
X36706317Y-10813310D01*
X36706317Y-11005715D01*
X36309443Y-11005715D01*
X36309443Y-9987810D01*
X42690558Y-9987810D01*
X42690558Y-12012190D01*
G37*
G36*
X52690558Y-12012190D02*
G01*
X46309443Y-12012190D01*
X46309443Y-11588645D01*
X47605478Y-11588645D01*
X47851223Y-11588645D01*
X47868368Y-11489585D01*
X47889323Y-11375285D01*
X47913135Y-11251698D01*
X47938853Y-11124778D01*
X47966475Y-10997143D01*
X47996003Y-10871413D01*
X48026483Y-10753541D01*
X48056963Y-10649480D01*
X48087681Y-10754969D01*
X48118875Y-10873318D01*
X48149355Y-10999048D01*
X48177930Y-11126683D01*
X48204362Y-11253365D01*
X48228413Y-11376238D01*
X48248415Y-11489823D01*
X48262703Y-11588645D01*
X48510353Y-11588645D01*
X48488445Y-11481965D01*
X48457013Y-11348615D01*
X48431824Y-11248814D01*
X48404519Y-11144992D01*
X48375098Y-11037148D01*
X48364586Y-11000000D01*
X49539053Y-11000000D01*
X49548339Y-11148352D01*
X49576200Y-11273368D01*
X49620729Y-11376714D01*
X49680023Y-11460058D01*
X49754079Y-11523637D01*
X49842900Y-11567690D01*
X49944103Y-11593408D01*
X50055308Y-11601980D01*
X50186753Y-11596265D01*
X50236918Y-11588645D01*
X50527748Y-11588645D01*
X50739203Y-11588645D01*
X50739203Y-10862840D01*
X50772778Y-10937135D01*
X50812545Y-11022860D01*
X50857313Y-11115729D01*
X50905890Y-11211455D01*
X50957087Y-11308848D01*
X51009713Y-11406718D01*
X51063053Y-11501253D01*
X51116393Y-11588645D01*
X51304988Y-11588645D01*
X51304988Y-11529590D01*
X51461198Y-11529590D01*
X51500250Y-11552450D01*
X51565973Y-11581025D01*
X51660270Y-11604838D01*
X51783143Y-11615315D01*
X51886489Y-11605552D01*
X51983168Y-11576263D01*
X52070321Y-11527447D01*
X52145093Y-11459105D01*
X52206529Y-11371713D01*
X52253678Y-11265748D01*
X52283681Y-11141684D01*
X52293683Y-11000000D01*
X52285110Y-10856887D01*
X52259393Y-10732348D01*
X52217959Y-10626620D01*
X52162238Y-10539943D01*
X52092943Y-10472315D01*
X52010790Y-10423738D01*
X51916731Y-10394448D01*
X51811718Y-10384685D01*
X51695274Y-10389447D01*
X51597405Y-10403735D01*
X51466913Y-10438025D01*
X51466913Y-11026670D01*
X51701228Y-11026670D01*
X51701228Y-10596140D01*
X51746948Y-10590425D01*
X51792668Y-10588520D01*
X51906491Y-10613523D01*
X51988883Y-10688533D01*
X52025924Y-10767590D01*
X52048149Y-10871413D01*
X52055558Y-11000000D01*
X52051509Y-11087392D01*
X52039365Y-11166688D01*
X51986025Y-11296228D01*
X51891728Y-11381000D01*
X51750758Y-11411480D01*
X51625028Y-11390525D01*
X51522158Y-11342900D01*
X51461198Y-11529590D01*
X51304988Y-11529590D01*
X51304988Y-10409450D01*
X51093533Y-10409450D01*
X51093533Y-11192405D01*
X51022730Y-11061701D01*
X50955103Y-10931208D01*
X50890650Y-10800928D01*
X50829373Y-10670647D01*
X50771270Y-10540154D01*
X50716343Y-10409450D01*
X50527748Y-10409450D01*
X50527748Y-11588645D01*
X50236918Y-11588645D01*
X50337248Y-11573405D01*
X50337248Y-10422785D01*
X50208660Y-10400878D01*
X50085788Y-10394210D01*
X49970773Y-10402544D01*
X49865760Y-10427548D01*
X49772653Y-10470648D01*
X49693358Y-10533275D01*
X49628826Y-10616381D01*
X49580010Y-10720918D01*
X49549292Y-10848314D01*
X49539053Y-11000000D01*
X48364586Y-11000000D01*
X48343983Y-10927187D01*
X48311598Y-10817014D01*
X48277943Y-10706630D01*
X48227936Y-10549468D01*
X48180788Y-10409450D01*
X47938853Y-10409450D01*
X47902446Y-10510944D01*
X47866886Y-10614767D01*
X47832173Y-10720918D01*
X47798835Y-10827597D01*
X47767403Y-10933008D01*
X47737875Y-11037148D01*
X47697394Y-11188833D01*
X47661675Y-11333375D01*
X47630957Y-11467678D01*
X47605478Y-11588645D01*
X46309443Y-11588645D01*
X46309443Y-11005715D01*
X46706317Y-11005715D01*
X47005402Y-11005715D01*
X47005402Y-11337185D01*
X47207333Y-11337185D01*
X47207333Y-11005715D01*
X47506418Y-11005715D01*
X47506418Y-10813310D01*
X47207333Y-10813310D01*
X47207333Y-10481840D01*
X47005402Y-10481840D01*
X47005402Y-10813310D01*
X46706317Y-10813310D01*
X46706317Y-11005715D01*
X46309443Y-11005715D01*
X46309443Y-9987810D01*
X52690558Y-9987810D01*
X52690558Y-12012190D01*
G37*
G36*
X50102933Y-10599950D02*
G01*
X50102933Y-11392430D01*
X50068643Y-11397193D01*
X50034353Y-11398145D01*
X49906718Y-11364808D01*
X49828613Y-11276225D01*
X49788608Y-11148590D01*
X49777178Y-11000000D01*
X49780749Y-10915942D01*
X49791465Y-10839028D01*
X49839090Y-10712345D01*
X49926720Y-10628525D01*
X50061023Y-10598045D01*
X50081978Y-10598045D01*
X50102933Y-10599950D01*
G37*
%TO.C,kibuzzard-6481E2F6*%
G36*
X34000192Y-41010471D02*
G01*
X34000192Y-40238311D01*
X34397067Y-40238311D01*
X34406592Y-40337610D01*
X34435167Y-40437384D01*
X34483745Y-40531443D01*
X34553277Y-40613597D01*
X34717107Y-40497392D01*
X34627572Y-40377377D01*
X34600902Y-40261171D01*
X34639955Y-40150681D01*
X34751398Y-40106866D01*
X34852363Y-40142109D01*
X34955232Y-40231644D01*
X35009763Y-40287842D01*
X35066675Y-40347849D01*
X35127159Y-40407857D01*
X35192405Y-40464054D01*
X35263128Y-40513584D01*
X35340042Y-40553589D01*
X35423863Y-40580021D01*
X35515303Y-40588831D01*
X35555308Y-40589784D01*
X35602933Y-40585022D01*
X35602933Y-39815401D01*
X35408623Y-39815401D01*
X35408623Y-40322132D01*
X35345757Y-40302129D01*
X35278130Y-40253551D01*
X35213360Y-40192591D01*
X35159068Y-40135441D01*
X35063817Y-40038286D01*
X34960947Y-39952562D01*
X34851410Y-39891601D01*
X34734252Y-39868741D01*
X34586615Y-39899221D01*
X34480887Y-39981136D01*
X34418022Y-40099246D01*
X34397067Y-40238311D01*
X34000192Y-40238311D01*
X34000192Y-39657286D01*
X34423737Y-39657286D01*
X35602933Y-39657286D01*
X35602933Y-39422971D01*
X35063817Y-39422971D01*
X35171450Y-39322959D01*
X35237649Y-39271762D01*
X35308610Y-39222946D01*
X35382905Y-39177465D01*
X35459105Y-39136269D01*
X35602933Y-39076261D01*
X35602933Y-38811466D01*
X35517922Y-38842423D01*
X35430530Y-38881951D01*
X35342900Y-38928386D01*
X35257175Y-38980059D01*
X35175022Y-39036018D01*
X35098108Y-39095311D01*
X35028099Y-39155795D01*
X34966663Y-39215326D01*
X34896654Y-39157462D01*
X34823787Y-39101979D01*
X34750207Y-39049353D01*
X34678055Y-39000061D01*
X34608046Y-38955056D01*
X34540895Y-38915289D01*
X34423737Y-38851471D01*
X34423737Y-39116266D01*
X34538037Y-39173416D01*
X34665672Y-39248664D01*
X34795212Y-39335341D01*
X34913322Y-39422971D01*
X34423737Y-39422971D01*
X34423737Y-39657286D01*
X34000192Y-39657286D01*
X34000192Y-38333311D01*
X34397067Y-38333311D01*
X34406592Y-38432610D01*
X34435167Y-38532384D01*
X34483745Y-38626443D01*
X34553277Y-38708596D01*
X34717107Y-38592391D01*
X34627572Y-38472376D01*
X34600902Y-38356171D01*
X34639955Y-38245681D01*
X34751398Y-38201866D01*
X34852363Y-38237109D01*
X34955232Y-38326644D01*
X35009763Y-38382841D01*
X35066675Y-38442849D01*
X35127159Y-38502856D01*
X35192405Y-38559054D01*
X35263128Y-38608584D01*
X35340042Y-38648589D01*
X35423863Y-38675021D01*
X35515303Y-38683831D01*
X35555308Y-38684784D01*
X35602933Y-38680021D01*
X35602933Y-37910401D01*
X35408623Y-37910401D01*
X35408623Y-38417131D01*
X35345757Y-38397129D01*
X35278130Y-38348551D01*
X35213360Y-38287591D01*
X35159068Y-38230441D01*
X35063817Y-38133286D01*
X34960947Y-38047561D01*
X34851410Y-37986601D01*
X34734252Y-37963742D01*
X34586615Y-37994222D01*
X34480887Y-38076136D01*
X34418022Y-38194246D01*
X34397067Y-38333311D01*
X34000192Y-38333311D01*
X34000192Y-37513527D01*
X35999808Y-37513527D01*
X35999808Y-41010471D01*
X34000192Y-41010471D01*
G37*
%TO.C,kibuzzard-6481E1FA*%
G36*
X27082867Y-29829264D02*
G01*
X27160020Y-29834265D01*
X27290512Y-29860935D01*
X27379095Y-29918085D01*
X27411480Y-30014288D01*
X27379095Y-30111443D01*
X27291465Y-30167640D01*
X27160972Y-30194310D01*
X27083106Y-30199311D01*
X27000000Y-30200978D01*
X26917132Y-30199311D01*
X26839980Y-30194310D01*
X26709487Y-30167640D01*
X26620905Y-30111443D01*
X26588520Y-30014288D01*
X26620905Y-29917133D01*
X26708535Y-29860935D01*
X26839027Y-29834265D01*
X26916894Y-29829264D01*
X27000000Y-29827598D01*
X27082867Y-29829264D01*
G37*
G36*
X25987810Y-32716213D02*
G01*
X25987810Y-31898333D01*
X26384685Y-31898333D01*
X26395057Y-32015067D01*
X26426172Y-32113809D01*
X26478030Y-32194560D01*
X26589472Y-32275284D01*
X26737110Y-32302193D01*
X26877127Y-32271713D01*
X26971425Y-32194560D01*
X27034290Y-32090738D01*
X27078105Y-31980248D01*
X27111442Y-31900238D01*
X27151447Y-31827848D01*
X27201930Y-31774508D01*
X27266700Y-31753553D01*
X27322897Y-31762125D01*
X27372427Y-31793558D01*
X27406717Y-31855470D01*
X27419100Y-31953578D01*
X27412432Y-32048589D01*
X27392430Y-32127885D01*
X27335280Y-32250758D01*
X27525780Y-32319338D01*
X27583882Y-32187893D01*
X27607457Y-32085499D01*
X27615315Y-31953578D01*
X27605261Y-31819910D01*
X27575098Y-31711008D01*
X27524827Y-31626870D01*
X27415528Y-31546146D01*
X27268605Y-31519238D01*
X27179784Y-31527334D01*
X27107632Y-31551623D01*
X27000952Y-31634490D01*
X26932372Y-31744980D01*
X26885700Y-31860233D01*
X26857125Y-31933575D01*
X26821882Y-32000250D01*
X26776162Y-32048828D01*
X26716155Y-32067878D01*
X26641013Y-32047134D01*
X26595928Y-31984904D01*
X26580900Y-31881188D01*
X26599950Y-31746885D01*
X26645670Y-31641158D01*
X26464695Y-31572578D01*
X26409450Y-31708785D01*
X26390876Y-31796653D01*
X26384685Y-31898333D01*
X25987810Y-31898333D01*
X25987810Y-30576263D01*
X26411355Y-30576263D01*
X26411355Y-30810578D01*
X26876175Y-30810578D01*
X26876175Y-31122998D01*
X26411355Y-31122998D01*
X26411355Y-31357313D01*
X27590550Y-31357313D01*
X27590550Y-31122998D01*
X27070485Y-31122998D01*
X27070485Y-30810578D01*
X27590550Y-30810578D01*
X27590550Y-30576263D01*
X26411355Y-30576263D01*
X25987810Y-30576263D01*
X25987810Y-30014288D01*
X26384685Y-30014288D01*
X26401936Y-30137901D01*
X26453688Y-30242041D01*
X26539942Y-30326708D01*
X26626918Y-30375880D01*
X26732586Y-30411004D01*
X26856946Y-30432078D01*
X27000000Y-30439103D01*
X27143054Y-30432256D01*
X27267414Y-30411718D01*
X27373082Y-30377488D01*
X27460057Y-30329565D01*
X27546312Y-30245639D01*
X27598064Y-30139912D01*
X27615315Y-30012383D01*
X27598064Y-29887923D01*
X27546312Y-29783783D01*
X27460057Y-29699963D01*
X27373082Y-29651623D01*
X27267414Y-29617095D01*
X27143054Y-29596378D01*
X27000000Y-29589473D01*
X26856946Y-29596259D01*
X26732586Y-29616619D01*
X26626918Y-29650552D01*
X26539942Y-29698058D01*
X26453688Y-29781454D01*
X26401936Y-29886864D01*
X26384685Y-30014288D01*
X25987810Y-30014288D01*
X25987810Y-29130368D01*
X26398020Y-29130368D01*
X26399925Y-29197043D01*
X26404687Y-29277053D01*
X26414212Y-29359920D01*
X26428500Y-29435168D01*
X27590550Y-29435168D01*
X27590550Y-29200853D01*
X27156210Y-29200853D01*
X27156210Y-29078933D01*
X27264081Y-29014401D01*
X27370522Y-28954155D01*
X27478393Y-28899624D01*
X27590550Y-28852238D01*
X27590550Y-28606492D01*
X27465772Y-28660785D01*
X27334327Y-28726508D01*
X27208597Y-28796993D01*
X27099060Y-28865573D01*
X27045244Y-28782229D01*
X26971425Y-28726508D01*
X26882842Y-28695075D01*
X26784735Y-28684598D01*
X26692104Y-28692456D01*
X26612332Y-28716030D01*
X26491365Y-28806518D01*
X26449931Y-28871287D01*
X26420880Y-28947488D01*
X26403735Y-29034165D01*
X26398020Y-29130368D01*
X25987810Y-29130368D01*
X25987810Y-28537913D01*
X26411355Y-28537913D01*
X26605665Y-28537913D01*
X26605665Y-28227398D01*
X27590550Y-28227398D01*
X27590550Y-27991178D01*
X26605665Y-27991178D01*
X26605665Y-27680663D01*
X26411355Y-27680663D01*
X26411355Y-28537913D01*
X25987810Y-28537913D01*
X25987810Y-27283787D01*
X28012190Y-27283787D01*
X28012190Y-32716213D01*
X25987810Y-32716213D01*
G37*
G36*
X26915227Y-28976063D02*
G01*
X26950232Y-29046071D01*
X26961900Y-29149418D01*
X26961900Y-29200853D01*
X26607570Y-29200853D01*
X26602807Y-29162753D01*
X26601855Y-29130368D01*
X26612809Y-29046071D01*
X26645670Y-28979873D01*
X26701867Y-28937010D01*
X26782830Y-28922723D01*
X26915227Y-28976063D01*
G37*
%TO.C,kibuzzard-6481E268*%
G36*
X36487810Y-30835977D02*
G01*
X36487810Y-29903797D01*
X36884685Y-29903797D01*
X36894924Y-30015478D01*
X36925642Y-30118109D01*
X36976125Y-30209549D01*
X37045657Y-30287654D01*
X37133526Y-30351234D01*
X37239015Y-30399097D01*
X37361411Y-30429101D01*
X37500000Y-30439102D01*
X37639184Y-30430887D01*
X37761461Y-30406241D01*
X37866832Y-30365164D01*
X37955295Y-30307657D01*
X38044195Y-30206904D01*
X38097535Y-30079904D01*
X38115315Y-29926657D01*
X38108886Y-29822596D01*
X38089597Y-29731394D01*
X38033400Y-29597092D01*
X37848615Y-29656147D01*
X37890525Y-29752349D01*
X37911480Y-29903797D01*
X37884572Y-30039766D01*
X37803847Y-30131444D01*
X37721615Y-30170074D01*
X37618427Y-30193251D01*
X37494285Y-30200977D01*
X37387605Y-30194548D01*
X37299975Y-30175260D01*
X37175197Y-30108584D01*
X37108522Y-30015239D01*
X37088520Y-29907607D01*
X37108522Y-29765684D01*
X37157100Y-29659957D01*
X36970410Y-29598997D01*
X36947550Y-29638049D01*
X36918975Y-29701867D01*
X36895162Y-29790449D01*
X36884685Y-29903797D01*
X36487810Y-29903797D01*
X36487810Y-29463742D01*
X36911355Y-29463742D01*
X37663830Y-29463742D01*
X37761937Y-29458979D01*
X37850520Y-29444692D01*
X37928149Y-29418974D01*
X37993395Y-29379922D01*
X38083882Y-29257049D01*
X38107457Y-29170610D01*
X38115315Y-29065597D01*
X38107457Y-28958917D01*
X38083882Y-28871287D01*
X38045544Y-28800802D01*
X37993395Y-28745557D01*
X37928149Y-28705076D01*
X37850520Y-28678882D01*
X37761937Y-28664594D01*
X37663830Y-28659832D01*
X36911355Y-28659832D01*
X36911355Y-28894147D01*
X37646685Y-28894147D01*
X37771462Y-28901767D01*
X37853377Y-28928437D01*
X37898145Y-28979872D01*
X37911480Y-29061787D01*
X37898145Y-29143702D01*
X37854330Y-29194184D01*
X37773367Y-29219902D01*
X37648590Y-29227522D01*
X36911355Y-29227522D01*
X36911355Y-29463742D01*
X36487810Y-29463742D01*
X36487810Y-28537912D01*
X36911355Y-28537912D01*
X37105665Y-28537912D01*
X37105665Y-28227397D01*
X38090550Y-28227397D01*
X38090550Y-27991177D01*
X37105665Y-27991177D01*
X37105665Y-27680662D01*
X36911355Y-27680662D01*
X36911355Y-28537912D01*
X36487810Y-28537912D01*
X36487810Y-27283787D01*
X38512190Y-27283787D01*
X38512190Y-30835977D01*
X36487810Y-30835977D01*
G37*
%TO.C,kibuzzard-6481E4F7*%
G36*
X19332351Y-36921380D02*
G01*
X19408129Y-36931937D01*
X19532939Y-36978858D01*
X19615521Y-37065193D01*
X19645550Y-37197511D01*
X19645550Y-37218156D01*
X19643673Y-37238802D01*
X18862905Y-37238802D01*
X18858213Y-37205019D01*
X18857274Y-37171235D01*
X18890119Y-37045487D01*
X18977392Y-36968536D01*
X19103141Y-36929122D01*
X19249535Y-36917861D01*
X19332351Y-36921380D01*
G37*
G36*
X19407191Y-39739701D02*
G01*
X19535755Y-39765977D01*
X19623028Y-39822282D01*
X19654934Y-39917063D01*
X19623028Y-40012782D01*
X19536693Y-40068149D01*
X19408129Y-40094425D01*
X19331413Y-40099352D01*
X19249535Y-40100994D01*
X19091880Y-40094425D01*
X18963316Y-40068149D01*
X18876043Y-40012782D01*
X18844136Y-39917063D01*
X18876043Y-39821344D01*
X18962378Y-39765977D01*
X19090942Y-39739701D01*
X19167658Y-39734774D01*
X19249535Y-39733132D01*
X19407191Y-39739701D01*
G37*
G36*
X16943616Y-46267719D02*
G01*
X17020530Y-46278435D01*
X17147213Y-46326060D01*
X17231033Y-46413690D01*
X17261513Y-46547993D01*
X17261513Y-46568948D01*
X17259608Y-46589903D01*
X16467128Y-46589903D01*
X16462365Y-46555613D01*
X16461413Y-46521323D01*
X16494750Y-46393688D01*
X16583333Y-46315583D01*
X16710968Y-46275578D01*
X16859558Y-46264148D01*
X16943616Y-46267719D01*
G37*
G36*
X19092819Y-40769152D02*
G01*
X19131294Y-40902408D01*
X19131294Y-40992496D01*
X18864782Y-40992496D01*
X18859151Y-40941822D01*
X18857274Y-40887393D01*
X18861966Y-40825457D01*
X18880735Y-40772905D01*
X18920149Y-40737245D01*
X18986777Y-40724107D01*
X19092819Y-40769152D01*
G37*
G36*
X19563907Y-40690324D02*
G01*
X19614582Y-40738184D01*
X19638981Y-40804812D01*
X19645550Y-40881762D01*
X19643673Y-40939006D01*
X19638043Y-40992496D01*
X19322732Y-40992496D01*
X19322732Y-40868624D01*
X19359331Y-40725046D01*
X19480388Y-40671555D01*
X19563907Y-40690324D01*
G37*
G36*
X19371530Y-39095004D02*
G01*
X19251412Y-39071543D01*
X19135986Y-39045267D01*
X19019622Y-39015238D01*
X18894811Y-38980516D01*
X19019622Y-38945794D01*
X19135986Y-38915765D01*
X19251412Y-38890427D01*
X19371530Y-38867905D01*
X19371530Y-39095004D01*
G37*
G36*
X19166016Y-37955757D02*
G01*
X19200503Y-38024732D01*
X19211998Y-38126551D01*
X19211998Y-38177225D01*
X18862905Y-38177225D01*
X18858213Y-38139689D01*
X18857274Y-38107782D01*
X18868066Y-38024732D01*
X18900442Y-37959511D01*
X18955809Y-37917282D01*
X19035575Y-37903206D01*
X19166016Y-37955757D01*
G37*
G36*
X16942425Y-44360814D02*
G01*
X17019578Y-44365815D01*
X17150070Y-44392485D01*
X17238653Y-44449635D01*
X17271038Y-44545838D01*
X17238653Y-44642993D01*
X17151023Y-44699190D01*
X17020530Y-44725860D01*
X16942664Y-44730861D01*
X16859558Y-44732528D01*
X16776690Y-44730861D01*
X16699538Y-44725860D01*
X16569045Y-44699190D01*
X16480463Y-44642993D01*
X16448078Y-44545838D01*
X16480463Y-44448683D01*
X16568093Y-44392485D01*
X16698585Y-44365815D01*
X16776452Y-44360814D01*
X16859558Y-44359148D01*
X16942425Y-44360814D01*
G37*
G36*
X15847368Y-49182041D02*
G01*
X15847368Y-48785166D01*
X18669590Y-48785166D01*
X18861028Y-48785166D01*
X18861028Y-48479240D01*
X19831358Y-48479240D01*
X19831358Y-48246511D01*
X18861028Y-48246511D01*
X18861028Y-47940585D01*
X18669590Y-48712073D01*
X18669590Y-48785166D01*
X15847368Y-48785166D01*
X15847368Y-48712073D01*
X16270913Y-48712073D01*
X17450108Y-48712073D01*
X17450108Y-47955788D01*
X17255798Y-47955788D01*
X17255798Y-48477758D01*
X16924328Y-48477758D01*
X16924328Y-48060563D01*
X16730018Y-48060563D01*
X16730018Y-48477758D01*
X16465223Y-48477758D01*
X16465223Y-47997698D01*
X16270913Y-47997698D01*
X16270913Y-48712073D01*
X15847368Y-48712073D01*
X15847368Y-47791958D01*
X16270913Y-47791958D01*
X17450108Y-47791958D01*
X17450108Y-47775422D01*
X18669590Y-47775422D01*
X19831358Y-47775422D01*
X19831358Y-47030314D01*
X19639920Y-47030314D01*
X19639920Y-47544570D01*
X19313348Y-47544570D01*
X19313348Y-47133541D01*
X19121910Y-47133541D01*
X19121910Y-47544570D01*
X18861028Y-47544570D01*
X18861028Y-47071605D01*
X18669590Y-47071605D01*
X18669590Y-47775422D01*
X17450108Y-47775422D01*
X17450108Y-47580503D01*
X16667153Y-47580503D01*
X16797857Y-47509700D01*
X16928350Y-47442073D01*
X17058630Y-47377620D01*
X17188911Y-47316343D01*
X17319404Y-47258240D01*
X17450108Y-47203313D01*
X17450108Y-47014718D01*
X16270913Y-47014718D01*
X16270913Y-47226173D01*
X16996718Y-47226173D01*
X16922423Y-47259748D01*
X16836698Y-47299515D01*
X16743829Y-47344283D01*
X16648103Y-47392860D01*
X16550710Y-47444057D01*
X16452840Y-47496683D01*
X16358305Y-47550023D01*
X16270913Y-47603363D01*
X16270913Y-47791958D01*
X15847368Y-47791958D01*
X15847368Y-46542278D01*
X16257578Y-46542278D01*
X16263293Y-46673723D01*
X16286153Y-46824218D01*
X17436773Y-46824218D01*
X17458680Y-46695630D01*
X17465348Y-46572758D01*
X17457568Y-46465383D01*
X18643314Y-46465383D01*
X18652854Y-46572758D01*
X18653532Y-46580392D01*
X18684187Y-46677675D01*
X18735279Y-46757233D01*
X18845075Y-46836764D01*
X18990530Y-46863275D01*
X19128479Y-46833245D01*
X19221383Y-46757233D01*
X19283319Y-46654945D01*
X19326486Y-46546088D01*
X19359331Y-46467260D01*
X19398745Y-46395940D01*
X19448481Y-46343388D01*
X19512294Y-46322743D01*
X19567661Y-46331189D01*
X19616459Y-46362156D01*
X19650242Y-46423154D01*
X19662442Y-46519812D01*
X19655873Y-46613419D01*
X19636166Y-46691543D01*
X19579860Y-46812600D01*
X19767545Y-46880166D01*
X19824789Y-46750664D01*
X19848015Y-46649783D01*
X19855757Y-46519812D01*
X19845851Y-46388120D01*
X19816135Y-46280826D01*
X19766607Y-46197932D01*
X19658923Y-46118401D01*
X19514171Y-46091890D01*
X19426663Y-46099867D01*
X19355577Y-46123797D01*
X19250474Y-46205440D01*
X19182907Y-46314297D01*
X19136924Y-46427846D01*
X19108772Y-46500105D01*
X19074050Y-46565794D01*
X19029006Y-46613654D01*
X18969885Y-46632422D01*
X18869943Y-46586440D01*
X18836629Y-46448491D01*
X18855397Y-46316174D01*
X18900442Y-46212009D01*
X18722141Y-46144442D01*
X18667713Y-46278637D01*
X18649413Y-46365206D01*
X18643314Y-46465383D01*
X17457568Y-46465383D01*
X17457014Y-46457743D01*
X17432010Y-46352730D01*
X17388910Y-46259623D01*
X17326283Y-46180328D01*
X17243177Y-46115796D01*
X17138640Y-46066980D01*
X17011244Y-46036262D01*
X16859558Y-46026023D01*
X16711206Y-46035309D01*
X16586190Y-46063170D01*
X16482844Y-46107699D01*
X16399500Y-46166993D01*
X16335921Y-46241049D01*
X16291868Y-46329870D01*
X16266150Y-46431073D01*
X16257578Y-46542278D01*
X15847368Y-46542278D01*
X15847368Y-45969895D01*
X18669590Y-45969895D01*
X18861028Y-45969895D01*
X18861028Y-45663969D01*
X19831358Y-45663969D01*
X19831358Y-45431240D01*
X18861028Y-45431240D01*
X18861028Y-45125314D01*
X18669590Y-45125314D01*
X18669590Y-45969895D01*
X15847368Y-45969895D01*
X15847368Y-44977043D01*
X18669590Y-44977043D01*
X18861028Y-44977043D01*
X18861028Y-44723669D01*
X19639920Y-44723669D01*
X19639920Y-44977043D01*
X19831358Y-44977043D01*
X19831358Y-44239442D01*
X19639920Y-44239442D01*
X19639920Y-44490940D01*
X18861028Y-44490940D01*
X18861028Y-44239442D01*
X18669590Y-44239442D01*
X18669590Y-44977043D01*
X15847368Y-44977043D01*
X15847368Y-44545838D01*
X16244243Y-44545838D01*
X16261494Y-44669451D01*
X16313246Y-44773591D01*
X16399500Y-44858258D01*
X16486476Y-44907430D01*
X16592144Y-44942554D01*
X16716504Y-44963628D01*
X16859558Y-44970653D01*
X17002612Y-44963806D01*
X17126972Y-44943268D01*
X17232640Y-44909038D01*
X17319615Y-44861115D01*
X17405870Y-44777189D01*
X17457622Y-44671462D01*
X17474873Y-44543933D01*
X17457622Y-44419473D01*
X17405870Y-44315333D01*
X17319615Y-44231513D01*
X17232640Y-44183173D01*
X17126972Y-44148645D01*
X17002612Y-44127928D01*
X16859558Y-44121023D01*
X16716504Y-44127809D01*
X16592144Y-44148169D01*
X16486476Y-44182102D01*
X16399500Y-44229608D01*
X16313246Y-44313004D01*
X16261494Y-44418414D01*
X16244243Y-44545838D01*
X15847368Y-44545838D01*
X15847368Y-44053634D01*
X18669590Y-44053634D01*
X19831358Y-44053634D01*
X19831358Y-43845304D01*
X19059974Y-43845304D01*
X19188746Y-43775548D01*
X19317310Y-43708920D01*
X19445666Y-43645420D01*
X19574021Y-43585048D01*
X19702585Y-43527804D01*
X19831358Y-43473689D01*
X19831358Y-43287881D01*
X18669590Y-43287881D01*
X18669590Y-43496211D01*
X19384668Y-43496211D01*
X19311471Y-43529290D01*
X19227013Y-43568469D01*
X19135517Y-43612575D01*
X19041205Y-43660435D01*
X18945251Y-43710875D01*
X18848828Y-43762723D01*
X18755690Y-43815275D01*
X18669590Y-43867826D01*
X18669590Y-44053634D01*
X15847368Y-44053634D01*
X15847368Y-43949573D01*
X16270913Y-43949573D01*
X17450108Y-43949573D01*
X17450108Y-43715258D01*
X16945283Y-43715258D01*
X16945283Y-43288538D01*
X16750973Y-43288538D01*
X16750973Y-43715258D01*
X16465223Y-43715258D01*
X16465223Y-43227578D01*
X16270913Y-43227578D01*
X16270913Y-43949573D01*
X15847368Y-43949573D01*
X15847368Y-42647876D01*
X18643314Y-42647876D01*
X18652933Y-42749695D01*
X18681789Y-42844945D01*
X18729883Y-42930810D01*
X18797215Y-43004477D01*
X18883316Y-43065005D01*
X18987715Y-43111457D01*
X19109945Y-43141017D01*
X19249535Y-43150871D01*
X19390533Y-43142425D01*
X19513232Y-43117088D01*
X19617397Y-43076266D01*
X19702794Y-43021368D01*
X19769422Y-42953098D01*
X19817282Y-42872159D01*
X19846138Y-42779490D01*
X19855757Y-42676028D01*
X19851065Y-42561306D01*
X19836989Y-42464883D01*
X19803205Y-42336319D01*
X19223259Y-42336319D01*
X19223259Y-42567171D01*
X19647427Y-42567171D01*
X19653058Y-42612216D01*
X19654934Y-42657260D01*
X19630301Y-42769402D01*
X19556400Y-42850575D01*
X19478511Y-42887069D01*
X19376223Y-42908966D01*
X19249535Y-42916265D01*
X19163435Y-42912277D01*
X19085311Y-42900312D01*
X18957686Y-42847760D01*
X18874166Y-42754856D01*
X18844136Y-42615969D01*
X18864782Y-42492097D01*
X18911703Y-42390748D01*
X18727772Y-42330689D01*
X18705250Y-42369164D01*
X18677097Y-42433915D01*
X18653636Y-42526819D01*
X18643314Y-42647876D01*
X15847368Y-42647876D01*
X15847368Y-42029333D01*
X16270913Y-42029333D01*
X17450108Y-42029333D01*
X17450108Y-41288288D01*
X17255798Y-41288288D01*
X17255798Y-41793113D01*
X16270913Y-41793113D01*
X16270913Y-42029333D01*
X15847368Y-42029333D01*
X15847368Y-41109218D01*
X16270913Y-41109218D01*
X16465223Y-41109218D01*
X16465223Y-40852043D01*
X17255798Y-40852043D01*
X17255798Y-41109218D01*
X17450108Y-41109218D01*
X17450108Y-40923053D01*
X18656452Y-40923053D01*
X18664897Y-41078831D01*
X18669041Y-41109218D01*
X18684604Y-41223349D01*
X19812590Y-41223349D01*
X19827370Y-41142175D01*
X19837927Y-41060063D01*
X19844261Y-40978889D01*
X19846373Y-40900531D01*
X19841915Y-40807862D01*
X19828543Y-40721292D01*
X19804613Y-40643403D01*
X19768484Y-40576775D01*
X19655873Y-40480117D01*
X19576811Y-40453372D01*
X19480388Y-40444457D01*
X19401560Y-40455014D01*
X19326486Y-40486686D01*
X19260796Y-40547918D01*
X19210122Y-40647156D01*
X19108772Y-40539238D01*
X18962378Y-40498886D01*
X18853521Y-40515777D01*
X18754986Y-40579590D01*
X18683666Y-40709092D01*
X18663255Y-40803873D01*
X18656452Y-40923053D01*
X17450108Y-40923053D01*
X17450108Y-40360553D01*
X17255798Y-40360553D01*
X17255798Y-40615823D01*
X16465223Y-40615823D01*
X16465223Y-40360553D01*
X16270913Y-40360553D01*
X16270913Y-41109218D01*
X15847368Y-41109218D01*
X15847368Y-40171958D01*
X16270913Y-40171958D01*
X17450108Y-40171958D01*
X17450108Y-39960503D01*
X16667153Y-39960503D01*
X16747344Y-39917063D01*
X18643314Y-39917063D01*
X18660310Y-40038849D01*
X18711297Y-40141450D01*
X18796277Y-40224866D01*
X18881967Y-40273312D01*
X18986073Y-40307916D01*
X19108596Y-40328679D01*
X19249535Y-40335600D01*
X19390475Y-40328855D01*
X19512998Y-40308620D01*
X19617104Y-40274896D01*
X19702794Y-40227681D01*
X19787773Y-40144996D01*
X19838761Y-40040831D01*
X19855757Y-39915186D01*
X19838761Y-39792565D01*
X19787773Y-39689964D01*
X19702794Y-39607383D01*
X19617104Y-39559758D01*
X19512998Y-39525740D01*
X19390475Y-39505330D01*
X19249535Y-39498526D01*
X19108596Y-39505212D01*
X18986073Y-39525271D01*
X18881967Y-39558702D01*
X18836910Y-39583313D01*
X18796277Y-39605506D01*
X18711297Y-39687670D01*
X18660310Y-39791523D01*
X18643314Y-39917063D01*
X16747344Y-39917063D01*
X16797857Y-39889700D01*
X16928350Y-39822073D01*
X17058630Y-39757620D01*
X17188911Y-39696343D01*
X17319404Y-39638240D01*
X17450108Y-39583313D01*
X17450108Y-39394718D01*
X16270913Y-39394718D01*
X16270913Y-39606173D01*
X16996718Y-39606173D01*
X16922423Y-39639748D01*
X16836698Y-39679515D01*
X16743829Y-39724283D01*
X16648103Y-39772860D01*
X16550710Y-39824057D01*
X16452840Y-39876683D01*
X16358305Y-39930023D01*
X16270913Y-39983363D01*
X16270913Y-40171958D01*
X15847368Y-40171958D01*
X15847368Y-39187073D01*
X16270913Y-39187073D01*
X17450108Y-39187073D01*
X17450108Y-39100634D01*
X18669590Y-39100634D01*
X18798095Y-39140400D01*
X18930237Y-39180870D01*
X18950692Y-39187073D01*
X19066015Y-39222043D01*
X19205429Y-39263920D01*
X19320856Y-39297628D01*
X19441161Y-39331186D01*
X19566347Y-39364594D01*
X19696413Y-39397852D01*
X19831358Y-39430959D01*
X19831358Y-39190723D01*
X19562969Y-39138171D01*
X19562969Y-38828491D01*
X19831358Y-38774063D01*
X19831358Y-38526319D01*
X19699641Y-38557287D01*
X19571752Y-38588630D01*
X19447693Y-38620349D01*
X19327462Y-38652443D01*
X19211060Y-38684913D01*
X19069886Y-38725793D01*
X18932583Y-38766790D01*
X18799151Y-38807905D01*
X18669590Y-38849137D01*
X18669590Y-39100634D01*
X17450108Y-39100634D01*
X17450108Y-38430788D01*
X17255798Y-38430788D01*
X17255798Y-38952758D01*
X16924328Y-38952758D01*
X16924328Y-38535563D01*
X16730018Y-38535563D01*
X16730018Y-38952758D01*
X16465223Y-38952758D01*
X16465223Y-38472698D01*
X16270913Y-38472698D01*
X16270913Y-39187073D01*
X15847368Y-39187073D01*
X15847368Y-38107782D01*
X18656452Y-38107782D01*
X18658328Y-38173472D01*
X18663021Y-38252299D01*
X18672405Y-38333942D01*
X18686481Y-38408078D01*
X19831358Y-38408078D01*
X19831358Y-38177225D01*
X19403437Y-38177225D01*
X19403437Y-38057107D01*
X19509713Y-37993529D01*
X19614582Y-37934174D01*
X19720859Y-37880449D01*
X19831358Y-37833762D01*
X19831358Y-37591649D01*
X19708424Y-37645139D01*
X19578922Y-37709890D01*
X19455050Y-37779334D01*
X19347131Y-37846900D01*
X19294110Y-37764788D01*
X19221383Y-37709890D01*
X19134109Y-37678922D01*
X19037452Y-37668600D01*
X18946190Y-37676342D01*
X18867597Y-37699568D01*
X18748417Y-37788718D01*
X18678974Y-37927605D01*
X18662082Y-38013001D01*
X18656452Y-38107782D01*
X15847368Y-38107782D01*
X15847368Y-37191881D01*
X18656452Y-37191881D01*
X18662082Y-37321383D01*
X18684604Y-37469654D01*
X19818220Y-37469654D01*
X19839804Y-37342967D01*
X19846373Y-37221910D01*
X19838162Y-37108596D01*
X19813528Y-37005134D01*
X19771064Y-36913403D01*
X19709363Y-36835280D01*
X19627485Y-36771701D01*
X19524493Y-36723607D01*
X19398979Y-36693343D01*
X19249535Y-36683255D01*
X19103376Y-36692405D01*
X18980208Y-36719854D01*
X18878389Y-36763725D01*
X18796277Y-36822142D01*
X18733637Y-36895104D01*
X18690235Y-36982612D01*
X18664897Y-37082320D01*
X18656452Y-37191881D01*
X15847368Y-37191881D01*
X15847368Y-36286380D01*
X18050000Y-34817959D01*
X20252632Y-36286380D01*
X20252632Y-49182041D01*
X15847368Y-49182041D01*
G37*
%TO.C,kibuzzard-6481E2F6*%
G36*
X45000192Y-41010471D02*
G01*
X45000192Y-40238311D01*
X45397067Y-40238311D01*
X45406592Y-40337610D01*
X45435167Y-40437384D01*
X45483745Y-40531443D01*
X45553277Y-40613597D01*
X45717107Y-40497392D01*
X45627572Y-40377377D01*
X45600902Y-40261171D01*
X45639955Y-40150681D01*
X45751398Y-40106866D01*
X45852363Y-40142109D01*
X45955232Y-40231644D01*
X46009763Y-40287842D01*
X46066675Y-40347849D01*
X46127159Y-40407857D01*
X46192405Y-40464054D01*
X46263128Y-40513584D01*
X46340042Y-40553589D01*
X46423863Y-40580021D01*
X46515303Y-40588831D01*
X46555308Y-40589784D01*
X46602933Y-40585022D01*
X46602933Y-39815401D01*
X46408623Y-39815401D01*
X46408623Y-40322132D01*
X46345757Y-40302129D01*
X46278130Y-40253551D01*
X46213360Y-40192591D01*
X46159068Y-40135441D01*
X46063817Y-40038286D01*
X45960947Y-39952562D01*
X45851410Y-39891601D01*
X45734252Y-39868741D01*
X45586615Y-39899221D01*
X45480887Y-39981136D01*
X45418022Y-40099246D01*
X45397067Y-40238311D01*
X45000192Y-40238311D01*
X45000192Y-39657286D01*
X45423737Y-39657286D01*
X46602933Y-39657286D01*
X46602933Y-39422971D01*
X46063817Y-39422971D01*
X46171450Y-39322959D01*
X46237649Y-39271762D01*
X46308610Y-39222946D01*
X46382905Y-39177465D01*
X46459105Y-39136269D01*
X46602933Y-39076261D01*
X46602933Y-38811466D01*
X46517922Y-38842423D01*
X46430530Y-38881951D01*
X46342900Y-38928386D01*
X46257175Y-38980059D01*
X46175022Y-39036018D01*
X46098108Y-39095311D01*
X46028099Y-39155795D01*
X45966663Y-39215326D01*
X45896654Y-39157462D01*
X45823787Y-39101979D01*
X45750207Y-39049353D01*
X45678055Y-39000061D01*
X45608046Y-38955056D01*
X45540895Y-38915289D01*
X45423737Y-38851471D01*
X45423737Y-39116266D01*
X45538037Y-39173416D01*
X45665672Y-39248664D01*
X45795212Y-39335341D01*
X45913322Y-39422971D01*
X45423737Y-39422971D01*
X45423737Y-39657286D01*
X45000192Y-39657286D01*
X45000192Y-38333311D01*
X45397067Y-38333311D01*
X45406592Y-38432610D01*
X45435167Y-38532384D01*
X45483745Y-38626443D01*
X45553277Y-38708596D01*
X45717107Y-38592391D01*
X45627572Y-38472376D01*
X45600902Y-38356171D01*
X45639955Y-38245681D01*
X45751398Y-38201866D01*
X45852363Y-38237109D01*
X45955232Y-38326644D01*
X46009763Y-38382841D01*
X46066675Y-38442849D01*
X46127159Y-38502856D01*
X46192405Y-38559054D01*
X46263128Y-38608584D01*
X46340042Y-38648589D01*
X46423863Y-38675021D01*
X46515303Y-38683831D01*
X46555308Y-38684784D01*
X46602933Y-38680021D01*
X46602933Y-37910401D01*
X46408623Y-37910401D01*
X46408623Y-38417131D01*
X46345757Y-38397129D01*
X46278130Y-38348551D01*
X46213360Y-38287591D01*
X46159068Y-38230441D01*
X46063817Y-38133286D01*
X45960947Y-38047561D01*
X45851410Y-37986601D01*
X45734252Y-37963742D01*
X45586615Y-37994222D01*
X45480887Y-38076136D01*
X45418022Y-38194246D01*
X45397067Y-38333311D01*
X45000192Y-38333311D01*
X45000192Y-37513527D01*
X46999808Y-37513527D01*
X46999808Y-41010471D01*
X45000192Y-41010471D01*
G37*
%TO.C,kibuzzard-6481E1FA*%
G36*
X48915227Y-28976063D02*
G01*
X48950232Y-29046071D01*
X48961900Y-29149418D01*
X48961900Y-29200853D01*
X48607570Y-29200853D01*
X48602807Y-29162753D01*
X48601855Y-29130368D01*
X48612809Y-29046071D01*
X48645670Y-28979873D01*
X48701867Y-28937010D01*
X48782830Y-28922723D01*
X48915227Y-28976063D01*
G37*
G36*
X47987810Y-32716213D02*
G01*
X47987810Y-31898333D01*
X48384685Y-31898333D01*
X48395057Y-32015067D01*
X48426172Y-32113809D01*
X48478030Y-32194560D01*
X48589472Y-32275284D01*
X48737110Y-32302193D01*
X48877127Y-32271713D01*
X48971425Y-32194560D01*
X49034290Y-32090738D01*
X49078105Y-31980248D01*
X49111442Y-31900238D01*
X49151447Y-31827848D01*
X49201930Y-31774508D01*
X49266700Y-31753553D01*
X49322897Y-31762125D01*
X49372427Y-31793558D01*
X49406717Y-31855470D01*
X49419100Y-31953578D01*
X49412432Y-32048589D01*
X49392430Y-32127885D01*
X49335280Y-32250758D01*
X49525780Y-32319338D01*
X49583882Y-32187893D01*
X49607457Y-32085499D01*
X49615315Y-31953578D01*
X49605261Y-31819910D01*
X49575098Y-31711008D01*
X49524827Y-31626870D01*
X49415528Y-31546146D01*
X49268605Y-31519238D01*
X49179784Y-31527334D01*
X49107632Y-31551623D01*
X49000952Y-31634490D01*
X48932372Y-31744980D01*
X48885700Y-31860233D01*
X48857125Y-31933575D01*
X48821882Y-32000250D01*
X48776162Y-32048828D01*
X48716155Y-32067878D01*
X48641013Y-32047134D01*
X48595928Y-31984904D01*
X48580900Y-31881188D01*
X48599950Y-31746885D01*
X48645670Y-31641158D01*
X48464695Y-31572578D01*
X48409450Y-31708785D01*
X48390876Y-31796653D01*
X48384685Y-31898333D01*
X47987810Y-31898333D01*
X47987810Y-30576263D01*
X48411355Y-30576263D01*
X48411355Y-30810578D01*
X48876175Y-30810578D01*
X48876175Y-31122998D01*
X48411355Y-31122998D01*
X48411355Y-31357313D01*
X49590550Y-31357313D01*
X49590550Y-31122998D01*
X49070485Y-31122998D01*
X49070485Y-30810578D01*
X49590550Y-30810578D01*
X49590550Y-30576263D01*
X48411355Y-30576263D01*
X47987810Y-30576263D01*
X47987810Y-30014288D01*
X48384685Y-30014288D01*
X48401936Y-30137901D01*
X48453688Y-30242041D01*
X48539942Y-30326708D01*
X48626918Y-30375880D01*
X48732586Y-30411004D01*
X48856946Y-30432078D01*
X49000000Y-30439103D01*
X49143054Y-30432256D01*
X49267414Y-30411718D01*
X49373082Y-30377488D01*
X49460057Y-30329565D01*
X49546312Y-30245639D01*
X49598064Y-30139912D01*
X49615315Y-30012383D01*
X49598064Y-29887923D01*
X49546312Y-29783783D01*
X49460057Y-29699963D01*
X49373082Y-29651623D01*
X49267414Y-29617095D01*
X49143054Y-29596378D01*
X49000000Y-29589473D01*
X48856946Y-29596259D01*
X48732586Y-29616619D01*
X48626918Y-29650552D01*
X48539942Y-29698058D01*
X48453688Y-29781454D01*
X48401936Y-29886864D01*
X48384685Y-30014288D01*
X47987810Y-30014288D01*
X47987810Y-29130368D01*
X48398020Y-29130368D01*
X48399925Y-29197043D01*
X48404687Y-29277053D01*
X48414212Y-29359920D01*
X48428500Y-29435168D01*
X49590550Y-29435168D01*
X49590550Y-29200853D01*
X49156210Y-29200853D01*
X49156210Y-29078933D01*
X49264081Y-29014401D01*
X49370522Y-28954155D01*
X49478393Y-28899624D01*
X49590550Y-28852238D01*
X49590550Y-28606492D01*
X49465772Y-28660785D01*
X49334327Y-28726508D01*
X49208597Y-28796993D01*
X49099060Y-28865573D01*
X49045244Y-28782229D01*
X48971425Y-28726508D01*
X48882842Y-28695075D01*
X48784735Y-28684598D01*
X48692104Y-28692456D01*
X48612332Y-28716030D01*
X48491365Y-28806518D01*
X48449931Y-28871287D01*
X48420880Y-28947488D01*
X48403735Y-29034165D01*
X48398020Y-29130368D01*
X47987810Y-29130368D01*
X47987810Y-28537913D01*
X48411355Y-28537913D01*
X48605665Y-28537913D01*
X48605665Y-28227398D01*
X49590550Y-28227398D01*
X49590550Y-27991178D01*
X48605665Y-27991178D01*
X48605665Y-27680663D01*
X48411355Y-27680663D01*
X48411355Y-28537913D01*
X47987810Y-28537913D01*
X47987810Y-27283787D01*
X50012190Y-27283787D01*
X50012190Y-32716213D01*
X47987810Y-32716213D01*
G37*
G36*
X49082867Y-29829264D02*
G01*
X49160020Y-29834265D01*
X49290512Y-29860935D01*
X49379095Y-29918085D01*
X49411480Y-30014288D01*
X49379095Y-30111443D01*
X49291465Y-30167640D01*
X49160972Y-30194310D01*
X49083106Y-30199311D01*
X49000000Y-30200978D01*
X48917132Y-30199311D01*
X48839980Y-30194310D01*
X48709487Y-30167640D01*
X48620905Y-30111443D01*
X48588520Y-30014288D01*
X48620905Y-29917133D01*
X48708535Y-29860935D01*
X48839027Y-29834265D01*
X48916894Y-29829264D01*
X49000000Y-29827598D01*
X49082867Y-29829264D01*
G37*
%TO.C,kibuzzard-6481E412*%
G36*
X56150000Y-46226911D02*
G01*
X55137810Y-46901704D01*
X55137810Y-45294731D01*
X55534685Y-45294731D01*
X55544924Y-45406411D01*
X55575642Y-45509043D01*
X55626125Y-45600483D01*
X55695657Y-45678588D01*
X55783526Y-45742168D01*
X55889015Y-45790031D01*
X56011411Y-45820035D01*
X56150000Y-45830036D01*
X56289184Y-45821821D01*
X56411461Y-45797175D01*
X56516832Y-45756098D01*
X56605295Y-45698591D01*
X56694195Y-45597838D01*
X56747535Y-45470838D01*
X56765315Y-45317591D01*
X56758886Y-45213530D01*
X56739597Y-45122328D01*
X56683400Y-44988026D01*
X56498615Y-45047081D01*
X56540525Y-45143283D01*
X56561480Y-45294731D01*
X56534572Y-45430700D01*
X56453847Y-45522378D01*
X56371615Y-45561008D01*
X56268427Y-45584185D01*
X56144285Y-45591911D01*
X56037605Y-45585481D01*
X55949975Y-45566193D01*
X55825197Y-45499518D01*
X55758522Y-45406173D01*
X55738520Y-45298541D01*
X55758522Y-45156618D01*
X55807100Y-45050891D01*
X55620410Y-44989931D01*
X55597550Y-45028983D01*
X55568975Y-45092801D01*
X55545162Y-45181383D01*
X55534685Y-45294731D01*
X55137810Y-45294731D01*
X55137810Y-44793716D01*
X55561355Y-44793716D01*
X56740550Y-44793716D01*
X56740550Y-44052671D01*
X56546240Y-44052671D01*
X56546240Y-44557496D01*
X55561355Y-44557496D01*
X55561355Y-44793716D01*
X55137810Y-44793716D01*
X55137810Y-43500221D01*
X55534685Y-43500221D01*
X55551936Y-43623834D01*
X55603688Y-43727974D01*
X55689942Y-43812641D01*
X55776918Y-43861814D01*
X55882586Y-43896937D01*
X56006946Y-43918011D01*
X56150000Y-43925036D01*
X56293054Y-43918190D01*
X56417414Y-43897651D01*
X56523082Y-43863421D01*
X56610057Y-43815498D01*
X56696312Y-43731572D01*
X56748064Y-43625845D01*
X56765315Y-43498316D01*
X56748064Y-43373856D01*
X56696312Y-43269716D01*
X56610057Y-43185896D01*
X56523082Y-43137556D01*
X56417414Y-43103028D01*
X56293054Y-43082311D01*
X56150000Y-43075406D01*
X56006946Y-43082192D01*
X55882586Y-43102552D01*
X55776918Y-43136485D01*
X55689942Y-43183991D01*
X55603688Y-43267388D01*
X55551936Y-43372797D01*
X55534685Y-43500221D01*
X55137810Y-43500221D01*
X55137810Y-42526766D01*
X55534685Y-42526766D01*
X55545057Y-42643500D01*
X55576172Y-42742243D01*
X55628030Y-42822993D01*
X55739472Y-42903718D01*
X55887110Y-42930626D01*
X56027127Y-42900146D01*
X56121425Y-42822993D01*
X56184290Y-42719171D01*
X56228105Y-42608681D01*
X56261442Y-42528671D01*
X56301447Y-42456281D01*
X56351930Y-42402941D01*
X56416700Y-42381986D01*
X56472897Y-42390558D01*
X56522427Y-42421991D01*
X56556717Y-42483903D01*
X56569100Y-42582011D01*
X56562432Y-42677023D01*
X56542430Y-42756318D01*
X56485280Y-42879191D01*
X56675780Y-42947771D01*
X56733882Y-42816326D01*
X56757457Y-42713932D01*
X56765315Y-42582011D01*
X56755261Y-42448343D01*
X56725098Y-42339441D01*
X56674827Y-42255303D01*
X56565528Y-42174579D01*
X56418605Y-42147671D01*
X56329784Y-42155767D01*
X56257632Y-42180056D01*
X56150952Y-42262923D01*
X56082372Y-42373413D01*
X56035700Y-42488666D01*
X56007125Y-42562008D01*
X55971882Y-42628683D01*
X55926162Y-42677261D01*
X55866155Y-42696311D01*
X55791013Y-42675567D01*
X55745928Y-42613337D01*
X55730900Y-42509621D01*
X55749950Y-42375318D01*
X55795670Y-42269591D01*
X55614695Y-42201011D01*
X55559450Y-42337218D01*
X55540876Y-42425086D01*
X55534685Y-42526766D01*
X55137810Y-42526766D01*
X55137810Y-41951456D01*
X55561355Y-41951456D01*
X56740550Y-41951456D01*
X56740550Y-41195171D01*
X56546240Y-41195171D01*
X56546240Y-41717141D01*
X56214770Y-41717141D01*
X56214770Y-41299946D01*
X56020460Y-41299946D01*
X56020460Y-41717141D01*
X55755665Y-41717141D01*
X55755665Y-41237081D01*
X55561355Y-41237081D01*
X55561355Y-41951456D01*
X55137810Y-41951456D01*
X55137810Y-40798296D01*
X57162190Y-40798296D01*
X57162190Y-46901704D01*
X56150000Y-46226911D01*
G37*
G36*
X56232867Y-43315198D02*
G01*
X56310020Y-43320198D01*
X56440512Y-43346868D01*
X56529095Y-43404018D01*
X56561480Y-43500221D01*
X56529095Y-43597376D01*
X56441465Y-43653573D01*
X56310972Y-43680243D01*
X56233106Y-43685244D01*
X56150000Y-43686911D01*
X56067132Y-43685244D01*
X55989980Y-43680243D01*
X55859487Y-43653573D01*
X55770905Y-43597376D01*
X55738520Y-43500221D01*
X55770905Y-43403066D01*
X55858535Y-43346868D01*
X55989027Y-43320198D01*
X56066894Y-43315198D01*
X56150000Y-43313531D01*
X56232867Y-43315198D01*
G37*
%TO.C,kibuzzard-6482D2A7*%
G36*
X30102933Y-10599950D02*
G01*
X30102933Y-11392430D01*
X30068643Y-11397193D01*
X30034353Y-11398145D01*
X29906718Y-11364808D01*
X29828613Y-11276225D01*
X29788608Y-11148590D01*
X29777178Y-11000000D01*
X29780749Y-10915942D01*
X29791465Y-10839028D01*
X29839090Y-10712345D01*
X29926720Y-10628525D01*
X30061023Y-10598045D01*
X30081978Y-10598045D01*
X30102933Y-10599950D01*
G37*
G36*
X32690558Y-12012190D02*
G01*
X26309443Y-12012190D01*
X26309443Y-11588645D01*
X27605478Y-11588645D01*
X27851223Y-11588645D01*
X27868368Y-11489585D01*
X27889323Y-11375285D01*
X27913135Y-11251698D01*
X27938853Y-11124778D01*
X27966475Y-10997143D01*
X27996003Y-10871413D01*
X28026483Y-10753541D01*
X28056963Y-10649480D01*
X28087681Y-10754969D01*
X28118875Y-10873318D01*
X28149355Y-10999048D01*
X28177930Y-11126683D01*
X28204362Y-11253365D01*
X28228413Y-11376238D01*
X28248415Y-11489823D01*
X28262703Y-11588645D01*
X28510353Y-11588645D01*
X28488445Y-11481965D01*
X28457013Y-11348615D01*
X28431824Y-11248814D01*
X28404519Y-11144992D01*
X28375098Y-11037148D01*
X28364586Y-11000000D01*
X29539053Y-11000000D01*
X29548339Y-11148352D01*
X29576200Y-11273368D01*
X29620729Y-11376714D01*
X29680023Y-11460058D01*
X29754079Y-11523637D01*
X29842900Y-11567690D01*
X29944103Y-11593408D01*
X30055308Y-11601980D01*
X30186753Y-11596265D01*
X30236918Y-11588645D01*
X30527748Y-11588645D01*
X30739203Y-11588645D01*
X30739203Y-10862840D01*
X30772778Y-10937135D01*
X30812545Y-11022860D01*
X30857313Y-11115729D01*
X30905890Y-11211455D01*
X30957087Y-11308848D01*
X31009713Y-11406718D01*
X31063053Y-11501253D01*
X31116393Y-11588645D01*
X31304988Y-11588645D01*
X31304988Y-11529590D01*
X31461198Y-11529590D01*
X31500250Y-11552450D01*
X31565973Y-11581025D01*
X31660270Y-11604838D01*
X31783143Y-11615315D01*
X31886489Y-11605552D01*
X31983168Y-11576263D01*
X32070321Y-11527447D01*
X32145093Y-11459105D01*
X32206529Y-11371713D01*
X32253678Y-11265748D01*
X32283681Y-11141684D01*
X32293683Y-11000000D01*
X32285110Y-10856887D01*
X32259393Y-10732348D01*
X32217959Y-10626620D01*
X32162238Y-10539943D01*
X32092943Y-10472315D01*
X32010790Y-10423738D01*
X31916731Y-10394448D01*
X31811718Y-10384685D01*
X31695274Y-10389447D01*
X31597405Y-10403735D01*
X31466913Y-10438025D01*
X31466913Y-11026670D01*
X31701228Y-11026670D01*
X31701228Y-10596140D01*
X31746948Y-10590425D01*
X31792668Y-10588520D01*
X31906491Y-10613523D01*
X31988883Y-10688533D01*
X32025924Y-10767590D01*
X32048149Y-10871413D01*
X32055558Y-11000000D01*
X32051509Y-11087392D01*
X32039365Y-11166688D01*
X31986025Y-11296228D01*
X31891728Y-11381000D01*
X31750758Y-11411480D01*
X31625028Y-11390525D01*
X31522158Y-11342900D01*
X31461198Y-11529590D01*
X31304988Y-11529590D01*
X31304988Y-10409450D01*
X31093533Y-10409450D01*
X31093533Y-11192405D01*
X31022730Y-11061701D01*
X30955103Y-10931208D01*
X30890650Y-10800928D01*
X30829373Y-10670647D01*
X30771270Y-10540154D01*
X30716343Y-10409450D01*
X30527748Y-10409450D01*
X30527748Y-11588645D01*
X30236918Y-11588645D01*
X30337248Y-11573405D01*
X30337248Y-10422785D01*
X30208660Y-10400878D01*
X30085788Y-10394210D01*
X29970773Y-10402544D01*
X29865760Y-10427548D01*
X29772653Y-10470648D01*
X29693358Y-10533275D01*
X29628826Y-10616381D01*
X29580010Y-10720918D01*
X29549292Y-10848314D01*
X29539053Y-11000000D01*
X28364586Y-11000000D01*
X28343983Y-10927187D01*
X28311598Y-10817014D01*
X28277943Y-10706630D01*
X28227936Y-10549468D01*
X28180788Y-10409450D01*
X27938853Y-10409450D01*
X27902446Y-10510944D01*
X27866886Y-10614767D01*
X27832173Y-10720918D01*
X27798835Y-10827597D01*
X27767403Y-10933008D01*
X27737875Y-11037148D01*
X27697394Y-11188833D01*
X27661675Y-11333375D01*
X27630957Y-11467678D01*
X27605478Y-11588645D01*
X26309443Y-11588645D01*
X26309443Y-11005715D01*
X26706317Y-11005715D01*
X27005402Y-11005715D01*
X27005402Y-11337185D01*
X27207333Y-11337185D01*
X27207333Y-11005715D01*
X27506418Y-11005715D01*
X27506418Y-10813310D01*
X27207333Y-10813310D01*
X27207333Y-10481840D01*
X27005402Y-10481840D01*
X27005402Y-10813310D01*
X26706317Y-10813310D01*
X26706317Y-11005715D01*
X26309443Y-11005715D01*
X26309443Y-9987810D01*
X32690558Y-9987810D01*
X32690558Y-12012190D01*
G37*
D10*
%TO.C,J1*%
X48034000Y-15956000D02*
X48069000Y-15921000D01*
X54560000Y-13095000D02*
X24440000Y-13095000D01*
X54560000Y-14595000D02*
X24440000Y-14595000D01*
X25725000Y-18264000D02*
X25772000Y-18218000D01*
X24440000Y-22456000D02*
X24440000Y-12535000D01*
X38227000Y-16172000D02*
X38274000Y-16126000D01*
X28227000Y-16172000D02*
X28274000Y-16126000D01*
X28034000Y-15956000D02*
X28069000Y-15921000D01*
X30930000Y-18470000D02*
X30965000Y-18434000D01*
X54560000Y-22456000D02*
X24440000Y-22456000D01*
X45930000Y-18470000D02*
X45965000Y-18434000D01*
X43034000Y-15956000D02*
X43069000Y-15921000D01*
X38034000Y-15956000D02*
X38069000Y-15921000D01*
X35930000Y-18470000D02*
X35965000Y-18434000D01*
X54800000Y-12295000D02*
X54300000Y-12295000D01*
X33227000Y-16172000D02*
X33274000Y-16126000D01*
X54800000Y-13035000D02*
X54800000Y-12295000D01*
X43227000Y-16172000D02*
X43274000Y-16126000D01*
X40725000Y-18264000D02*
X40772000Y-18218000D01*
X33034000Y-15956000D02*
X33069000Y-15921000D01*
X35725000Y-18264000D02*
X35772000Y-18218000D01*
X54560000Y-12535000D02*
X24440000Y-12535000D01*
X54560000Y-19496000D02*
X24440000Y-19496000D01*
X25930000Y-18470000D02*
X25965000Y-18434000D01*
X54560000Y-22456000D02*
X54560000Y-12535000D01*
X30725000Y-18264000D02*
X30772000Y-18218000D01*
X48227000Y-16172000D02*
X48274000Y-16126000D01*
X45725000Y-18264000D02*
X45772000Y-18218000D01*
X40930000Y-18470000D02*
X40965000Y-18434000D01*
X51316000Y-18730000D02*
G75*
G03*
X52683042Y-18730427I684001J1534993D01*
G01*
X50464999Y-16511000D02*
G75*
G03*
X50464573Y-17878042I1535001J-684000D01*
G01*
X53535000Y-17879000D02*
G75*
G03*
X53535427Y-16511958I-1534993J684001D01*
G01*
X52000000Y-15515000D02*
G75*
G03*
X51316682Y-15660244I0J-1680000D01*
G01*
X52684000Y-15660000D02*
G75*
G03*
X51971195Y-15514747I-683999J-1535001D01*
G01*
X28680000Y-17195000D02*
G75*
G03*
X28680000Y-17195000I-1680000J0D01*
G01*
X43680000Y-17195000D02*
G75*
G03*
X43680000Y-17195000I-1680000J0D01*
G01*
X33680000Y-17195000D02*
G75*
G03*
X33680000Y-17195000I-1680000J0D01*
G01*
X48680000Y-17195000D02*
G75*
G03*
X48680000Y-17195000I-1680000J0D01*
G01*
X38680000Y-17195000D02*
G75*
G03*
X38680000Y-17195000I-1680000J0D01*
G01*
%TD*%
M02*
