%TF.GenerationSoftware,KiCad,Pcbnew,(5.1.6-0-10_14)*%
%TF.CreationDate,2022-03-19T18:54:14+01:00*%
%TF.ProjectId,EOL,454f4c2e-6b69-4636-9164-5f7063625858,rev?*%
%TF.SameCoordinates,Original*%
%TF.FileFunction,Legend,Bot*%
%TF.FilePolarity,Positive*%
%FSLAX46Y46*%
G04 Gerber Fmt 4.6, Leading zero omitted, Abs format (unit mm)*
G04 Created by KiCad (PCBNEW (5.1.6-0-10_14)) date 2022-03-19 18:54:14*
%MOMM*%
%LPD*%
G01*
G04 APERTURE LIST*
%ADD10C,0.120000*%
G04 APERTURE END LIST*
D10*
X54243428Y-53594285D02*
X54243428Y-52844285D01*
X53814857Y-53594285D01*
X53814857Y-52844285D01*
X53136285Y-53094285D02*
X53136285Y-53594285D01*
X53457714Y-53094285D02*
X53457714Y-53487142D01*
X53422000Y-53558571D01*
X53350571Y-53594285D01*
X53243428Y-53594285D01*
X53172000Y-53558571D01*
X53136285Y-53522857D01*
X52779142Y-53094285D02*
X52779142Y-53594285D01*
X52779142Y-53165714D02*
X52743428Y-53130000D01*
X52672000Y-53094285D01*
X52564857Y-53094285D01*
X52493428Y-53130000D01*
X52457714Y-53201428D01*
X52457714Y-53594285D01*
X51993428Y-53594285D02*
X52064857Y-53558571D01*
X52100571Y-53522857D01*
X52136285Y-53451428D01*
X52136285Y-53237142D01*
X52100571Y-53165714D01*
X52064857Y-53130000D01*
X51993428Y-53094285D01*
X51886285Y-53094285D01*
X51814857Y-53130000D01*
X51779142Y-53165714D01*
X51743428Y-53237142D01*
X51743428Y-53451428D01*
X51779142Y-53522857D01*
X51814857Y-53558571D01*
X51886285Y-53594285D01*
X51993428Y-53594285D01*
X50850571Y-53594285D02*
X50850571Y-52844285D01*
X50422000Y-53594285D01*
X50422000Y-52844285D01*
X49957714Y-53594285D02*
X50029142Y-53558571D01*
X50064857Y-53522857D01*
X50100571Y-53451428D01*
X50100571Y-53237142D01*
X50064857Y-53165714D01*
X50029142Y-53130000D01*
X49957714Y-53094285D01*
X49850571Y-53094285D01*
X49779142Y-53130000D01*
X49743428Y-53165714D01*
X49707714Y-53237142D01*
X49707714Y-53451428D01*
X49743428Y-53522857D01*
X49779142Y-53558571D01*
X49850571Y-53594285D01*
X49957714Y-53594285D01*
X49064857Y-53094285D02*
X49064857Y-53701428D01*
X49100571Y-53772857D01*
X49136285Y-53808571D01*
X49207714Y-53844285D01*
X49314857Y-53844285D01*
X49386285Y-53808571D01*
X49064857Y-53558571D02*
X49136285Y-53594285D01*
X49279142Y-53594285D01*
X49350571Y-53558571D01*
X49386285Y-53522857D01*
X49422000Y-53451428D01*
X49422000Y-53237142D01*
X49386285Y-53165714D01*
X49350571Y-53130000D01*
X49279142Y-53094285D01*
X49136285Y-53094285D01*
X49064857Y-53130000D01*
X48386285Y-53094285D02*
X48386285Y-53594285D01*
X48707714Y-53094285D02*
X48707714Y-53487142D01*
X48672000Y-53558571D01*
X48600571Y-53594285D01*
X48493428Y-53594285D01*
X48422000Y-53558571D01*
X48386285Y-53522857D01*
X47743428Y-53558571D02*
X47814857Y-53594285D01*
X47957714Y-53594285D01*
X48029142Y-53558571D01*
X48064857Y-53487142D01*
X48064857Y-53201428D01*
X48029142Y-53130000D01*
X47957714Y-53094285D01*
X47814857Y-53094285D01*
X47743428Y-53130000D01*
X47707714Y-53201428D01*
X47707714Y-53272857D01*
X48064857Y-53344285D01*
X47386285Y-53594285D02*
X47386285Y-53094285D01*
X47386285Y-52844285D02*
X47422000Y-52880000D01*
X47386285Y-52915714D01*
X47350571Y-52880000D01*
X47386285Y-52844285D01*
X47386285Y-52915714D01*
X47029142Y-53594285D02*
X47029142Y-53094285D01*
X47029142Y-53237142D02*
X46993428Y-53165714D01*
X46957714Y-53130000D01*
X46886285Y-53094285D01*
X46814857Y-53094285D01*
X46243428Y-53594285D02*
X46243428Y-53201428D01*
X46279142Y-53130000D01*
X46350571Y-53094285D01*
X46493428Y-53094285D01*
X46564857Y-53130000D01*
X46243428Y-53558571D02*
X46314857Y-53594285D01*
X46493428Y-53594285D01*
X46564857Y-53558571D01*
X46600571Y-53487142D01*
X46600571Y-53415714D01*
X46564857Y-53344285D01*
X46493428Y-53308571D01*
X46314857Y-53308571D01*
X46243428Y-53272857D01*
X54279142Y-54803571D02*
X54172000Y-54839285D01*
X53993428Y-54839285D01*
X53922000Y-54803571D01*
X53886285Y-54767857D01*
X53850571Y-54696428D01*
X53850571Y-54625000D01*
X53886285Y-54553571D01*
X53922000Y-54517857D01*
X53993428Y-54482142D01*
X54136285Y-54446428D01*
X54207714Y-54410714D01*
X54243428Y-54375000D01*
X54279142Y-54303571D01*
X54279142Y-54232142D01*
X54243428Y-54160714D01*
X54207714Y-54125000D01*
X54136285Y-54089285D01*
X53957714Y-54089285D01*
X53850571Y-54125000D01*
X53636285Y-54339285D02*
X53350571Y-54339285D01*
X53529142Y-54089285D02*
X53529142Y-54732142D01*
X53493428Y-54803571D01*
X53422000Y-54839285D01*
X53350571Y-54839285D01*
X52993428Y-54839285D02*
X53064857Y-54803571D01*
X53100571Y-54767857D01*
X53136285Y-54696428D01*
X53136285Y-54482142D01*
X53100571Y-54410714D01*
X53064857Y-54375000D01*
X52993428Y-54339285D01*
X52886285Y-54339285D01*
X52814857Y-54375000D01*
X52779142Y-54410714D01*
X52743428Y-54482142D01*
X52743428Y-54696428D01*
X52779142Y-54767857D01*
X52814857Y-54803571D01*
X52886285Y-54839285D01*
X52993428Y-54839285D01*
X52100571Y-54803571D02*
X52172000Y-54839285D01*
X52314857Y-54839285D01*
X52386285Y-54803571D01*
X52422000Y-54767857D01*
X52457714Y-54696428D01*
X52457714Y-54482142D01*
X52422000Y-54410714D01*
X52386285Y-54375000D01*
X52314857Y-54339285D01*
X52172000Y-54339285D01*
X52100571Y-54375000D01*
X51779142Y-54839285D02*
X51779142Y-54089285D01*
X51707714Y-54553571D02*
X51493428Y-54839285D01*
X51493428Y-54339285D02*
X51779142Y-54625000D01*
X51172000Y-54839285D02*
X51172000Y-54089285D01*
X50850571Y-54839285D02*
X50850571Y-54446428D01*
X50886285Y-54375000D01*
X50957714Y-54339285D01*
X51064857Y-54339285D01*
X51136285Y-54375000D01*
X51172000Y-54410714D01*
X50386285Y-54839285D02*
X50457714Y-54803571D01*
X50493428Y-54767857D01*
X50529142Y-54696428D01*
X50529142Y-54482142D01*
X50493428Y-54410714D01*
X50457714Y-54375000D01*
X50386285Y-54339285D01*
X50279142Y-54339285D01*
X50207714Y-54375000D01*
X50172000Y-54410714D01*
X50136285Y-54482142D01*
X50136285Y-54696428D01*
X50172000Y-54767857D01*
X50207714Y-54803571D01*
X50279142Y-54839285D01*
X50386285Y-54839285D01*
X49707714Y-54839285D02*
X49779142Y-54803571D01*
X49814857Y-54732142D01*
X49814857Y-54089285D01*
X49422000Y-54839285D02*
X49422000Y-54339285D01*
X49422000Y-54410714D02*
X49386285Y-54375000D01*
X49314857Y-54339285D01*
X49207714Y-54339285D01*
X49136285Y-54375000D01*
X49100571Y-54446428D01*
X49100571Y-54839285D01*
X49100571Y-54446428D02*
X49064857Y-54375000D01*
X48993428Y-54339285D01*
X48886285Y-54339285D01*
X48814857Y-54375000D01*
X48779142Y-54446428D01*
X48779142Y-54839285D01*
X54100571Y-55334285D02*
X54029142Y-55334285D01*
X53957714Y-55370000D01*
X53922000Y-55405714D01*
X53886285Y-55477142D01*
X53850571Y-55620000D01*
X53850571Y-55798571D01*
X53886285Y-55941428D01*
X53922000Y-56012857D01*
X53957714Y-56048571D01*
X54029142Y-56084285D01*
X54100571Y-56084285D01*
X54172000Y-56048571D01*
X54207714Y-56012857D01*
X54243428Y-55941428D01*
X54279142Y-55798571D01*
X54279142Y-55620000D01*
X54243428Y-55477142D01*
X54207714Y-55405714D01*
X54172000Y-55370000D01*
X54100571Y-55334285D01*
X53600571Y-55334285D02*
X53136285Y-55334285D01*
X53386285Y-55620000D01*
X53279142Y-55620000D01*
X53207714Y-55655714D01*
X53172000Y-55691428D01*
X53136285Y-55762857D01*
X53136285Y-55941428D01*
X53172000Y-56012857D01*
X53207714Y-56048571D01*
X53279142Y-56084285D01*
X53493428Y-56084285D01*
X53564857Y-56048571D01*
X53600571Y-56012857D01*
X52814857Y-55798571D02*
X52243428Y-55798571D01*
X51922000Y-55405714D02*
X51886285Y-55370000D01*
X51814857Y-55334285D01*
X51636285Y-55334285D01*
X51564857Y-55370000D01*
X51529142Y-55405714D01*
X51493428Y-55477142D01*
X51493428Y-55548571D01*
X51529142Y-55655714D01*
X51957714Y-56084285D01*
X51493428Y-56084285D01*
X51207714Y-55405714D02*
X51172000Y-55370000D01*
X51100571Y-55334285D01*
X50922000Y-55334285D01*
X50850571Y-55370000D01*
X50814857Y-55405714D01*
X50779142Y-55477142D01*
X50779142Y-55548571D01*
X50814857Y-55655714D01*
X51243428Y-56084285D01*
X50779142Y-56084285D01*
M02*
