%TF.GenerationSoftware,KiCad,Pcbnew,(5.1.6-0-10_14)*%
%TF.CreationDate,2022-03-19T18:54:14+01:00*%
%TF.ProjectId,EOL,454f4c2e-6b69-4636-9164-5f7063625858,rev?*%
%TF.SameCoordinates,Original*%
%TF.FileFunction,Legend,Top*%
%TF.FilePolarity,Positive*%
%FSLAX46Y46*%
G04 Gerber Fmt 4.6, Leading zero omitted, Abs format (unit mm)*
G04 Created by KiCad (PCBNEW (5.1.6-0-10_14)) date 2022-03-19 18:54:14*
%MOMM*%
%LPD*%
G01*
G04 APERTURE LIST*
%ADD10C,0.150000*%
%ADD11C,0.120000*%
%ADD12C,0.100000*%
%ADD13C,0.500000*%
G04 APERTURE END LIST*
D10*
X48952380Y-14047619D02*
X48619047Y-13047619D01*
X48285714Y-14047619D01*
X47952380Y-13428571D02*
X47190476Y-13428571D01*
X47571428Y-13047619D02*
X47571428Y-13809523D01*
X37952380Y-14047619D02*
X37619047Y-13047619D01*
X37285714Y-14047619D01*
X36952380Y-13428571D02*
X36190476Y-13428571D01*
X36571428Y-13047619D02*
X36571428Y-13809523D01*
X53761904Y-14000000D02*
X53857142Y-14047619D01*
X54000000Y-14047619D01*
X54142857Y-14000000D01*
X54238095Y-13904761D01*
X54285714Y-13809523D01*
X54333333Y-13619047D01*
X54333333Y-13476190D01*
X54285714Y-13285714D01*
X54238095Y-13190476D01*
X54142857Y-13095238D01*
X54000000Y-13047619D01*
X53904761Y-13047619D01*
X53761904Y-13095238D01*
X53714285Y-13142857D01*
X53714285Y-13476190D01*
X53904761Y-13476190D01*
X53285714Y-13047619D02*
X53285714Y-14047619D01*
X52714285Y-13047619D01*
X52714285Y-14047619D01*
X52238095Y-13047619D02*
X52238095Y-14047619D01*
X52000000Y-14047619D01*
X51857142Y-14000000D01*
X51761904Y-13904761D01*
X51714285Y-13809523D01*
X51666666Y-13619047D01*
X51666666Y-13476190D01*
X51714285Y-13285714D01*
X51761904Y-13190476D01*
X51857142Y-13095238D01*
X52000000Y-13047619D01*
X52238095Y-13047619D01*
X42761904Y-14000000D02*
X42857142Y-14047619D01*
X43000000Y-14047619D01*
X43142857Y-14000000D01*
X43238095Y-13904761D01*
X43285714Y-13809523D01*
X43333333Y-13619047D01*
X43333333Y-13476190D01*
X43285714Y-13285714D01*
X43238095Y-13190476D01*
X43142857Y-13095238D01*
X43000000Y-13047619D01*
X42904761Y-13047619D01*
X42761904Y-13095238D01*
X42714285Y-13142857D01*
X42714285Y-13476190D01*
X42904761Y-13476190D01*
X42285714Y-13047619D02*
X42285714Y-14047619D01*
X41714285Y-13047619D01*
X41714285Y-14047619D01*
X41238095Y-13047619D02*
X41238095Y-14047619D01*
X41000000Y-14047619D01*
X40857142Y-14000000D01*
X40761904Y-13904761D01*
X40714285Y-13809523D01*
X40666666Y-13619047D01*
X40666666Y-13476190D01*
X40714285Y-13285714D01*
X40761904Y-13190476D01*
X40857142Y-13095238D01*
X41000000Y-13047619D01*
X41238095Y-13047619D01*
X31761904Y-14000000D02*
X31857142Y-14047619D01*
X32000000Y-14047619D01*
X32142857Y-14000000D01*
X32238095Y-13904761D01*
X32285714Y-13809523D01*
X32333333Y-13619047D01*
X32333333Y-13476190D01*
X32285714Y-13285714D01*
X32238095Y-13190476D01*
X32142857Y-13095238D01*
X32000000Y-13047619D01*
X31904761Y-13047619D01*
X31761904Y-13095238D01*
X31714285Y-13142857D01*
X31714285Y-13476190D01*
X31904761Y-13476190D01*
X31285714Y-13047619D02*
X31285714Y-14047619D01*
X30714285Y-13047619D01*
X30714285Y-14047619D01*
X30238095Y-13047619D02*
X30238095Y-14047619D01*
X30000000Y-14047619D01*
X29857142Y-14000000D01*
X29761904Y-13904761D01*
X29714285Y-13809523D01*
X29666666Y-13619047D01*
X29666666Y-13476190D01*
X29714285Y-13285714D01*
X29761904Y-13190476D01*
X29857142Y-13095238D01*
X30000000Y-13047619D01*
X30238095Y-13047619D01*
X26952380Y-14047619D02*
X26619047Y-13047619D01*
X26285714Y-14047619D01*
X25952380Y-13428571D02*
X25190476Y-13428571D01*
X25571428Y-13047619D02*
X25571428Y-13809523D01*
D11*
X45000000Y-53000000D02*
X45000000Y-55000000D01*
X45000000Y-25500000D02*
X45000000Y-27500000D01*
X34000000Y-53000000D02*
X34000000Y-55000000D01*
X34000000Y-25500000D02*
X34000000Y-27500000D01*
X15256571Y-45201428D02*
X15506571Y-45201428D01*
X15613714Y-45594285D02*
X15256571Y-45594285D01*
X15256571Y-44844285D01*
X15613714Y-44844285D01*
X15935142Y-45094285D02*
X15935142Y-45594285D01*
X15935142Y-45165714D02*
X15970857Y-45130000D01*
X16042285Y-45094285D01*
X16149428Y-45094285D01*
X16220857Y-45130000D01*
X16256571Y-45201428D01*
X16256571Y-45594285D01*
X16935142Y-45594285D02*
X16935142Y-44844285D01*
X16935142Y-45558571D02*
X16863714Y-45594285D01*
X16720857Y-45594285D01*
X16649428Y-45558571D01*
X16613714Y-45522857D01*
X16578000Y-45451428D01*
X16578000Y-45237142D01*
X16613714Y-45165714D01*
X16649428Y-45130000D01*
X16720857Y-45094285D01*
X16863714Y-45094285D01*
X16935142Y-45130000D01*
X17970857Y-45594285D02*
X17899428Y-45558571D01*
X17863714Y-45522857D01*
X17828000Y-45451428D01*
X17828000Y-45237142D01*
X17863714Y-45165714D01*
X17899428Y-45130000D01*
X17970857Y-45094285D01*
X18078000Y-45094285D01*
X18149428Y-45130000D01*
X18185142Y-45165714D01*
X18220857Y-45237142D01*
X18220857Y-45451428D01*
X18185142Y-45522857D01*
X18149428Y-45558571D01*
X18078000Y-45594285D01*
X17970857Y-45594285D01*
X18435142Y-45094285D02*
X18720857Y-45094285D01*
X18542285Y-45594285D02*
X18542285Y-44951428D01*
X18578000Y-44880000D01*
X18649428Y-44844285D01*
X18720857Y-44844285D01*
X19649428Y-45594285D02*
X19578000Y-45558571D01*
X19542285Y-45487142D01*
X19542285Y-44844285D01*
X19935142Y-45594285D02*
X19935142Y-45094285D01*
X19935142Y-44844285D02*
X19899428Y-44880000D01*
X19935142Y-44915714D01*
X19970857Y-44880000D01*
X19935142Y-44844285D01*
X19935142Y-44915714D01*
X20292285Y-45094285D02*
X20292285Y-45594285D01*
X20292285Y-45165714D02*
X20328000Y-45130000D01*
X20399428Y-45094285D01*
X20506571Y-45094285D01*
X20578000Y-45130000D01*
X20613714Y-45201428D01*
X20613714Y-45594285D01*
X21256571Y-45558571D02*
X21185142Y-45594285D01*
X21042285Y-45594285D01*
X20970857Y-45558571D01*
X20935142Y-45487142D01*
X20935142Y-45201428D01*
X20970857Y-45130000D01*
X21042285Y-45094285D01*
X21185142Y-45094285D01*
X21256571Y-45130000D01*
X21292285Y-45201428D01*
X21292285Y-45272857D01*
X20935142Y-45344285D01*
X15149428Y-46089285D02*
X15578000Y-46089285D01*
X15363714Y-46839285D02*
X15363714Y-46089285D01*
X16113714Y-46803571D02*
X16042285Y-46839285D01*
X15899428Y-46839285D01*
X15828000Y-46803571D01*
X15792285Y-46732142D01*
X15792285Y-46446428D01*
X15828000Y-46375000D01*
X15899428Y-46339285D01*
X16042285Y-46339285D01*
X16113714Y-46375000D01*
X16149428Y-46446428D01*
X16149428Y-46517857D01*
X15792285Y-46589285D01*
X16435142Y-46803571D02*
X16506571Y-46839285D01*
X16649428Y-46839285D01*
X16720857Y-46803571D01*
X16756571Y-46732142D01*
X16756571Y-46696428D01*
X16720857Y-46625000D01*
X16649428Y-46589285D01*
X16542285Y-46589285D01*
X16470857Y-46553571D01*
X16435142Y-46482142D01*
X16435142Y-46446428D01*
X16470857Y-46375000D01*
X16542285Y-46339285D01*
X16649428Y-46339285D01*
X16720857Y-46375000D01*
X16970857Y-46339285D02*
X17256571Y-46339285D01*
X17078000Y-46089285D02*
X17078000Y-46732142D01*
X17113714Y-46803571D01*
X17185142Y-46839285D01*
X17256571Y-46839285D01*
X17506571Y-46839285D02*
X17506571Y-46339285D01*
X17506571Y-46089285D02*
X17470857Y-46125000D01*
X17506571Y-46160714D01*
X17542285Y-46125000D01*
X17506571Y-46089285D01*
X17506571Y-46160714D01*
X17863714Y-46339285D02*
X17863714Y-46839285D01*
X17863714Y-46410714D02*
X17899428Y-46375000D01*
X17970857Y-46339285D01*
X18078000Y-46339285D01*
X18149428Y-46375000D01*
X18185142Y-46446428D01*
X18185142Y-46839285D01*
X18863714Y-46339285D02*
X18863714Y-46946428D01*
X18828000Y-47017857D01*
X18792285Y-47053571D01*
X18720857Y-47089285D01*
X18613714Y-47089285D01*
X18542285Y-47053571D01*
X18863714Y-46803571D02*
X18792285Y-46839285D01*
X18649428Y-46839285D01*
X18578000Y-46803571D01*
X18542285Y-46767857D01*
X18506571Y-46696428D01*
X18506571Y-46482142D01*
X18542285Y-46410714D01*
X18578000Y-46375000D01*
X18649428Y-46339285D01*
X18792285Y-46339285D01*
X18863714Y-46375000D01*
X19792285Y-46839285D02*
X19792285Y-46089285D01*
X19792285Y-46375000D02*
X19863714Y-46339285D01*
X20006571Y-46339285D01*
X20078000Y-46375000D01*
X20113714Y-46410714D01*
X20149428Y-46482142D01*
X20149428Y-46696428D01*
X20113714Y-46767857D01*
X20078000Y-46803571D01*
X20006571Y-46839285D01*
X19863714Y-46839285D01*
X19792285Y-46803571D01*
X20578000Y-46839285D02*
X20506571Y-46803571D01*
X20470857Y-46767857D01*
X20435142Y-46696428D01*
X20435142Y-46482142D01*
X20470857Y-46410714D01*
X20506571Y-46375000D01*
X20578000Y-46339285D01*
X20685142Y-46339285D01*
X20756571Y-46375000D01*
X20792285Y-46410714D01*
X20828000Y-46482142D01*
X20828000Y-46696428D01*
X20792285Y-46767857D01*
X20756571Y-46803571D01*
X20685142Y-46839285D01*
X20578000Y-46839285D01*
X21470857Y-46839285D02*
X21470857Y-46446428D01*
X21435142Y-46375000D01*
X21363714Y-46339285D01*
X21220857Y-46339285D01*
X21149428Y-46375000D01*
X21470857Y-46803571D02*
X21399428Y-46839285D01*
X21220857Y-46839285D01*
X21149428Y-46803571D01*
X21113714Y-46732142D01*
X21113714Y-46660714D01*
X21149428Y-46589285D01*
X21220857Y-46553571D01*
X21399428Y-46553571D01*
X21470857Y-46517857D01*
X21828000Y-46839285D02*
X21828000Y-46339285D01*
X21828000Y-46482142D02*
X21863714Y-46410714D01*
X21899428Y-46375000D01*
X21970857Y-46339285D01*
X22042285Y-46339285D01*
X22613714Y-46839285D02*
X22613714Y-46089285D01*
X22613714Y-46803571D02*
X22542285Y-46839285D01*
X22399428Y-46839285D01*
X22328000Y-46803571D01*
X22292285Y-46767857D01*
X22256571Y-46696428D01*
X22256571Y-46482142D01*
X22292285Y-46410714D01*
X22328000Y-46375000D01*
X22399428Y-46339285D01*
X22542285Y-46339285D01*
X22613714Y-46375000D01*
X15185142Y-47584285D02*
X15363714Y-48084285D01*
X15542285Y-47584285D01*
X16220857Y-48084285D02*
X15792285Y-48084285D01*
X16006571Y-48084285D02*
X16006571Y-47334285D01*
X15935142Y-47441428D01*
X15863714Y-47512857D01*
X15792285Y-47548571D01*
X16542285Y-48012857D02*
X16578000Y-48048571D01*
X16542285Y-48084285D01*
X16506571Y-48048571D01*
X16542285Y-48012857D01*
X16542285Y-48084285D01*
X17042285Y-47334285D02*
X17113714Y-47334285D01*
X17185142Y-47370000D01*
X17220857Y-47405714D01*
X17256571Y-47477142D01*
X17292285Y-47620000D01*
X17292285Y-47798571D01*
X17256571Y-47941428D01*
X17220857Y-48012857D01*
X17185142Y-48048571D01*
X17113714Y-48084285D01*
X17042285Y-48084285D01*
X16970857Y-48048571D01*
X16935142Y-48012857D01*
X16899428Y-47941428D01*
X16863714Y-47798571D01*
X16863714Y-47620000D01*
X16899428Y-47477142D01*
X16935142Y-47405714D01*
X16970857Y-47370000D01*
X17042285Y-47334285D01*
X45000000Y-50500000D02*
X45000000Y-52500000D01*
X34000000Y-50500000D02*
X34000000Y-52500000D01*
X46756571Y-54716785D02*
X46756571Y-53966785D01*
X46935142Y-53966785D01*
X47042285Y-54002500D01*
X47113714Y-54073928D01*
X47149428Y-54145357D01*
X47185142Y-54288214D01*
X47185142Y-54395357D01*
X47149428Y-54538214D01*
X47113714Y-54609642D01*
X47042285Y-54681071D01*
X46935142Y-54716785D01*
X46756571Y-54716785D01*
X47613714Y-54716785D02*
X47542285Y-54681071D01*
X47506571Y-54645357D01*
X47470857Y-54573928D01*
X47470857Y-54359642D01*
X47506571Y-54288214D01*
X47542285Y-54252500D01*
X47613714Y-54216785D01*
X47720857Y-54216785D01*
X47792285Y-54252500D01*
X47828000Y-54288214D01*
X47863714Y-54359642D01*
X47863714Y-54573928D01*
X47828000Y-54645357D01*
X47792285Y-54681071D01*
X47720857Y-54716785D01*
X47613714Y-54716785D01*
X48506571Y-54216785D02*
X48506571Y-54716785D01*
X48185142Y-54216785D02*
X48185142Y-54609642D01*
X48220857Y-54681071D01*
X48292285Y-54716785D01*
X48399428Y-54716785D01*
X48470857Y-54681071D01*
X48506571Y-54645357D01*
X48863714Y-54716785D02*
X48863714Y-53966785D01*
X48863714Y-54252500D02*
X48935142Y-54216785D01*
X49078000Y-54216785D01*
X49149428Y-54252500D01*
X49185142Y-54288214D01*
X49220857Y-54359642D01*
X49220857Y-54573928D01*
X49185142Y-54645357D01*
X49149428Y-54681071D01*
X49078000Y-54716785D01*
X48935142Y-54716785D01*
X48863714Y-54681071D01*
X49649428Y-54716785D02*
X49578000Y-54681071D01*
X49542285Y-54609642D01*
X49542285Y-53966785D01*
X50220857Y-54681071D02*
X50149428Y-54716785D01*
X50006571Y-54716785D01*
X49935142Y-54681071D01*
X49899428Y-54609642D01*
X49899428Y-54323928D01*
X49935142Y-54252500D01*
X50006571Y-54216785D01*
X50149428Y-54216785D01*
X50220857Y-54252500D01*
X50256571Y-54323928D01*
X50256571Y-54395357D01*
X49899428Y-54466785D01*
X51578000Y-54716785D02*
X51328000Y-54359642D01*
X51149428Y-54716785D02*
X51149428Y-53966785D01*
X51435142Y-53966785D01*
X51506571Y-54002500D01*
X51542285Y-54038214D01*
X51578000Y-54109642D01*
X51578000Y-54216785D01*
X51542285Y-54288214D01*
X51506571Y-54323928D01*
X51435142Y-54359642D01*
X51149428Y-54359642D01*
X52185142Y-54681071D02*
X52113714Y-54716785D01*
X51970857Y-54716785D01*
X51899428Y-54681071D01*
X51863714Y-54609642D01*
X51863714Y-54323928D01*
X51899428Y-54252500D01*
X51970857Y-54216785D01*
X52113714Y-54216785D01*
X52185142Y-54252500D01*
X52220857Y-54323928D01*
X52220857Y-54395357D01*
X51863714Y-54466785D01*
X52506571Y-54681071D02*
X52578000Y-54716785D01*
X52720857Y-54716785D01*
X52792285Y-54681071D01*
X52828000Y-54609642D01*
X52828000Y-54573928D01*
X52792285Y-54502500D01*
X52720857Y-54466785D01*
X52613714Y-54466785D01*
X52542285Y-54431071D01*
X52506571Y-54359642D01*
X52506571Y-54323928D01*
X52542285Y-54252500D01*
X52613714Y-54216785D01*
X52720857Y-54216785D01*
X52792285Y-54252500D01*
X53149428Y-54716785D02*
X53149428Y-54216785D01*
X53149428Y-53966785D02*
X53113714Y-54002500D01*
X53149428Y-54038214D01*
X53185142Y-54002500D01*
X53149428Y-53966785D01*
X53149428Y-54038214D01*
X53470857Y-54681071D02*
X53542285Y-54716785D01*
X53685142Y-54716785D01*
X53756571Y-54681071D01*
X53792285Y-54609642D01*
X53792285Y-54573928D01*
X53756571Y-54502500D01*
X53685142Y-54466785D01*
X53578000Y-54466785D01*
X53506571Y-54431071D01*
X53470857Y-54359642D01*
X53470857Y-54323928D01*
X53506571Y-54252500D01*
X53578000Y-54216785D01*
X53685142Y-54216785D01*
X53756571Y-54252500D01*
X54006571Y-54216785D02*
X54292285Y-54216785D01*
X54113714Y-53966785D02*
X54113714Y-54609642D01*
X54149428Y-54681071D01*
X54220857Y-54716785D01*
X54292285Y-54716785D01*
X54649428Y-54716785D02*
X54578000Y-54681071D01*
X54542285Y-54645357D01*
X54506571Y-54573928D01*
X54506571Y-54359642D01*
X54542285Y-54288214D01*
X54578000Y-54252500D01*
X54649428Y-54216785D01*
X54756571Y-54216785D01*
X54828000Y-54252500D01*
X54863714Y-54288214D01*
X54899428Y-54359642D01*
X54899428Y-54573928D01*
X54863714Y-54645357D01*
X54828000Y-54681071D01*
X54756571Y-54716785D01*
X54649428Y-54716785D01*
X55220857Y-54716785D02*
X55220857Y-54216785D01*
X55220857Y-54359642D02*
X55256571Y-54288214D01*
X55292285Y-54252500D01*
X55363714Y-54216785D01*
X55435142Y-54216785D01*
X47113714Y-55961785D02*
X46756571Y-55961785D01*
X46756571Y-55211785D01*
X47363714Y-55961785D02*
X47363714Y-55461785D01*
X47363714Y-55211785D02*
X47328000Y-55247500D01*
X47363714Y-55283214D01*
X47399428Y-55247500D01*
X47363714Y-55211785D01*
X47363714Y-55283214D01*
X47720857Y-55461785D02*
X47720857Y-55961785D01*
X47720857Y-55533214D02*
X47756571Y-55497500D01*
X47828000Y-55461785D01*
X47935142Y-55461785D01*
X48006571Y-55497500D01*
X48042285Y-55568928D01*
X48042285Y-55961785D01*
X48685142Y-55926071D02*
X48613714Y-55961785D01*
X48470857Y-55961785D01*
X48399428Y-55926071D01*
X48363714Y-55854642D01*
X48363714Y-55568928D01*
X48399428Y-55497500D01*
X48470857Y-55461785D01*
X48613714Y-55461785D01*
X48685142Y-55497500D01*
X48720857Y-55568928D01*
X48720857Y-55640357D01*
X48363714Y-55711785D01*
X49578000Y-55926071D02*
X49685142Y-55961785D01*
X49863714Y-55961785D01*
X49935142Y-55926071D01*
X49970857Y-55890357D01*
X50006571Y-55818928D01*
X50006571Y-55747500D01*
X49970857Y-55676071D01*
X49935142Y-55640357D01*
X49863714Y-55604642D01*
X49720857Y-55568928D01*
X49649428Y-55533214D01*
X49613714Y-55497500D01*
X49578000Y-55426071D01*
X49578000Y-55354642D01*
X49613714Y-55283214D01*
X49649428Y-55247500D01*
X49720857Y-55211785D01*
X49899428Y-55211785D01*
X50006571Y-55247500D01*
X50328000Y-55961785D02*
X50328000Y-55211785D01*
X50649428Y-55961785D02*
X50649428Y-55568928D01*
X50613714Y-55497500D01*
X50542285Y-55461785D01*
X50435142Y-55461785D01*
X50363714Y-55497500D01*
X50328000Y-55533214D01*
X51113714Y-55961785D02*
X51042285Y-55926071D01*
X51006571Y-55890357D01*
X50970857Y-55818928D01*
X50970857Y-55604642D01*
X51006571Y-55533214D01*
X51042285Y-55497500D01*
X51113714Y-55461785D01*
X51220857Y-55461785D01*
X51292285Y-55497500D01*
X51328000Y-55533214D01*
X51363714Y-55604642D01*
X51363714Y-55818928D01*
X51328000Y-55890357D01*
X51292285Y-55926071D01*
X51220857Y-55961785D01*
X51113714Y-55961785D01*
X51685142Y-55961785D02*
X51685142Y-55461785D01*
X51685142Y-55604642D02*
X51720857Y-55533214D01*
X51756571Y-55497500D01*
X51828000Y-55461785D01*
X51899428Y-55461785D01*
X52042285Y-55461785D02*
X52328000Y-55461785D01*
X52149428Y-55211785D02*
X52149428Y-55854642D01*
X52185142Y-55926071D01*
X52256571Y-55961785D01*
X52328000Y-55961785D01*
X53756571Y-55961785D02*
X53720857Y-55961785D01*
X53649428Y-55926071D01*
X53542285Y-55818928D01*
X53363714Y-55604642D01*
X53292285Y-55497500D01*
X53256571Y-55390357D01*
X53256571Y-55318928D01*
X53292285Y-55247500D01*
X53363714Y-55211785D01*
X53399428Y-55211785D01*
X53470857Y-55247500D01*
X53506571Y-55318928D01*
X53506571Y-55354642D01*
X53470857Y-55426071D01*
X53435142Y-55461785D01*
X53220857Y-55604642D01*
X53185142Y-55640357D01*
X53149428Y-55711785D01*
X53149428Y-55818928D01*
X53185142Y-55890357D01*
X53220857Y-55926071D01*
X53292285Y-55961785D01*
X53399428Y-55961785D01*
X53470857Y-55926071D01*
X53506571Y-55890357D01*
X53613714Y-55747500D01*
X53649428Y-55640357D01*
X53649428Y-55568928D01*
X55078000Y-55890357D02*
X55042285Y-55926071D01*
X54935142Y-55961785D01*
X54863714Y-55961785D01*
X54756571Y-55926071D01*
X54685142Y-55854642D01*
X54649428Y-55783214D01*
X54613714Y-55640357D01*
X54613714Y-55533214D01*
X54649428Y-55390357D01*
X54685142Y-55318928D01*
X54756571Y-55247500D01*
X54863714Y-55211785D01*
X54935142Y-55211785D01*
X55042285Y-55247500D01*
X55078000Y-55283214D01*
X55720857Y-55461785D02*
X55720857Y-55961785D01*
X55399428Y-55461785D02*
X55399428Y-55854642D01*
X55435142Y-55926071D01*
X55506571Y-55961785D01*
X55613714Y-55961785D01*
X55685142Y-55926071D01*
X55720857Y-55890357D01*
X55970857Y-55461785D02*
X56256571Y-55461785D01*
X56078000Y-55211785D02*
X56078000Y-55854642D01*
X56113714Y-55926071D01*
X56185142Y-55961785D01*
X56256571Y-55961785D01*
X35720857Y-54681071D02*
X35828000Y-54716785D01*
X36006571Y-54716785D01*
X36078000Y-54681071D01*
X36113714Y-54645357D01*
X36149428Y-54573928D01*
X36149428Y-54502500D01*
X36113714Y-54431071D01*
X36078000Y-54395357D01*
X36006571Y-54359642D01*
X35863714Y-54323928D01*
X35792285Y-54288214D01*
X35756571Y-54252500D01*
X35720857Y-54181071D01*
X35720857Y-54109642D01*
X35756571Y-54038214D01*
X35792285Y-54002500D01*
X35863714Y-53966785D01*
X36042285Y-53966785D01*
X36149428Y-54002500D01*
X36470857Y-54716785D02*
X36470857Y-54216785D01*
X36470857Y-53966785D02*
X36435142Y-54002500D01*
X36470857Y-54038214D01*
X36506571Y-54002500D01*
X36470857Y-53966785D01*
X36470857Y-54038214D01*
X36828000Y-54216785D02*
X36828000Y-54716785D01*
X36828000Y-54288214D02*
X36863714Y-54252500D01*
X36935142Y-54216785D01*
X37042285Y-54216785D01*
X37113714Y-54252500D01*
X37149428Y-54323928D01*
X37149428Y-54716785D01*
X37828000Y-54216785D02*
X37828000Y-54823928D01*
X37792285Y-54895357D01*
X37756571Y-54931071D01*
X37685142Y-54966785D01*
X37578000Y-54966785D01*
X37506571Y-54931071D01*
X37828000Y-54681071D02*
X37756571Y-54716785D01*
X37613714Y-54716785D01*
X37542285Y-54681071D01*
X37506571Y-54645357D01*
X37470857Y-54573928D01*
X37470857Y-54359642D01*
X37506571Y-54288214D01*
X37542285Y-54252500D01*
X37613714Y-54216785D01*
X37756571Y-54216785D01*
X37828000Y-54252500D01*
X38292285Y-54716785D02*
X38220857Y-54681071D01*
X38185142Y-54609642D01*
X38185142Y-53966785D01*
X38863714Y-54681071D02*
X38792285Y-54716785D01*
X38649428Y-54716785D01*
X38578000Y-54681071D01*
X38542285Y-54609642D01*
X38542285Y-54323928D01*
X38578000Y-54252500D01*
X38649428Y-54216785D01*
X38792285Y-54216785D01*
X38863714Y-54252500D01*
X38899428Y-54323928D01*
X38899428Y-54395357D01*
X38542285Y-54466785D01*
X40220857Y-54716785D02*
X39970857Y-54359642D01*
X39792285Y-54716785D02*
X39792285Y-53966785D01*
X40078000Y-53966785D01*
X40149428Y-54002500D01*
X40185142Y-54038214D01*
X40220857Y-54109642D01*
X40220857Y-54216785D01*
X40185142Y-54288214D01*
X40149428Y-54323928D01*
X40078000Y-54359642D01*
X39792285Y-54359642D01*
X40828000Y-54681071D02*
X40756571Y-54716785D01*
X40613714Y-54716785D01*
X40542285Y-54681071D01*
X40506571Y-54609642D01*
X40506571Y-54323928D01*
X40542285Y-54252500D01*
X40613714Y-54216785D01*
X40756571Y-54216785D01*
X40828000Y-54252500D01*
X40863714Y-54323928D01*
X40863714Y-54395357D01*
X40506571Y-54466785D01*
X41149428Y-54681071D02*
X41220857Y-54716785D01*
X41363714Y-54716785D01*
X41435142Y-54681071D01*
X41470857Y-54609642D01*
X41470857Y-54573928D01*
X41435142Y-54502500D01*
X41363714Y-54466785D01*
X41256571Y-54466785D01*
X41185142Y-54431071D01*
X41149428Y-54359642D01*
X41149428Y-54323928D01*
X41185142Y-54252500D01*
X41256571Y-54216785D01*
X41363714Y-54216785D01*
X41435142Y-54252500D01*
X41792285Y-54716785D02*
X41792285Y-54216785D01*
X41792285Y-53966785D02*
X41756571Y-54002500D01*
X41792285Y-54038214D01*
X41828000Y-54002500D01*
X41792285Y-53966785D01*
X41792285Y-54038214D01*
X42113714Y-54681071D02*
X42185142Y-54716785D01*
X42328000Y-54716785D01*
X42399428Y-54681071D01*
X42435142Y-54609642D01*
X42435142Y-54573928D01*
X42399428Y-54502500D01*
X42328000Y-54466785D01*
X42220857Y-54466785D01*
X42149428Y-54431071D01*
X42113714Y-54359642D01*
X42113714Y-54323928D01*
X42149428Y-54252500D01*
X42220857Y-54216785D01*
X42328000Y-54216785D01*
X42399428Y-54252500D01*
X42649428Y-54216785D02*
X42935142Y-54216785D01*
X42756571Y-53966785D02*
X42756571Y-54609642D01*
X42792285Y-54681071D01*
X42863714Y-54716785D01*
X42935142Y-54716785D01*
X43292285Y-54716785D02*
X43220857Y-54681071D01*
X43185142Y-54645357D01*
X43149428Y-54573928D01*
X43149428Y-54359642D01*
X43185142Y-54288214D01*
X43220857Y-54252500D01*
X43292285Y-54216785D01*
X43399428Y-54216785D01*
X43470857Y-54252500D01*
X43506571Y-54288214D01*
X43542285Y-54359642D01*
X43542285Y-54573928D01*
X43506571Y-54645357D01*
X43470857Y-54681071D01*
X43399428Y-54716785D01*
X43292285Y-54716785D01*
X43863714Y-54716785D02*
X43863714Y-54216785D01*
X43863714Y-54359642D02*
X43899428Y-54288214D01*
X43935142Y-54252500D01*
X44006571Y-54216785D01*
X44078000Y-54216785D01*
X36113714Y-55961785D02*
X35756571Y-55961785D01*
X35756571Y-55211785D01*
X36363714Y-55961785D02*
X36363714Y-55461785D01*
X36363714Y-55211785D02*
X36328000Y-55247500D01*
X36363714Y-55283214D01*
X36399428Y-55247500D01*
X36363714Y-55211785D01*
X36363714Y-55283214D01*
X36720857Y-55461785D02*
X36720857Y-55961785D01*
X36720857Y-55533214D02*
X36756571Y-55497500D01*
X36828000Y-55461785D01*
X36935142Y-55461785D01*
X37006571Y-55497500D01*
X37042285Y-55568928D01*
X37042285Y-55961785D01*
X37685142Y-55926071D02*
X37613714Y-55961785D01*
X37470857Y-55961785D01*
X37399428Y-55926071D01*
X37363714Y-55854642D01*
X37363714Y-55568928D01*
X37399428Y-55497500D01*
X37470857Y-55461785D01*
X37613714Y-55461785D01*
X37685142Y-55497500D01*
X37720857Y-55568928D01*
X37720857Y-55640357D01*
X37363714Y-55711785D01*
X39042285Y-55890357D02*
X39006571Y-55926071D01*
X38899428Y-55961785D01*
X38828000Y-55961785D01*
X38720857Y-55926071D01*
X38649428Y-55854642D01*
X38613714Y-55783214D01*
X38578000Y-55640357D01*
X38578000Y-55533214D01*
X38613714Y-55390357D01*
X38649428Y-55318928D01*
X38720857Y-55247500D01*
X38828000Y-55211785D01*
X38899428Y-55211785D01*
X39006571Y-55247500D01*
X39042285Y-55283214D01*
X39685142Y-55461785D02*
X39685142Y-55961785D01*
X39363714Y-55461785D02*
X39363714Y-55854642D01*
X39399428Y-55926071D01*
X39470857Y-55961785D01*
X39578000Y-55961785D01*
X39649428Y-55926071D01*
X39685142Y-55890357D01*
X39935142Y-55461785D02*
X40220857Y-55461785D01*
X40042285Y-55211785D02*
X40042285Y-55854642D01*
X40078000Y-55926071D01*
X40149428Y-55961785D01*
X40220857Y-55961785D01*
X24720857Y-54681071D02*
X24828000Y-54716785D01*
X25006571Y-54716785D01*
X25078000Y-54681071D01*
X25113714Y-54645357D01*
X25149428Y-54573928D01*
X25149428Y-54502500D01*
X25113714Y-54431071D01*
X25078000Y-54395357D01*
X25006571Y-54359642D01*
X24863714Y-54323928D01*
X24792285Y-54288214D01*
X24756571Y-54252500D01*
X24720857Y-54181071D01*
X24720857Y-54109642D01*
X24756571Y-54038214D01*
X24792285Y-54002500D01*
X24863714Y-53966785D01*
X25042285Y-53966785D01*
X25149428Y-54002500D01*
X25470857Y-54716785D02*
X25470857Y-54216785D01*
X25470857Y-53966785D02*
X25435142Y-54002500D01*
X25470857Y-54038214D01*
X25506571Y-54002500D01*
X25470857Y-53966785D01*
X25470857Y-54038214D01*
X25828000Y-54216785D02*
X25828000Y-54716785D01*
X25828000Y-54288214D02*
X25863714Y-54252500D01*
X25935142Y-54216785D01*
X26042285Y-54216785D01*
X26113714Y-54252500D01*
X26149428Y-54323928D01*
X26149428Y-54716785D01*
X26828000Y-54216785D02*
X26828000Y-54823928D01*
X26792285Y-54895357D01*
X26756571Y-54931071D01*
X26685142Y-54966785D01*
X26578000Y-54966785D01*
X26506571Y-54931071D01*
X26828000Y-54681071D02*
X26756571Y-54716785D01*
X26613714Y-54716785D01*
X26542285Y-54681071D01*
X26506571Y-54645357D01*
X26470857Y-54573928D01*
X26470857Y-54359642D01*
X26506571Y-54288214D01*
X26542285Y-54252500D01*
X26613714Y-54216785D01*
X26756571Y-54216785D01*
X26828000Y-54252500D01*
X27292285Y-54716785D02*
X27220857Y-54681071D01*
X27185142Y-54609642D01*
X27185142Y-53966785D01*
X27863714Y-54681071D02*
X27792285Y-54716785D01*
X27649428Y-54716785D01*
X27578000Y-54681071D01*
X27542285Y-54609642D01*
X27542285Y-54323928D01*
X27578000Y-54252500D01*
X27649428Y-54216785D01*
X27792285Y-54216785D01*
X27863714Y-54252500D01*
X27899428Y-54323928D01*
X27899428Y-54395357D01*
X27542285Y-54466785D01*
X29220857Y-54716785D02*
X28970857Y-54359642D01*
X28792285Y-54716785D02*
X28792285Y-53966785D01*
X29078000Y-53966785D01*
X29149428Y-54002500D01*
X29185142Y-54038214D01*
X29220857Y-54109642D01*
X29220857Y-54216785D01*
X29185142Y-54288214D01*
X29149428Y-54323928D01*
X29078000Y-54359642D01*
X28792285Y-54359642D01*
X29828000Y-54681071D02*
X29756571Y-54716785D01*
X29613714Y-54716785D01*
X29542285Y-54681071D01*
X29506571Y-54609642D01*
X29506571Y-54323928D01*
X29542285Y-54252500D01*
X29613714Y-54216785D01*
X29756571Y-54216785D01*
X29828000Y-54252500D01*
X29863714Y-54323928D01*
X29863714Y-54395357D01*
X29506571Y-54466785D01*
X30149428Y-54681071D02*
X30220857Y-54716785D01*
X30363714Y-54716785D01*
X30435142Y-54681071D01*
X30470857Y-54609642D01*
X30470857Y-54573928D01*
X30435142Y-54502500D01*
X30363714Y-54466785D01*
X30256571Y-54466785D01*
X30185142Y-54431071D01*
X30149428Y-54359642D01*
X30149428Y-54323928D01*
X30185142Y-54252500D01*
X30256571Y-54216785D01*
X30363714Y-54216785D01*
X30435142Y-54252500D01*
X30792285Y-54716785D02*
X30792285Y-54216785D01*
X30792285Y-53966785D02*
X30756571Y-54002500D01*
X30792285Y-54038214D01*
X30828000Y-54002500D01*
X30792285Y-53966785D01*
X30792285Y-54038214D01*
X31113714Y-54681071D02*
X31185142Y-54716785D01*
X31328000Y-54716785D01*
X31399428Y-54681071D01*
X31435142Y-54609642D01*
X31435142Y-54573928D01*
X31399428Y-54502500D01*
X31328000Y-54466785D01*
X31220857Y-54466785D01*
X31149428Y-54431071D01*
X31113714Y-54359642D01*
X31113714Y-54323928D01*
X31149428Y-54252500D01*
X31220857Y-54216785D01*
X31328000Y-54216785D01*
X31399428Y-54252500D01*
X31649428Y-54216785D02*
X31935142Y-54216785D01*
X31756571Y-53966785D02*
X31756571Y-54609642D01*
X31792285Y-54681071D01*
X31863714Y-54716785D01*
X31935142Y-54716785D01*
X32292285Y-54716785D02*
X32220857Y-54681071D01*
X32185142Y-54645357D01*
X32149428Y-54573928D01*
X32149428Y-54359642D01*
X32185142Y-54288214D01*
X32220857Y-54252500D01*
X32292285Y-54216785D01*
X32399428Y-54216785D01*
X32470857Y-54252500D01*
X32506571Y-54288214D01*
X32542285Y-54359642D01*
X32542285Y-54573928D01*
X32506571Y-54645357D01*
X32470857Y-54681071D01*
X32399428Y-54716785D01*
X32292285Y-54716785D01*
X32863714Y-54716785D02*
X32863714Y-54216785D01*
X32863714Y-54359642D02*
X32899428Y-54288214D01*
X32935142Y-54252500D01*
X33006571Y-54216785D01*
X33078000Y-54216785D01*
X25113714Y-55961785D02*
X24756571Y-55961785D01*
X24756571Y-55211785D01*
X25363714Y-55961785D02*
X25363714Y-55461785D01*
X25363714Y-55211785D02*
X25328000Y-55247500D01*
X25363714Y-55283214D01*
X25399428Y-55247500D01*
X25363714Y-55211785D01*
X25363714Y-55283214D01*
X25720857Y-55461785D02*
X25720857Y-55961785D01*
X25720857Y-55533214D02*
X25756571Y-55497500D01*
X25828000Y-55461785D01*
X25935142Y-55461785D01*
X26006571Y-55497500D01*
X26042285Y-55568928D01*
X26042285Y-55961785D01*
X26685142Y-55926071D02*
X26613714Y-55961785D01*
X26470857Y-55961785D01*
X26399428Y-55926071D01*
X26363714Y-55854642D01*
X26363714Y-55568928D01*
X26399428Y-55497500D01*
X26470857Y-55461785D01*
X26613714Y-55461785D01*
X26685142Y-55497500D01*
X26720857Y-55568928D01*
X26720857Y-55640357D01*
X26363714Y-55711785D01*
X27578000Y-55926071D02*
X27685142Y-55961785D01*
X27863714Y-55961785D01*
X27935142Y-55926071D01*
X27970857Y-55890357D01*
X28006571Y-55818928D01*
X28006571Y-55747500D01*
X27970857Y-55676071D01*
X27935142Y-55640357D01*
X27863714Y-55604642D01*
X27720857Y-55568928D01*
X27649428Y-55533214D01*
X27613714Y-55497500D01*
X27578000Y-55426071D01*
X27578000Y-55354642D01*
X27613714Y-55283214D01*
X27649428Y-55247500D01*
X27720857Y-55211785D01*
X27899428Y-55211785D01*
X28006571Y-55247500D01*
X28328000Y-55961785D02*
X28328000Y-55211785D01*
X28649428Y-55961785D02*
X28649428Y-55568928D01*
X28613714Y-55497500D01*
X28542285Y-55461785D01*
X28435142Y-55461785D01*
X28363714Y-55497500D01*
X28328000Y-55533214D01*
X29113714Y-55961785D02*
X29042285Y-55926071D01*
X29006571Y-55890357D01*
X28970857Y-55818928D01*
X28970857Y-55604642D01*
X29006571Y-55533214D01*
X29042285Y-55497500D01*
X29113714Y-55461785D01*
X29220857Y-55461785D01*
X29292285Y-55497500D01*
X29328000Y-55533214D01*
X29363714Y-55604642D01*
X29363714Y-55818928D01*
X29328000Y-55890357D01*
X29292285Y-55926071D01*
X29220857Y-55961785D01*
X29113714Y-55961785D01*
X29685142Y-55961785D02*
X29685142Y-55461785D01*
X29685142Y-55604642D02*
X29720857Y-55533214D01*
X29756571Y-55497500D01*
X29828000Y-55461785D01*
X29899428Y-55461785D01*
X30042285Y-55461785D02*
X30328000Y-55461785D01*
X30149428Y-55211785D02*
X30149428Y-55854642D01*
X30185142Y-55926071D01*
X30256571Y-55961785D01*
X30328000Y-55961785D01*
X45000000Y-35500000D02*
X45000000Y-37500000D01*
X45000000Y-45500000D02*
X45000000Y-47500000D01*
X45000000Y-43000000D02*
X45000000Y-45000000D01*
X45000000Y-33000000D02*
X45000000Y-35000000D01*
X45000000Y-30500000D02*
X45000000Y-32500000D01*
X45000000Y-40500000D02*
X45000000Y-42500000D01*
X45000000Y-48000000D02*
X45000000Y-50000000D01*
X45000000Y-28000000D02*
X45000000Y-30000000D01*
X45000000Y-38000000D02*
X45000000Y-40000000D01*
X45000000Y-23000000D02*
X45000000Y-25000000D01*
X34000000Y-48000000D02*
X34000000Y-50000000D01*
X34000000Y-45500000D02*
X34000000Y-47500000D01*
X34000000Y-43000000D02*
X34000000Y-45000000D01*
X34000000Y-40500000D02*
X34000000Y-42500000D01*
X34000000Y-38000000D02*
X34000000Y-40000000D01*
X34000000Y-35500000D02*
X34000000Y-37500000D01*
X34000000Y-33000000D02*
X34000000Y-35000000D01*
X34000000Y-30500000D02*
X34000000Y-32500000D01*
X34000000Y-28000000D02*
X34000000Y-30000000D01*
X34000000Y-23000000D02*
X34000000Y-25000000D01*
D10*
X58071428Y-34119047D02*
X58928571Y-34119047D01*
X49071428Y-34119047D02*
X49928571Y-34119047D01*
X38071428Y-34119047D02*
X38928571Y-34119047D01*
X27071428Y-34119047D02*
X27928571Y-34119047D01*
D12*
%TO.C,kibuzzard-62361049*%
G36*
X51475237Y-51686935D02*
G01*
X51674028Y-52222584D01*
X51726151Y-52208297D01*
X51778450Y-52203534D01*
X51816054Y-52206412D01*
X51854253Y-52215044D01*
X51912594Y-52238459D01*
X51931644Y-52249572D01*
X51953869Y-52263859D01*
X51974506Y-52301562D01*
X51957837Y-52345616D01*
X51928469Y-52377762D01*
X51902275Y-52388478D01*
X51861794Y-52371016D01*
X51822900Y-52350775D01*
X51772894Y-52344028D01*
X52026100Y-52720266D01*
X52026100Y-52278941D01*
X52027291Y-52251556D01*
X52034831Y-52230522D01*
X52055866Y-52214448D01*
X52096744Y-52209091D01*
X52140995Y-52216433D01*
X52162625Y-52238459D01*
X52166594Y-52279734D01*
X52166594Y-52673434D01*
X52486078Y-52441362D01*
X52503937Y-52381731D01*
X52531719Y-52328848D01*
X52567437Y-52285291D01*
X52610102Y-52250564D01*
X52658719Y-52224172D01*
X52711106Y-52207503D01*
X52765081Y-52201947D01*
X52821884Y-52207255D01*
X52874817Y-52223180D01*
X52923881Y-52249721D01*
X52969075Y-52286878D01*
X53006927Y-52331899D01*
X53033964Y-52382029D01*
X53050186Y-52437269D01*
X53055594Y-52497619D01*
X53050434Y-52558192D01*
X53034956Y-52614102D01*
X53009159Y-52665348D01*
X52973044Y-52711931D01*
X52929388Y-52750651D01*
X53115919Y-52709153D01*
X53095281Y-52663513D01*
X53103814Y-52639998D01*
X53129413Y-52609934D01*
X53171481Y-52590884D01*
X53198072Y-52600806D01*
X53233394Y-52630572D01*
X53265144Y-52656369D01*
X53303244Y-52668672D01*
X53344254Y-52661969D01*
X53368860Y-52641861D01*
X53377063Y-52608347D01*
X53356822Y-52577788D01*
X53306419Y-52559928D01*
X53275066Y-52552685D01*
X53241331Y-52542069D01*
X53207597Y-52528674D01*
X53176244Y-52513097D01*
X53148562Y-52491566D01*
X53125841Y-52460312D01*
X53110660Y-52420526D01*
X53105600Y-52373397D01*
X53111377Y-52328815D01*
X53128707Y-52288201D01*
X53157591Y-52251556D01*
X53196440Y-52222673D01*
X53243668Y-52205342D01*
X53299275Y-52199566D01*
X53344816Y-52202641D01*
X53386191Y-52211869D01*
X53440563Y-52236872D01*
X53460406Y-52251953D01*
X53485013Y-52290847D01*
X53465963Y-52334503D01*
X53438578Y-52364269D01*
X53410400Y-52374191D01*
X53369125Y-52358316D01*
X53359997Y-52350378D01*
X53347694Y-52340059D01*
X53305228Y-52329741D01*
X53262366Y-52342044D01*
X53245300Y-52376175D01*
X53265541Y-52411497D01*
X53315944Y-52429753D01*
X53347495Y-52435805D01*
X53381825Y-52444437D01*
X53416155Y-52455451D01*
X53447706Y-52468647D01*
X53475388Y-52488193D01*
X53498109Y-52518256D01*
X53513290Y-52557646D01*
X53518350Y-52605172D01*
X53513191Y-52653690D01*
X53497713Y-52696056D01*
X53569944Y-52720266D01*
X53569944Y-52278941D01*
X53585025Y-52223775D01*
X53642175Y-52209091D01*
X53954913Y-52209091D01*
X53982297Y-52210281D01*
X54003331Y-52217822D01*
X54019405Y-52238856D01*
X54024763Y-52279734D01*
X54017420Y-52323787D01*
X53995394Y-52344822D01*
X53954119Y-52349584D01*
X53710438Y-52349584D01*
X53710438Y-52429753D01*
X53867600Y-52429753D01*
X53894984Y-52430944D01*
X53916019Y-52438484D01*
X53932092Y-52459519D01*
X53937450Y-52500397D01*
X53929909Y-52544450D01*
X53907288Y-52565484D01*
X53866013Y-52570247D01*
X53710438Y-52570247D01*
X53710438Y-52650416D01*
X53954913Y-52650416D01*
X53982297Y-52651606D01*
X54003331Y-52659147D01*
X54019405Y-52680181D01*
X54024763Y-52721059D01*
X54017420Y-52765113D01*
X53995394Y-52786147D01*
X53954119Y-52790909D01*
X53639794Y-52790909D01*
X53595741Y-52783369D01*
X53574706Y-52760747D01*
X53569944Y-52720266D01*
X53497713Y-52696056D01*
X53473900Y-52730882D01*
X53443738Y-52756778D01*
X53399905Y-52780150D01*
X53354132Y-52794173D01*
X53306419Y-52798847D01*
X53270105Y-52796565D01*
X53235775Y-52789719D01*
X53181800Y-52767097D01*
X53146081Y-52742094D01*
X53123063Y-52717884D01*
X53115919Y-52709153D01*
X52929388Y-52750651D01*
X52880969Y-52778309D01*
X52827788Y-52794903D01*
X52769844Y-52800434D01*
X52711776Y-52794977D01*
X52658223Y-52778606D01*
X52609184Y-52751321D01*
X52564659Y-52713122D01*
X52527676Y-52667382D01*
X52501259Y-52617475D01*
X52485408Y-52563401D01*
X52480125Y-52505159D01*
X52486078Y-52441362D01*
X52166594Y-52673434D01*
X52382494Y-52673434D01*
X52420594Y-52679388D01*
X52436469Y-52698041D01*
X52440437Y-52731775D01*
X52436469Y-52765509D01*
X52422975Y-52782972D01*
X52381700Y-52790909D01*
X52095950Y-52790909D01*
X52051897Y-52783369D01*
X52030862Y-52760747D01*
X52026100Y-52720266D01*
X51772894Y-52344028D01*
X51721697Y-52352958D01*
X51671294Y-52379747D01*
X51631606Y-52428959D01*
X51619700Y-52462793D01*
X51615731Y-52500794D01*
X51619700Y-52538795D01*
X51631606Y-52572628D01*
X51672087Y-52622634D01*
X51721498Y-52648828D01*
X51772894Y-52657559D01*
X51819328Y-52651209D01*
X51850681Y-52638509D01*
X51864969Y-52628191D01*
X51903069Y-52612316D01*
X51928667Y-52623428D01*
X51956250Y-52656766D01*
X51973712Y-52701216D01*
X51962997Y-52728997D01*
X51937994Y-52748841D01*
X51910609Y-52765509D01*
X51857031Y-52786147D01*
X51817245Y-52795672D01*
X51778847Y-52798847D01*
X51740945Y-52796366D01*
X51702647Y-52788925D01*
X51663555Y-52775630D01*
X51623272Y-52755588D01*
X51584477Y-52729592D01*
X51549850Y-52698438D01*
X51520184Y-52659941D01*
X51496272Y-52611919D01*
X51480496Y-52556852D01*
X51475237Y-52497222D01*
X51480397Y-52438187D01*
X51495875Y-52384906D01*
X51519390Y-52338869D01*
X51548659Y-52301562D01*
X51583088Y-52271301D01*
X51622081Y-52246397D01*
X51674028Y-52222584D01*
X51475237Y-51686935D01*
X50962607Y-51686935D01*
X50962607Y-53313065D01*
X51475237Y-53313065D01*
X54024763Y-53313065D01*
X54537393Y-53313065D01*
X54537393Y-51686935D01*
X54024763Y-51686935D01*
X51475237Y-51686935D01*
G37*
G36*
X52620619Y-52501191D02*
G01*
X52625690Y-52545332D01*
X52640903Y-52583564D01*
X52666259Y-52615888D01*
X52714579Y-52648927D01*
X52768256Y-52659941D01*
X52821834Y-52649225D01*
X52869856Y-52617078D01*
X52894992Y-52585240D01*
X52910073Y-52546875D01*
X52915100Y-52501984D01*
X52910029Y-52457005D01*
X52894815Y-52418376D01*
X52869459Y-52386097D01*
X52821140Y-52353355D01*
X52767463Y-52342441D01*
X52713884Y-52353454D01*
X52665862Y-52386494D01*
X52640727Y-52418817D01*
X52625646Y-52457049D01*
X52620619Y-52501191D01*
G37*
G36*
X41620619Y-52501191D02*
G01*
X41625690Y-52545332D01*
X41640903Y-52583564D01*
X41666259Y-52615888D01*
X41714579Y-52648927D01*
X41768256Y-52659941D01*
X41821834Y-52649225D01*
X41869856Y-52617078D01*
X41894992Y-52585240D01*
X41910073Y-52546875D01*
X41915100Y-52501984D01*
X41910029Y-52457005D01*
X41894815Y-52418376D01*
X41869459Y-52386097D01*
X41821140Y-52353355D01*
X41767463Y-52342441D01*
X41713884Y-52353454D01*
X41665862Y-52386494D01*
X41640727Y-52418817D01*
X41625646Y-52457049D01*
X41620619Y-52501191D01*
G37*
G36*
X40475237Y-51686935D02*
G01*
X40674028Y-52222584D01*
X40726151Y-52208297D01*
X40778450Y-52203534D01*
X40816054Y-52206412D01*
X40854253Y-52215044D01*
X40912594Y-52238459D01*
X40931644Y-52249572D01*
X40953869Y-52263859D01*
X40974506Y-52301562D01*
X40957837Y-52345616D01*
X40928469Y-52377762D01*
X40902275Y-52388478D01*
X40861794Y-52371016D01*
X40822900Y-52350775D01*
X40772894Y-52344028D01*
X41026100Y-52720266D01*
X41026100Y-52278941D01*
X41027291Y-52251556D01*
X41034831Y-52230522D01*
X41055866Y-52214448D01*
X41096744Y-52209091D01*
X41140995Y-52216433D01*
X41162625Y-52238459D01*
X41166594Y-52279734D01*
X41166594Y-52673434D01*
X41486078Y-52441362D01*
X41503937Y-52381731D01*
X41531719Y-52328848D01*
X41567437Y-52285291D01*
X41610102Y-52250564D01*
X41658719Y-52224172D01*
X41711106Y-52207503D01*
X41765081Y-52201947D01*
X41821884Y-52207255D01*
X41874817Y-52223180D01*
X41923881Y-52249721D01*
X41969075Y-52286878D01*
X42006927Y-52331899D01*
X42033964Y-52382029D01*
X42050186Y-52437269D01*
X42055594Y-52497619D01*
X42050434Y-52558192D01*
X42034956Y-52614102D01*
X42009159Y-52665348D01*
X41973044Y-52711931D01*
X41929388Y-52750651D01*
X42115919Y-52709153D01*
X42095281Y-52663513D01*
X42103814Y-52639998D01*
X42129413Y-52609934D01*
X42171481Y-52590884D01*
X42198072Y-52600806D01*
X42233394Y-52630572D01*
X42265144Y-52656369D01*
X42303244Y-52668672D01*
X42344254Y-52661969D01*
X42368860Y-52641861D01*
X42377063Y-52608347D01*
X42356822Y-52577788D01*
X42306419Y-52559928D01*
X42275066Y-52552685D01*
X42241331Y-52542069D01*
X42207597Y-52528674D01*
X42176244Y-52513097D01*
X42148562Y-52491566D01*
X42125841Y-52460312D01*
X42110660Y-52420526D01*
X42105600Y-52373397D01*
X42111377Y-52328815D01*
X42128707Y-52288201D01*
X42157591Y-52251556D01*
X42196440Y-52222673D01*
X42243668Y-52205342D01*
X42299275Y-52199566D01*
X42344816Y-52202641D01*
X42386191Y-52211869D01*
X42440563Y-52236872D01*
X42460406Y-52251953D01*
X42485013Y-52290847D01*
X42465963Y-52334503D01*
X42438578Y-52364269D01*
X42410400Y-52374191D01*
X42369125Y-52358316D01*
X42359997Y-52350378D01*
X42347694Y-52340059D01*
X42305228Y-52329741D01*
X42262366Y-52342044D01*
X42245300Y-52376175D01*
X42265541Y-52411497D01*
X42315944Y-52429753D01*
X42347495Y-52435805D01*
X42381825Y-52444437D01*
X42416155Y-52455451D01*
X42447706Y-52468647D01*
X42475388Y-52488193D01*
X42498109Y-52518256D01*
X42513290Y-52557646D01*
X42518350Y-52605172D01*
X42513191Y-52653690D01*
X42497713Y-52696056D01*
X42569944Y-52720266D01*
X42569944Y-52278941D01*
X42585025Y-52223775D01*
X42642175Y-52209091D01*
X42954913Y-52209091D01*
X42982297Y-52210281D01*
X43003331Y-52217822D01*
X43019405Y-52238856D01*
X43024763Y-52279734D01*
X43017420Y-52323787D01*
X42995394Y-52344822D01*
X42954119Y-52349584D01*
X42710438Y-52349584D01*
X42710438Y-52429753D01*
X42867600Y-52429753D01*
X42894984Y-52430944D01*
X42916019Y-52438484D01*
X42932092Y-52459519D01*
X42937450Y-52500397D01*
X42929909Y-52544450D01*
X42907288Y-52565484D01*
X42866013Y-52570247D01*
X42710438Y-52570247D01*
X42710438Y-52650416D01*
X42954913Y-52650416D01*
X42982297Y-52651606D01*
X43003331Y-52659147D01*
X43019405Y-52680181D01*
X43024763Y-52721059D01*
X43017420Y-52765113D01*
X42995394Y-52786147D01*
X42954119Y-52790909D01*
X42639794Y-52790909D01*
X42595741Y-52783369D01*
X42574706Y-52760747D01*
X42569944Y-52720266D01*
X42497713Y-52696056D01*
X42473900Y-52730882D01*
X42443738Y-52756778D01*
X42399905Y-52780150D01*
X42354132Y-52794173D01*
X42306419Y-52798847D01*
X42270105Y-52796565D01*
X42235775Y-52789719D01*
X42181800Y-52767097D01*
X42146081Y-52742094D01*
X42123063Y-52717884D01*
X42115919Y-52709153D01*
X41929388Y-52750651D01*
X41880969Y-52778309D01*
X41827788Y-52794903D01*
X41769844Y-52800434D01*
X41711776Y-52794977D01*
X41658223Y-52778606D01*
X41609184Y-52751321D01*
X41564659Y-52713122D01*
X41527676Y-52667382D01*
X41501259Y-52617475D01*
X41485408Y-52563401D01*
X41480125Y-52505159D01*
X41486078Y-52441362D01*
X41166594Y-52673434D01*
X41382494Y-52673434D01*
X41420594Y-52679388D01*
X41436469Y-52698041D01*
X41440437Y-52731775D01*
X41436469Y-52765509D01*
X41422975Y-52782972D01*
X41381700Y-52790909D01*
X41095950Y-52790909D01*
X41051897Y-52783369D01*
X41030862Y-52760747D01*
X41026100Y-52720266D01*
X40772894Y-52344028D01*
X40721697Y-52352958D01*
X40671294Y-52379747D01*
X40631606Y-52428959D01*
X40619700Y-52462793D01*
X40615731Y-52500794D01*
X40619700Y-52538795D01*
X40631606Y-52572628D01*
X40672087Y-52622634D01*
X40721498Y-52648828D01*
X40772894Y-52657559D01*
X40819328Y-52651209D01*
X40850681Y-52638509D01*
X40864969Y-52628191D01*
X40903069Y-52612316D01*
X40928667Y-52623428D01*
X40956250Y-52656766D01*
X40973712Y-52701216D01*
X40962997Y-52728997D01*
X40937994Y-52748841D01*
X40910609Y-52765509D01*
X40857031Y-52786147D01*
X40817245Y-52795672D01*
X40778847Y-52798847D01*
X40740945Y-52796366D01*
X40702647Y-52788925D01*
X40663555Y-52775630D01*
X40623272Y-52755588D01*
X40584477Y-52729592D01*
X40549850Y-52698438D01*
X40520184Y-52659941D01*
X40496272Y-52611919D01*
X40480496Y-52556852D01*
X40475237Y-52497222D01*
X40480397Y-52438187D01*
X40495875Y-52384906D01*
X40519390Y-52338869D01*
X40548659Y-52301562D01*
X40583088Y-52271301D01*
X40622081Y-52246397D01*
X40674028Y-52222584D01*
X40475237Y-51686935D01*
X39962607Y-51686935D01*
X39962607Y-53313065D01*
X40475237Y-53313065D01*
X43024763Y-53313065D01*
X43537393Y-53313065D01*
X43537393Y-51686935D01*
X43024763Y-51686935D01*
X40475237Y-51686935D01*
G37*
G36*
X29475237Y-51686935D02*
G01*
X29674028Y-52222584D01*
X29726151Y-52208297D01*
X29778450Y-52203534D01*
X29816054Y-52206412D01*
X29854253Y-52215044D01*
X29912594Y-52238459D01*
X29931644Y-52249572D01*
X29953869Y-52263859D01*
X29974506Y-52301562D01*
X29957837Y-52345616D01*
X29928469Y-52377762D01*
X29902275Y-52388478D01*
X29861794Y-52371016D01*
X29822900Y-52350775D01*
X29772894Y-52344028D01*
X30026100Y-52720266D01*
X30026100Y-52278941D01*
X30027291Y-52251556D01*
X30034831Y-52230522D01*
X30055866Y-52214448D01*
X30096744Y-52209091D01*
X30140995Y-52216433D01*
X30162625Y-52238459D01*
X30166594Y-52279734D01*
X30166594Y-52673434D01*
X30486078Y-52441362D01*
X30503937Y-52381731D01*
X30531719Y-52328848D01*
X30567437Y-52285291D01*
X30610102Y-52250564D01*
X30658719Y-52224172D01*
X30711106Y-52207503D01*
X30765081Y-52201947D01*
X30821884Y-52207255D01*
X30874817Y-52223180D01*
X30923881Y-52249721D01*
X30969075Y-52286878D01*
X31006927Y-52331899D01*
X31033964Y-52382029D01*
X31050186Y-52437269D01*
X31055594Y-52497619D01*
X31050434Y-52558192D01*
X31034956Y-52614102D01*
X31009159Y-52665348D01*
X30973044Y-52711931D01*
X30929388Y-52750651D01*
X31115919Y-52709153D01*
X31095281Y-52663513D01*
X31103814Y-52639998D01*
X31129413Y-52609934D01*
X31171481Y-52590884D01*
X31198072Y-52600806D01*
X31233394Y-52630572D01*
X31265144Y-52656369D01*
X31303244Y-52668672D01*
X31344254Y-52661969D01*
X31368860Y-52641861D01*
X31377063Y-52608347D01*
X31356822Y-52577788D01*
X31306419Y-52559928D01*
X31275066Y-52552685D01*
X31241331Y-52542069D01*
X31207597Y-52528674D01*
X31176244Y-52513097D01*
X31148562Y-52491566D01*
X31125841Y-52460312D01*
X31110660Y-52420526D01*
X31105600Y-52373397D01*
X31111377Y-52328815D01*
X31128707Y-52288201D01*
X31157591Y-52251556D01*
X31196440Y-52222673D01*
X31243668Y-52205342D01*
X31299275Y-52199566D01*
X31344816Y-52202641D01*
X31386191Y-52211869D01*
X31440563Y-52236872D01*
X31460406Y-52251953D01*
X31485013Y-52290847D01*
X31465963Y-52334503D01*
X31438578Y-52364269D01*
X31410400Y-52374191D01*
X31369125Y-52358316D01*
X31359997Y-52350378D01*
X31347694Y-52340059D01*
X31305228Y-52329741D01*
X31262366Y-52342044D01*
X31245300Y-52376175D01*
X31265541Y-52411497D01*
X31315944Y-52429753D01*
X31347495Y-52435805D01*
X31381825Y-52444437D01*
X31416155Y-52455451D01*
X31447706Y-52468647D01*
X31475388Y-52488193D01*
X31498109Y-52518256D01*
X31513290Y-52557646D01*
X31518350Y-52605172D01*
X31513191Y-52653690D01*
X31497713Y-52696056D01*
X31569944Y-52720266D01*
X31569944Y-52278941D01*
X31585025Y-52223775D01*
X31642175Y-52209091D01*
X31954913Y-52209091D01*
X31982297Y-52210281D01*
X32003331Y-52217822D01*
X32019405Y-52238856D01*
X32024763Y-52279734D01*
X32017420Y-52323787D01*
X31995394Y-52344822D01*
X31954119Y-52349584D01*
X31710438Y-52349584D01*
X31710438Y-52429753D01*
X31867600Y-52429753D01*
X31894984Y-52430944D01*
X31916019Y-52438484D01*
X31932092Y-52459519D01*
X31937450Y-52500397D01*
X31929909Y-52544450D01*
X31907288Y-52565484D01*
X31866013Y-52570247D01*
X31710438Y-52570247D01*
X31710438Y-52650416D01*
X31954913Y-52650416D01*
X31982297Y-52651606D01*
X32003331Y-52659147D01*
X32019405Y-52680181D01*
X32024763Y-52721059D01*
X32017420Y-52765113D01*
X31995394Y-52786147D01*
X31954119Y-52790909D01*
X31639794Y-52790909D01*
X31595741Y-52783369D01*
X31574706Y-52760747D01*
X31569944Y-52720266D01*
X31497713Y-52696056D01*
X31473900Y-52730882D01*
X31443738Y-52756778D01*
X31399905Y-52780150D01*
X31354132Y-52794173D01*
X31306419Y-52798847D01*
X31270105Y-52796565D01*
X31235775Y-52789719D01*
X31181800Y-52767097D01*
X31146081Y-52742094D01*
X31123063Y-52717884D01*
X31115919Y-52709153D01*
X30929388Y-52750651D01*
X30880969Y-52778309D01*
X30827788Y-52794903D01*
X30769844Y-52800434D01*
X30711776Y-52794977D01*
X30658223Y-52778606D01*
X30609184Y-52751321D01*
X30564659Y-52713122D01*
X30527676Y-52667382D01*
X30501259Y-52617475D01*
X30485408Y-52563401D01*
X30480125Y-52505159D01*
X30486078Y-52441362D01*
X30166594Y-52673434D01*
X30382494Y-52673434D01*
X30420594Y-52679388D01*
X30436469Y-52698041D01*
X30440437Y-52731775D01*
X30436469Y-52765509D01*
X30422975Y-52782972D01*
X30381700Y-52790909D01*
X30095950Y-52790909D01*
X30051897Y-52783369D01*
X30030862Y-52760747D01*
X30026100Y-52720266D01*
X29772894Y-52344028D01*
X29721697Y-52352958D01*
X29671294Y-52379747D01*
X29631606Y-52428959D01*
X29619700Y-52462793D01*
X29615731Y-52500794D01*
X29619700Y-52538795D01*
X29631606Y-52572628D01*
X29672087Y-52622634D01*
X29721498Y-52648828D01*
X29772894Y-52657559D01*
X29819328Y-52651209D01*
X29850681Y-52638509D01*
X29864969Y-52628191D01*
X29903069Y-52612316D01*
X29928667Y-52623428D01*
X29956250Y-52656766D01*
X29973712Y-52701216D01*
X29962997Y-52728997D01*
X29937994Y-52748841D01*
X29910609Y-52765509D01*
X29857031Y-52786147D01*
X29817245Y-52795672D01*
X29778847Y-52798847D01*
X29740945Y-52796366D01*
X29702647Y-52788925D01*
X29663555Y-52775630D01*
X29623272Y-52755588D01*
X29584477Y-52729592D01*
X29549850Y-52698438D01*
X29520184Y-52659941D01*
X29496272Y-52611919D01*
X29480496Y-52556852D01*
X29475237Y-52497222D01*
X29480397Y-52438187D01*
X29495875Y-52384906D01*
X29519390Y-52338869D01*
X29548659Y-52301562D01*
X29583088Y-52271301D01*
X29622081Y-52246397D01*
X29674028Y-52222584D01*
X29475237Y-51686935D01*
X28962607Y-51686935D01*
X28962607Y-53313065D01*
X29475237Y-53313065D01*
X32024763Y-53313065D01*
X32537393Y-53313065D01*
X32537393Y-51686935D01*
X32024763Y-51686935D01*
X29475237Y-51686935D01*
G37*
G36*
X30620619Y-52501191D02*
G01*
X30625690Y-52545332D01*
X30640903Y-52583564D01*
X30666259Y-52615888D01*
X30714579Y-52648927D01*
X30768256Y-52659941D01*
X30821834Y-52649225D01*
X30869856Y-52617078D01*
X30894992Y-52585240D01*
X30910073Y-52546875D01*
X30915100Y-52501984D01*
X30910029Y-52457005D01*
X30894815Y-52418376D01*
X30869459Y-52386097D01*
X30821140Y-52353355D01*
X30767463Y-52342441D01*
X30713884Y-52353454D01*
X30665862Y-52386494D01*
X30640727Y-52418817D01*
X30625646Y-52457049D01*
X30620619Y-52501191D01*
G37*
%TO.C,kibuzzard-62361022*%
G36*
X46978437Y-51688126D02*
G01*
X47263394Y-52200756D01*
X47320196Y-52206064D01*
X47373130Y-52221989D01*
X47422193Y-52248530D01*
X47467387Y-52285687D01*
X47505239Y-52330708D01*
X47532277Y-52380838D01*
X47548499Y-52436078D01*
X47553906Y-52496428D01*
X47548747Y-52557001D01*
X47533269Y-52612911D01*
X47507472Y-52664157D01*
X47471356Y-52710741D01*
X47427700Y-52749461D01*
X47379281Y-52777118D01*
X47326100Y-52793712D01*
X47268156Y-52799244D01*
X47210088Y-52793787D01*
X47156535Y-52777416D01*
X47107496Y-52750130D01*
X47062972Y-52711931D01*
X47025988Y-52666191D01*
X46999571Y-52616284D01*
X46983721Y-52562210D01*
X46978437Y-52503969D01*
X46984391Y-52440171D01*
X47002250Y-52380541D01*
X47030031Y-52327657D01*
X47065750Y-52284100D01*
X47108414Y-52249373D01*
X47157031Y-52222981D01*
X47209419Y-52206312D01*
X47263394Y-52200756D01*
X46978437Y-51688126D01*
X46465807Y-51688126D01*
X46465807Y-53311874D01*
X47605500Y-52718281D01*
X47605500Y-52277750D01*
X47606691Y-52250366D01*
X47614231Y-52229331D01*
X47635266Y-52213258D01*
X47676144Y-52207900D01*
X47846006Y-52207900D01*
X47892132Y-52213544D01*
X47937376Y-52230478D01*
X47981737Y-52258700D01*
X48011305Y-52287672D01*
X48034919Y-52325375D01*
X48050397Y-52369825D01*
X48055556Y-52419037D01*
X48050397Y-52468151D01*
X48034919Y-52512303D01*
X48011305Y-52549709D01*
X47981737Y-52578581D01*
X47937287Y-52606803D01*
X47891779Y-52623737D01*
X47845212Y-52629381D01*
X47745994Y-52629381D01*
X47745994Y-52719075D01*
X47744803Y-52746459D01*
X47737262Y-52767494D01*
X47716228Y-52783567D01*
X47675350Y-52788925D01*
X47631297Y-52781583D01*
X47610262Y-52759556D01*
X47605500Y-52718281D01*
X46465807Y-53311874D01*
X46978437Y-53311874D01*
X48111913Y-52759556D01*
X48107150Y-52719075D01*
X48107150Y-52277750D01*
X48122231Y-52222584D01*
X48179381Y-52207900D01*
X48492119Y-52207900D01*
X48519503Y-52209091D01*
X48540538Y-52216631D01*
X48556611Y-52237666D01*
X48561969Y-52278544D01*
X48554627Y-52322597D01*
X48532600Y-52343631D01*
X48491325Y-52348394D01*
X48247644Y-52348394D01*
X48247644Y-52428562D01*
X48404806Y-52428562D01*
X48432191Y-52429753D01*
X48453225Y-52437294D01*
X48469298Y-52458328D01*
X48474656Y-52499206D01*
X48467116Y-52543259D01*
X48444494Y-52564294D01*
X48403219Y-52569056D01*
X48247644Y-52569056D01*
X48247644Y-52649225D01*
X48492119Y-52649225D01*
X48519503Y-52650416D01*
X48540538Y-52657956D01*
X48556611Y-52678991D01*
X48561969Y-52719869D01*
X48554627Y-52763922D01*
X48532600Y-52784956D01*
X48491325Y-52789719D01*
X48177000Y-52789719D01*
X48132947Y-52782178D01*
X48111913Y-52759556D01*
X46978437Y-53311874D01*
X49121563Y-53311874D01*
X49120372Y-52747650D01*
X49112831Y-52768288D01*
X49091797Y-52784361D01*
X49050919Y-52789719D01*
X49008056Y-52784956D01*
X48988213Y-52769875D01*
X48932077Y-52695086D01*
X48882732Y-52629469D01*
X48840178Y-52573025D01*
X48804415Y-52525753D01*
X48775443Y-52487653D01*
X48753263Y-52458725D01*
X48753263Y-52719869D01*
X48752072Y-52747650D01*
X48744531Y-52768288D01*
X48723497Y-52784361D01*
X48682619Y-52789719D01*
X48642931Y-52784361D01*
X48622294Y-52768288D01*
X48614753Y-52746856D01*
X48613563Y-52719075D01*
X48613563Y-52276162D01*
X48621103Y-52232109D01*
X48643725Y-52213456D01*
X48682619Y-52208694D01*
X48720322Y-52213059D01*
X48739769Y-52222981D01*
X48758025Y-52243619D01*
X48810765Y-52315255D01*
X48857332Y-52378292D01*
X48897725Y-52432730D01*
X48931944Y-52478569D01*
X48959990Y-52515809D01*
X48981863Y-52544450D01*
X48981863Y-52276162D01*
X48989403Y-52232109D01*
X49012025Y-52213456D01*
X49049728Y-52208694D01*
X49086241Y-52212662D01*
X49106878Y-52222187D01*
X49116800Y-52238856D01*
X49121563Y-52279337D01*
X49121563Y-52719869D01*
X49120372Y-52747650D01*
X49121563Y-53311874D01*
X49634193Y-53311874D01*
X49634193Y-51688126D01*
X49121563Y-51688126D01*
X46978437Y-51688126D01*
G37*
G36*
X47118931Y-52500000D02*
G01*
X47124002Y-52544141D01*
X47139216Y-52582374D01*
X47164572Y-52614697D01*
X47212891Y-52647737D01*
X47266569Y-52658750D01*
X47320147Y-52648034D01*
X47368169Y-52615888D01*
X47393304Y-52584049D01*
X47408385Y-52545685D01*
X47413412Y-52500794D01*
X47408341Y-52455815D01*
X47393128Y-52417185D01*
X47367772Y-52384906D01*
X47319452Y-52352164D01*
X47265775Y-52341250D01*
X47212197Y-52352263D01*
X47164175Y-52385303D01*
X47139040Y-52417626D01*
X47123958Y-52455859D01*
X47118931Y-52500000D01*
G37*
G36*
X47845212Y-52348394D02*
G01*
X47745994Y-52348394D01*
X47745994Y-52488887D01*
X47846006Y-52488887D01*
X47892837Y-52471425D01*
X47915856Y-52419037D01*
X47892837Y-52366253D01*
X47845212Y-52348394D01*
G37*
G36*
X36845212Y-52348394D02*
G01*
X36745994Y-52348394D01*
X36745994Y-52488887D01*
X36846006Y-52488887D01*
X36892837Y-52471425D01*
X36915856Y-52419037D01*
X36892837Y-52366253D01*
X36845212Y-52348394D01*
G37*
G36*
X36118931Y-52500000D02*
G01*
X36124002Y-52544141D01*
X36139216Y-52582374D01*
X36164572Y-52614697D01*
X36212891Y-52647737D01*
X36266569Y-52658750D01*
X36320147Y-52648034D01*
X36368169Y-52615888D01*
X36393304Y-52584049D01*
X36408385Y-52545685D01*
X36413412Y-52500794D01*
X36408341Y-52455815D01*
X36393128Y-52417185D01*
X36367772Y-52384906D01*
X36319452Y-52352164D01*
X36265775Y-52341250D01*
X36212197Y-52352263D01*
X36164175Y-52385303D01*
X36139040Y-52417626D01*
X36123958Y-52455859D01*
X36118931Y-52500000D01*
G37*
G36*
X35978437Y-51688126D02*
G01*
X36263394Y-52200756D01*
X36320196Y-52206064D01*
X36373130Y-52221989D01*
X36422193Y-52248530D01*
X36467387Y-52285687D01*
X36505239Y-52330708D01*
X36532277Y-52380838D01*
X36548499Y-52436078D01*
X36553906Y-52496428D01*
X36548747Y-52557001D01*
X36533269Y-52612911D01*
X36507472Y-52664157D01*
X36471356Y-52710741D01*
X36427700Y-52749461D01*
X36379281Y-52777118D01*
X36326100Y-52793712D01*
X36268156Y-52799244D01*
X36210088Y-52793787D01*
X36156535Y-52777416D01*
X36107496Y-52750130D01*
X36062972Y-52711931D01*
X36025988Y-52666191D01*
X35999571Y-52616284D01*
X35983721Y-52562210D01*
X35978437Y-52503969D01*
X35984391Y-52440171D01*
X36002250Y-52380541D01*
X36030031Y-52327657D01*
X36065750Y-52284100D01*
X36108414Y-52249373D01*
X36157031Y-52222981D01*
X36209419Y-52206312D01*
X36263394Y-52200756D01*
X35978437Y-51688126D01*
X35465807Y-51688126D01*
X35465807Y-53311874D01*
X36605500Y-52718281D01*
X36605500Y-52277750D01*
X36606691Y-52250366D01*
X36614231Y-52229331D01*
X36635266Y-52213258D01*
X36676144Y-52207900D01*
X36846006Y-52207900D01*
X36892132Y-52213544D01*
X36937376Y-52230478D01*
X36981737Y-52258700D01*
X37011305Y-52287672D01*
X37034919Y-52325375D01*
X37050397Y-52369825D01*
X37055556Y-52419037D01*
X37050397Y-52468151D01*
X37034919Y-52512303D01*
X37011305Y-52549709D01*
X36981737Y-52578581D01*
X36937287Y-52606803D01*
X36891779Y-52623737D01*
X36845212Y-52629381D01*
X36745994Y-52629381D01*
X36745994Y-52719075D01*
X36744803Y-52746459D01*
X36737262Y-52767494D01*
X36716228Y-52783567D01*
X36675350Y-52788925D01*
X36631297Y-52781583D01*
X36610262Y-52759556D01*
X36605500Y-52718281D01*
X35465807Y-53311874D01*
X35978437Y-53311874D01*
X37111913Y-52759556D01*
X37107150Y-52719075D01*
X37107150Y-52277750D01*
X37122231Y-52222584D01*
X37179381Y-52207900D01*
X37492119Y-52207900D01*
X37519503Y-52209091D01*
X37540538Y-52216631D01*
X37556611Y-52237666D01*
X37561969Y-52278544D01*
X37554627Y-52322597D01*
X37532600Y-52343631D01*
X37491325Y-52348394D01*
X37247644Y-52348394D01*
X37247644Y-52428562D01*
X37404806Y-52428562D01*
X37432191Y-52429753D01*
X37453225Y-52437294D01*
X37469298Y-52458328D01*
X37474656Y-52499206D01*
X37467116Y-52543259D01*
X37444494Y-52564294D01*
X37403219Y-52569056D01*
X37247644Y-52569056D01*
X37247644Y-52649225D01*
X37492119Y-52649225D01*
X37519503Y-52650416D01*
X37540538Y-52657956D01*
X37556611Y-52678991D01*
X37561969Y-52719869D01*
X37554627Y-52763922D01*
X37532600Y-52784956D01*
X37491325Y-52789719D01*
X37177000Y-52789719D01*
X37132947Y-52782178D01*
X37111913Y-52759556D01*
X35978437Y-53311874D01*
X38121563Y-53311874D01*
X38120372Y-52747650D01*
X38112831Y-52768288D01*
X38091797Y-52784361D01*
X38050919Y-52789719D01*
X38008056Y-52784956D01*
X37988213Y-52769875D01*
X37932077Y-52695086D01*
X37882732Y-52629469D01*
X37840178Y-52573025D01*
X37804415Y-52525753D01*
X37775443Y-52487653D01*
X37753263Y-52458725D01*
X37753263Y-52719869D01*
X37752072Y-52747650D01*
X37744531Y-52768288D01*
X37723497Y-52784361D01*
X37682619Y-52789719D01*
X37642931Y-52784361D01*
X37622294Y-52768288D01*
X37614753Y-52746856D01*
X37613563Y-52719075D01*
X37613563Y-52276162D01*
X37621103Y-52232109D01*
X37643725Y-52213456D01*
X37682619Y-52208694D01*
X37720322Y-52213059D01*
X37739769Y-52222981D01*
X37758025Y-52243619D01*
X37810765Y-52315255D01*
X37857332Y-52378292D01*
X37897725Y-52432730D01*
X37931944Y-52478569D01*
X37959990Y-52515809D01*
X37981863Y-52544450D01*
X37981863Y-52276162D01*
X37989403Y-52232109D01*
X38012025Y-52213456D01*
X38049728Y-52208694D01*
X38086241Y-52212662D01*
X38106878Y-52222187D01*
X38116800Y-52238856D01*
X38121563Y-52279337D01*
X38121563Y-52719869D01*
X38120372Y-52747650D01*
X38121563Y-53311874D01*
X38634193Y-53311874D01*
X38634193Y-51688126D01*
X38121563Y-51688126D01*
X35978437Y-51688126D01*
G37*
G36*
X24978437Y-51688126D02*
G01*
X25263394Y-52200756D01*
X25320196Y-52206064D01*
X25373130Y-52221989D01*
X25422193Y-52248530D01*
X25467387Y-52285687D01*
X25505239Y-52330708D01*
X25532277Y-52380838D01*
X25548499Y-52436078D01*
X25553906Y-52496428D01*
X25548747Y-52557001D01*
X25533269Y-52612911D01*
X25507472Y-52664157D01*
X25471356Y-52710741D01*
X25427700Y-52749461D01*
X25379281Y-52777118D01*
X25326100Y-52793712D01*
X25268156Y-52799244D01*
X25210088Y-52793787D01*
X25156535Y-52777416D01*
X25107496Y-52750130D01*
X25062972Y-52711931D01*
X25025988Y-52666191D01*
X24999571Y-52616284D01*
X24983721Y-52562210D01*
X24978437Y-52503969D01*
X24984391Y-52440171D01*
X25002250Y-52380541D01*
X25030031Y-52327657D01*
X25065750Y-52284100D01*
X25108414Y-52249373D01*
X25157031Y-52222981D01*
X25209419Y-52206312D01*
X25263394Y-52200756D01*
X24978437Y-51688126D01*
X24465807Y-51688126D01*
X24465807Y-53311874D01*
X25605500Y-52718281D01*
X25605500Y-52277750D01*
X25606691Y-52250366D01*
X25614231Y-52229331D01*
X25635266Y-52213258D01*
X25676144Y-52207900D01*
X25846006Y-52207900D01*
X25892132Y-52213544D01*
X25937376Y-52230478D01*
X25981737Y-52258700D01*
X26011305Y-52287672D01*
X26034919Y-52325375D01*
X26050397Y-52369825D01*
X26055556Y-52419037D01*
X26050397Y-52468151D01*
X26034919Y-52512303D01*
X26011305Y-52549709D01*
X25981737Y-52578581D01*
X25937287Y-52606803D01*
X25891779Y-52623737D01*
X25845212Y-52629381D01*
X25745994Y-52629381D01*
X25745994Y-52719075D01*
X25744803Y-52746459D01*
X25737262Y-52767494D01*
X25716228Y-52783567D01*
X25675350Y-52788925D01*
X25631297Y-52781583D01*
X25610262Y-52759556D01*
X25605500Y-52718281D01*
X24465807Y-53311874D01*
X24978437Y-53311874D01*
X26111913Y-52759556D01*
X26107150Y-52719075D01*
X26107150Y-52277750D01*
X26122231Y-52222584D01*
X26179381Y-52207900D01*
X26492119Y-52207900D01*
X26519503Y-52209091D01*
X26540538Y-52216631D01*
X26556611Y-52237666D01*
X26561969Y-52278544D01*
X26554627Y-52322597D01*
X26532600Y-52343631D01*
X26491325Y-52348394D01*
X26247644Y-52348394D01*
X26247644Y-52428562D01*
X26404806Y-52428562D01*
X26432191Y-52429753D01*
X26453225Y-52437294D01*
X26469298Y-52458328D01*
X26474656Y-52499206D01*
X26467116Y-52543259D01*
X26444494Y-52564294D01*
X26403219Y-52569056D01*
X26247644Y-52569056D01*
X26247644Y-52649225D01*
X26492119Y-52649225D01*
X26519503Y-52650416D01*
X26540538Y-52657956D01*
X26556611Y-52678991D01*
X26561969Y-52719869D01*
X26554627Y-52763922D01*
X26532600Y-52784956D01*
X26491325Y-52789719D01*
X26177000Y-52789719D01*
X26132947Y-52782178D01*
X26111913Y-52759556D01*
X24978437Y-53311874D01*
X27121563Y-53311874D01*
X27120372Y-52747650D01*
X27112831Y-52768288D01*
X27091797Y-52784361D01*
X27050919Y-52789719D01*
X27008056Y-52784956D01*
X26988213Y-52769875D01*
X26932077Y-52695086D01*
X26882732Y-52629469D01*
X26840178Y-52573025D01*
X26804415Y-52525753D01*
X26775443Y-52487653D01*
X26753263Y-52458725D01*
X26753263Y-52719869D01*
X26752072Y-52747650D01*
X26744531Y-52768288D01*
X26723497Y-52784361D01*
X26682619Y-52789719D01*
X26642931Y-52784361D01*
X26622294Y-52768288D01*
X26614753Y-52746856D01*
X26613563Y-52719075D01*
X26613563Y-52276162D01*
X26621103Y-52232109D01*
X26643725Y-52213456D01*
X26682619Y-52208694D01*
X26720322Y-52213059D01*
X26739769Y-52222981D01*
X26758025Y-52243619D01*
X26810765Y-52315255D01*
X26857332Y-52378292D01*
X26897725Y-52432730D01*
X26931944Y-52478569D01*
X26959990Y-52515809D01*
X26981863Y-52544450D01*
X26981863Y-52276162D01*
X26989403Y-52232109D01*
X27012025Y-52213456D01*
X27049728Y-52208694D01*
X27086241Y-52212662D01*
X27106878Y-52222187D01*
X27116800Y-52238856D01*
X27121563Y-52279337D01*
X27121563Y-52719869D01*
X27120372Y-52747650D01*
X27121563Y-53311874D01*
X27634193Y-53311874D01*
X27634193Y-51688126D01*
X27121563Y-51688126D01*
X24978437Y-51688126D01*
G37*
G36*
X25118931Y-52500000D02*
G01*
X25124002Y-52544141D01*
X25139216Y-52582374D01*
X25164572Y-52614697D01*
X25212891Y-52647737D01*
X25266569Y-52658750D01*
X25320147Y-52648034D01*
X25368169Y-52615888D01*
X25393304Y-52584049D01*
X25408385Y-52545685D01*
X25413412Y-52500794D01*
X25408341Y-52455815D01*
X25393128Y-52417185D01*
X25367772Y-52384906D01*
X25319452Y-52352164D01*
X25265775Y-52341250D01*
X25212197Y-52352263D01*
X25164175Y-52385303D01*
X25139040Y-52417626D01*
X25123958Y-52455859D01*
X25118931Y-52500000D01*
G37*
G36*
X25845212Y-52348394D02*
G01*
X25745994Y-52348394D01*
X25745994Y-52488887D01*
X25846006Y-52488887D01*
X25892837Y-52471425D01*
X25915856Y-52419037D01*
X25892837Y-52366253D01*
X25845212Y-52348394D01*
G37*
%TO.C,kibuzzard-62360FC7*%
G36*
X56668150Y-28188920D02*
G01*
X56866940Y-28720600D01*
X56919063Y-28706312D01*
X56971362Y-28701550D01*
X57008966Y-28704427D01*
X57047166Y-28713059D01*
X57105506Y-28736475D01*
X57124556Y-28747588D01*
X57146781Y-28761875D01*
X57167419Y-28799578D01*
X57150750Y-28843631D01*
X57121381Y-28875778D01*
X57095187Y-28886494D01*
X57054706Y-28869031D01*
X57015812Y-28848791D01*
X56965806Y-28842044D01*
X56914609Y-28850973D01*
X56864206Y-28877762D01*
X56824519Y-28926975D01*
X56812612Y-28960809D01*
X56808644Y-28998809D01*
X56812612Y-29036810D01*
X56824519Y-29070644D01*
X56865000Y-29120650D01*
X56914411Y-29146844D01*
X56965806Y-29155575D01*
X57012241Y-29149225D01*
X57043594Y-29136525D01*
X57057881Y-29126206D01*
X57095981Y-29110331D01*
X57121580Y-29121444D01*
X57223031Y-29067667D01*
X57219012Y-29015875D01*
X57219012Y-28776956D01*
X57220203Y-28748778D01*
X57227744Y-28727744D01*
X57249175Y-28711075D01*
X57289656Y-28706312D01*
X57330137Y-28711075D01*
X57350775Y-28727744D01*
X57360300Y-28777750D01*
X57360300Y-29015875D01*
X57366253Y-29063103D01*
X57384112Y-29107950D01*
X57419831Y-29143669D01*
X57476187Y-29157163D01*
X57526789Y-29146447D01*
X57562706Y-29114300D01*
X57584138Y-29068064D01*
X57591281Y-29015081D01*
X57591281Y-28772194D01*
X57599219Y-28728537D01*
X57622238Y-28711075D01*
X57659941Y-28706312D01*
X57696056Y-28710281D01*
X57716694Y-28719806D01*
X57727013Y-28736475D01*
X57779400Y-28730522D01*
X57792894Y-28713456D01*
X57833375Y-28706312D01*
X58274700Y-28706312D01*
X58312006Y-28712266D01*
X58327881Y-28730919D01*
X58331850Y-28764256D01*
X58327881Y-28797197D01*
X58314388Y-28814262D01*
X58273906Y-28821406D01*
X58122300Y-28821406D01*
X58122300Y-29220663D01*
X58121109Y-29247650D01*
X58113966Y-29267891D01*
X58092931Y-29284163D01*
X58053244Y-29288925D01*
X58013953Y-29284163D01*
X57993316Y-29267891D01*
X57986172Y-29247253D01*
X57984981Y-29219869D01*
X57984981Y-28821406D01*
X57832581Y-28821406D01*
X57795275Y-28815453D01*
X57779400Y-28796800D01*
X57775431Y-28763462D01*
X57779400Y-28730522D01*
X57727013Y-28736475D01*
X57731775Y-28777750D01*
X57731775Y-29017463D01*
X57727707Y-29068659D01*
X57715503Y-29117475D01*
X57695163Y-29163909D01*
X57666688Y-29207963D01*
X57630373Y-29244574D01*
X57584931Y-29273447D01*
X57532246Y-29292199D01*
X57474203Y-29298450D01*
X57416259Y-29292100D01*
X57363872Y-29273050D01*
X57318926Y-29243681D01*
X57283306Y-29206375D01*
X57255178Y-29162917D01*
X57235086Y-29116681D01*
X57223031Y-29067667D01*
X57121580Y-29121444D01*
X57149162Y-29154781D01*
X57166625Y-29199231D01*
X57155909Y-29227013D01*
X57130906Y-29246856D01*
X57103522Y-29263525D01*
X57049944Y-29284163D01*
X57010157Y-29293688D01*
X56971759Y-29296863D01*
X56933858Y-29294382D01*
X56895559Y-29286941D01*
X56856467Y-29273645D01*
X56816184Y-29253603D01*
X56777390Y-29227608D01*
X56742762Y-29196453D01*
X56713096Y-29157956D01*
X56689184Y-29109934D01*
X56673409Y-29054868D01*
X56668150Y-28995237D01*
X56673309Y-28936202D01*
X56688787Y-28882922D01*
X56712302Y-28836884D01*
X56741572Y-28799578D01*
X56776001Y-28769316D01*
X56814994Y-28744412D01*
X56866940Y-28720600D01*
X56668150Y-28188920D01*
X56155520Y-28188920D01*
X56155520Y-29811080D01*
X56668150Y-29811080D01*
X58331850Y-29811080D01*
X58844480Y-29811080D01*
X58844480Y-28188920D01*
X58331850Y-28188920D01*
X56668150Y-28188920D01*
G37*
G36*
X36668150Y-28188920D02*
G01*
X36866940Y-28720600D01*
X36919063Y-28706312D01*
X36971362Y-28701550D01*
X37008966Y-28704427D01*
X37047166Y-28713059D01*
X37105506Y-28736475D01*
X37124556Y-28747588D01*
X37146781Y-28761875D01*
X37167419Y-28799578D01*
X37150750Y-28843631D01*
X37121381Y-28875778D01*
X37095187Y-28886494D01*
X37054706Y-28869031D01*
X37015812Y-28848791D01*
X36965806Y-28842044D01*
X36914609Y-28850973D01*
X36864206Y-28877762D01*
X36824519Y-28926975D01*
X36812612Y-28960809D01*
X36808644Y-28998809D01*
X36812612Y-29036810D01*
X36824519Y-29070644D01*
X36865000Y-29120650D01*
X36914411Y-29146844D01*
X36965806Y-29155575D01*
X37012241Y-29149225D01*
X37043594Y-29136525D01*
X37057881Y-29126206D01*
X37095981Y-29110331D01*
X37121580Y-29121444D01*
X37223031Y-29067667D01*
X37219012Y-29015875D01*
X37219012Y-28776956D01*
X37220203Y-28748778D01*
X37227744Y-28727744D01*
X37249175Y-28711075D01*
X37289656Y-28706312D01*
X37330137Y-28711075D01*
X37350775Y-28727744D01*
X37360300Y-28777750D01*
X37360300Y-29015875D01*
X37366253Y-29063103D01*
X37384112Y-29107950D01*
X37419831Y-29143669D01*
X37476187Y-29157163D01*
X37526789Y-29146447D01*
X37562706Y-29114300D01*
X37584138Y-29068064D01*
X37591281Y-29015081D01*
X37591281Y-28772194D01*
X37599219Y-28728537D01*
X37622238Y-28711075D01*
X37659941Y-28706312D01*
X37696056Y-28710281D01*
X37716694Y-28719806D01*
X37727013Y-28736475D01*
X37779400Y-28730522D01*
X37792894Y-28713456D01*
X37833375Y-28706312D01*
X38274700Y-28706312D01*
X38312006Y-28712266D01*
X38327881Y-28730919D01*
X38331850Y-28764256D01*
X38327881Y-28797197D01*
X38314388Y-28814262D01*
X38273906Y-28821406D01*
X38122300Y-28821406D01*
X38122300Y-29220663D01*
X38121109Y-29247650D01*
X38113966Y-29267891D01*
X38092931Y-29284163D01*
X38053244Y-29288925D01*
X38013953Y-29284163D01*
X37993316Y-29267891D01*
X37986172Y-29247253D01*
X37984981Y-29219869D01*
X37984981Y-28821406D01*
X37832581Y-28821406D01*
X37795275Y-28815453D01*
X37779400Y-28796800D01*
X37775431Y-28763462D01*
X37779400Y-28730522D01*
X37727013Y-28736475D01*
X37731775Y-28777750D01*
X37731775Y-29017463D01*
X37727707Y-29068659D01*
X37715503Y-29117475D01*
X37695163Y-29163909D01*
X37666688Y-29207963D01*
X37630373Y-29244574D01*
X37584931Y-29273447D01*
X37532246Y-29292199D01*
X37474203Y-29298450D01*
X37416259Y-29292100D01*
X37363872Y-29273050D01*
X37318926Y-29243681D01*
X37283306Y-29206375D01*
X37255178Y-29162917D01*
X37235086Y-29116681D01*
X37223031Y-29067667D01*
X37121580Y-29121444D01*
X37149162Y-29154781D01*
X37166625Y-29199231D01*
X37155909Y-29227013D01*
X37130906Y-29246856D01*
X37103522Y-29263525D01*
X37049944Y-29284163D01*
X37010157Y-29293688D01*
X36971759Y-29296863D01*
X36933858Y-29294382D01*
X36895559Y-29286941D01*
X36856467Y-29273645D01*
X36816184Y-29253603D01*
X36777390Y-29227608D01*
X36742762Y-29196453D01*
X36713096Y-29157956D01*
X36689184Y-29109934D01*
X36673409Y-29054868D01*
X36668150Y-28995237D01*
X36673309Y-28936202D01*
X36688787Y-28882922D01*
X36712302Y-28836884D01*
X36741572Y-28799578D01*
X36776001Y-28769316D01*
X36814994Y-28744412D01*
X36866940Y-28720600D01*
X36668150Y-28188920D01*
X36155520Y-28188920D01*
X36155520Y-29811080D01*
X36668150Y-29811080D01*
X38331850Y-29811080D01*
X38844480Y-29811080D01*
X38844480Y-28188920D01*
X38331850Y-28188920D01*
X36668150Y-28188920D01*
G37*
%TO.C,kibuzzard-62360F8D*%
G36*
X48444103Y-28990078D02*
G01*
X48545703Y-28990078D01*
X48591741Y-28972616D01*
X48614759Y-28920228D01*
X48591741Y-28867444D01*
X48544116Y-28849584D01*
X48444103Y-28849584D01*
X48444103Y-28990078D01*
G37*
G36*
X47817041Y-29001191D02*
G01*
X47822112Y-29045332D01*
X47837325Y-29083564D01*
X47862681Y-29115888D01*
X47911001Y-29148927D01*
X47964678Y-29159941D01*
X48018256Y-29149225D01*
X48066278Y-29117078D01*
X48091414Y-29085240D01*
X48106495Y-29046875D01*
X48111522Y-29001984D01*
X48106451Y-28957005D01*
X48091237Y-28918376D01*
X48065881Y-28886097D01*
X48017562Y-28853355D01*
X47963884Y-28842441D01*
X47910306Y-28853454D01*
X47862284Y-28886494D01*
X47837149Y-28918817D01*
X47822068Y-28957049D01*
X47817041Y-29001191D01*
G37*
G36*
X46658959Y-28186935D02*
G01*
X46667492Y-29139998D01*
X46693091Y-29109934D01*
X46735159Y-29090884D01*
X46761750Y-29100806D01*
X46797072Y-29130572D01*
X46828822Y-29156369D01*
X46866922Y-29168672D01*
X46907932Y-29161969D01*
X46932539Y-29141861D01*
X46940741Y-29108347D01*
X46920500Y-29077788D01*
X46870097Y-29059928D01*
X46838744Y-29052685D01*
X46805009Y-29042069D01*
X46771275Y-29028674D01*
X46739922Y-29013097D01*
X46712240Y-28991566D01*
X46689519Y-28960312D01*
X46674338Y-28920526D01*
X46669278Y-28873397D01*
X46675055Y-28828815D01*
X46692385Y-28788201D01*
X46721269Y-28751556D01*
X46760118Y-28722673D01*
X46807347Y-28705342D01*
X46862953Y-28699566D01*
X46908495Y-28702641D01*
X46949869Y-28711869D01*
X47004241Y-28736872D01*
X47024084Y-28751953D01*
X47048691Y-28790847D01*
X47029641Y-28834503D01*
X47002256Y-28864269D01*
X46974078Y-28874191D01*
X46932803Y-28858316D01*
X46923675Y-28850378D01*
X46911372Y-28840059D01*
X46868906Y-28829741D01*
X46826044Y-28842044D01*
X46808978Y-28876175D01*
X46829219Y-28911497D01*
X46879622Y-28929753D01*
X46911173Y-28935805D01*
X46945503Y-28944437D01*
X46979833Y-28955451D01*
X47011384Y-28968647D01*
X47039066Y-28988193D01*
X47061787Y-29018256D01*
X47076968Y-29057646D01*
X47082028Y-29105172D01*
X47133622Y-29219472D01*
X47133622Y-28778941D01*
X47134812Y-28751556D01*
X47142353Y-28730522D01*
X47163387Y-28714448D01*
X47204266Y-28709091D01*
X47248517Y-28716433D01*
X47270147Y-28738459D01*
X47274116Y-28779734D01*
X47274116Y-28941659D01*
X47484459Y-28941659D01*
X47484459Y-28778941D01*
X47485650Y-28751556D01*
X47493191Y-28730522D01*
X47514622Y-28713853D01*
X47552722Y-28709091D01*
X47589234Y-28713059D01*
X47609872Y-28722584D01*
X47620984Y-28738459D01*
X47624953Y-28779734D01*
X47806523Y-28750564D01*
X47855141Y-28724172D01*
X47907528Y-28707503D01*
X47961503Y-28701947D01*
X48018306Y-28707255D01*
X48071239Y-28723180D01*
X48120303Y-28749721D01*
X48165497Y-28786878D01*
X48203349Y-28831899D01*
X48230386Y-28882029D01*
X48246608Y-28937269D01*
X48252016Y-28997619D01*
X48246856Y-29058192D01*
X48231378Y-29114102D01*
X48205581Y-29165348D01*
X48169466Y-29211931D01*
X48125809Y-29250651D01*
X48077391Y-29278309D01*
X48024209Y-29294903D01*
X47966266Y-29300434D01*
X47908198Y-29294977D01*
X47854645Y-29278606D01*
X47805606Y-29251321D01*
X47761081Y-29213122D01*
X47724097Y-29167382D01*
X47697680Y-29117475D01*
X47681830Y-29063401D01*
X47676547Y-29005159D01*
X47682500Y-28941362D01*
X47700359Y-28881731D01*
X47728141Y-28828848D01*
X47763859Y-28785291D01*
X47806523Y-28750564D01*
X47624953Y-28779734D01*
X47624953Y-29220266D01*
X47623762Y-29247650D01*
X47616222Y-29268684D01*
X47595187Y-29284758D01*
X47554309Y-29290116D01*
X47510256Y-29282773D01*
X47489222Y-29260747D01*
X47484459Y-29219472D01*
X47484459Y-29058341D01*
X47274116Y-29058341D01*
X47274116Y-29220266D01*
X47272925Y-29247650D01*
X47265384Y-29268684D01*
X47244350Y-29284758D01*
X47203472Y-29290116D01*
X47159419Y-29282773D01*
X47138384Y-29260747D01*
X47133622Y-29219472D01*
X47082028Y-29105172D01*
X47076869Y-29153690D01*
X47061391Y-29196056D01*
X47037578Y-29230882D01*
X47007416Y-29256778D01*
X46963583Y-29280150D01*
X46917810Y-29294173D01*
X46870097Y-29298847D01*
X46833783Y-29296565D01*
X46799453Y-29289719D01*
X46745478Y-29267097D01*
X46709759Y-29242094D01*
X46686741Y-29217884D01*
X46679597Y-29209153D01*
X46658959Y-29163513D01*
X46667492Y-29139998D01*
X46658959Y-28186935D01*
X46146329Y-28186935D01*
X46146329Y-29813065D01*
X48620227Y-29249987D01*
X48599590Y-29202098D01*
X48568722Y-29128984D01*
X48544116Y-29130572D01*
X48444103Y-29130572D01*
X48444103Y-29220266D01*
X48442913Y-29247650D01*
X48435372Y-29268684D01*
X48414338Y-29284758D01*
X48373459Y-29290116D01*
X48329406Y-29282773D01*
X48308372Y-29260747D01*
X48303609Y-29219472D01*
X48303609Y-28778941D01*
X48304800Y-28751556D01*
X48312341Y-28730522D01*
X48333375Y-28714448D01*
X48374253Y-28709091D01*
X48545703Y-28709091D01*
X48591829Y-28714735D01*
X48637073Y-28731668D01*
X48681434Y-28759891D01*
X48710406Y-28788862D01*
X48733822Y-28826566D01*
X48749300Y-28871016D01*
X48754459Y-28920228D01*
X48747845Y-28976496D01*
X48728001Y-29025709D01*
X48694928Y-29067866D01*
X48708686Y-29100409D01*
X48726678Y-29141949D01*
X48748903Y-29192484D01*
X48760809Y-29233759D01*
X48748506Y-29261541D01*
X48711597Y-29284559D01*
X48670719Y-29295672D01*
X48645319Y-29288131D01*
X48630634Y-29272653D01*
X48620227Y-29249987D01*
X46146329Y-29813065D01*
X46658959Y-29813065D01*
X49341041Y-29813065D01*
X49123156Y-29269875D01*
X49102122Y-29286147D01*
X49062434Y-29290909D01*
X49023144Y-29286147D01*
X49002506Y-29269875D01*
X48995363Y-29249238D01*
X48994172Y-29221853D01*
X48994172Y-28823391D01*
X48841772Y-28823391D01*
X48804466Y-28817437D01*
X48788591Y-28798784D01*
X48784622Y-28765447D01*
X48788591Y-28732506D01*
X48802084Y-28715441D01*
X48842566Y-28708297D01*
X49283891Y-28708297D01*
X49321197Y-28714250D01*
X49337072Y-28732903D01*
X49341041Y-28766241D01*
X49337072Y-28799181D01*
X49323578Y-28816247D01*
X49283097Y-28823391D01*
X49131491Y-28823391D01*
X49131491Y-29222647D01*
X49130300Y-29249634D01*
X49123156Y-29269875D01*
X49341041Y-29813065D01*
X49853671Y-29813065D01*
X49853671Y-28186935D01*
X49341041Y-28186935D01*
X46658959Y-28186935D01*
G37*
G36*
X24658959Y-28186935D02*
G01*
X24667492Y-29139998D01*
X24693091Y-29109934D01*
X24735159Y-29090884D01*
X24761750Y-29100806D01*
X24797072Y-29130572D01*
X24828822Y-29156369D01*
X24866922Y-29168672D01*
X24907932Y-29161969D01*
X24932539Y-29141861D01*
X24940741Y-29108347D01*
X24920500Y-29077788D01*
X24870097Y-29059928D01*
X24838744Y-29052685D01*
X24805009Y-29042069D01*
X24771275Y-29028674D01*
X24739922Y-29013097D01*
X24712240Y-28991566D01*
X24689519Y-28960312D01*
X24674338Y-28920526D01*
X24669278Y-28873397D01*
X24675055Y-28828815D01*
X24692385Y-28788201D01*
X24721269Y-28751556D01*
X24760118Y-28722673D01*
X24807347Y-28705342D01*
X24862953Y-28699566D01*
X24908495Y-28702641D01*
X24949869Y-28711869D01*
X25004241Y-28736872D01*
X25024084Y-28751953D01*
X25048691Y-28790847D01*
X25029641Y-28834503D01*
X25002256Y-28864269D01*
X24974078Y-28874191D01*
X24932803Y-28858316D01*
X24923675Y-28850378D01*
X24911372Y-28840059D01*
X24868906Y-28829741D01*
X24826044Y-28842044D01*
X24808978Y-28876175D01*
X24829219Y-28911497D01*
X24879622Y-28929753D01*
X24911173Y-28935805D01*
X24945503Y-28944437D01*
X24979833Y-28955451D01*
X25011384Y-28968647D01*
X25039066Y-28988193D01*
X25061787Y-29018256D01*
X25076968Y-29057646D01*
X25082028Y-29105172D01*
X25133622Y-29219472D01*
X25133622Y-28778941D01*
X25134812Y-28751556D01*
X25142353Y-28730522D01*
X25163387Y-28714448D01*
X25204266Y-28709091D01*
X25248517Y-28716433D01*
X25270147Y-28738459D01*
X25274116Y-28779734D01*
X25274116Y-28941659D01*
X25484459Y-28941659D01*
X25484459Y-28778941D01*
X25485650Y-28751556D01*
X25493191Y-28730522D01*
X25514622Y-28713853D01*
X25552722Y-28709091D01*
X25589234Y-28713059D01*
X25609872Y-28722584D01*
X25620984Y-28738459D01*
X25624953Y-28779734D01*
X25806523Y-28750564D01*
X25855141Y-28724172D01*
X25907528Y-28707503D01*
X25961503Y-28701947D01*
X26018306Y-28707255D01*
X26071239Y-28723180D01*
X26120303Y-28749721D01*
X26165497Y-28786878D01*
X26203349Y-28831899D01*
X26230386Y-28882029D01*
X26246608Y-28937269D01*
X26252016Y-28997619D01*
X26246856Y-29058192D01*
X26231378Y-29114102D01*
X26205581Y-29165348D01*
X26169466Y-29211931D01*
X26125809Y-29250651D01*
X26077391Y-29278309D01*
X26024209Y-29294903D01*
X25966266Y-29300434D01*
X25908198Y-29294977D01*
X25854645Y-29278606D01*
X25805606Y-29251321D01*
X25761081Y-29213122D01*
X25724097Y-29167382D01*
X25697680Y-29117475D01*
X25681830Y-29063401D01*
X25676547Y-29005159D01*
X25682500Y-28941362D01*
X25700359Y-28881731D01*
X25728141Y-28828848D01*
X25763859Y-28785291D01*
X25806523Y-28750564D01*
X25624953Y-28779734D01*
X25624953Y-29220266D01*
X25623762Y-29247650D01*
X25616222Y-29268684D01*
X25595187Y-29284758D01*
X25554309Y-29290116D01*
X25510256Y-29282773D01*
X25489222Y-29260747D01*
X25484459Y-29219472D01*
X25484459Y-29058341D01*
X25274116Y-29058341D01*
X25274116Y-29220266D01*
X25272925Y-29247650D01*
X25265384Y-29268684D01*
X25244350Y-29284758D01*
X25203472Y-29290116D01*
X25159419Y-29282773D01*
X25138384Y-29260747D01*
X25133622Y-29219472D01*
X25082028Y-29105172D01*
X25076869Y-29153690D01*
X25061391Y-29196056D01*
X25037578Y-29230882D01*
X25007416Y-29256778D01*
X24963583Y-29280150D01*
X24917810Y-29294173D01*
X24870097Y-29298847D01*
X24833783Y-29296565D01*
X24799453Y-29289719D01*
X24745478Y-29267097D01*
X24709759Y-29242094D01*
X24686741Y-29217884D01*
X24679597Y-29209153D01*
X24658959Y-29163513D01*
X24667492Y-29139998D01*
X24658959Y-28186935D01*
X24146329Y-28186935D01*
X24146329Y-29813065D01*
X26620227Y-29249987D01*
X26599590Y-29202098D01*
X26568722Y-29128984D01*
X26544116Y-29130572D01*
X26444103Y-29130572D01*
X26444103Y-29220266D01*
X26442913Y-29247650D01*
X26435372Y-29268684D01*
X26414338Y-29284758D01*
X26373459Y-29290116D01*
X26329406Y-29282773D01*
X26308372Y-29260747D01*
X26303609Y-29219472D01*
X26303609Y-28778941D01*
X26304800Y-28751556D01*
X26312341Y-28730522D01*
X26333375Y-28714448D01*
X26374253Y-28709091D01*
X26545703Y-28709091D01*
X26591829Y-28714735D01*
X26637073Y-28731668D01*
X26681434Y-28759891D01*
X26710406Y-28788862D01*
X26733822Y-28826566D01*
X26749300Y-28871016D01*
X26754459Y-28920228D01*
X26747845Y-28976496D01*
X26728001Y-29025709D01*
X26694928Y-29067866D01*
X26708686Y-29100409D01*
X26726678Y-29141949D01*
X26748903Y-29192484D01*
X26760809Y-29233759D01*
X26748506Y-29261541D01*
X26711597Y-29284559D01*
X26670719Y-29295672D01*
X26645319Y-29288131D01*
X26630634Y-29272653D01*
X26620227Y-29249987D01*
X24146329Y-29813065D01*
X24658959Y-29813065D01*
X27341041Y-29813065D01*
X27123156Y-29269875D01*
X27102122Y-29286147D01*
X27062434Y-29290909D01*
X27023144Y-29286147D01*
X27002506Y-29269875D01*
X26995363Y-29249238D01*
X26994172Y-29221853D01*
X26994172Y-28823391D01*
X26841772Y-28823391D01*
X26804466Y-28817437D01*
X26788591Y-28798784D01*
X26784622Y-28765447D01*
X26788591Y-28732506D01*
X26802084Y-28715441D01*
X26842566Y-28708297D01*
X27283891Y-28708297D01*
X27321197Y-28714250D01*
X27337072Y-28732903D01*
X27341041Y-28766241D01*
X27337072Y-28799181D01*
X27323578Y-28816247D01*
X27283097Y-28823391D01*
X27131491Y-28823391D01*
X27131491Y-29222647D01*
X27130300Y-29249634D01*
X27123156Y-29269875D01*
X27341041Y-29813065D01*
X27853671Y-29813065D01*
X27853671Y-28186935D01*
X27341041Y-28186935D01*
X24658959Y-28186935D01*
G37*
G36*
X25817041Y-29001191D02*
G01*
X25822112Y-29045332D01*
X25837325Y-29083564D01*
X25862681Y-29115888D01*
X25911001Y-29148927D01*
X25964678Y-29159941D01*
X26018256Y-29149225D01*
X26066278Y-29117078D01*
X26091414Y-29085240D01*
X26106495Y-29046875D01*
X26111522Y-29001984D01*
X26106451Y-28957005D01*
X26091237Y-28918376D01*
X26065881Y-28886097D01*
X26017562Y-28853355D01*
X25963884Y-28842441D01*
X25910306Y-28853454D01*
X25862284Y-28886494D01*
X25837149Y-28918817D01*
X25822068Y-28957049D01*
X25817041Y-29001191D01*
G37*
G36*
X26444103Y-28990078D02*
G01*
X26545703Y-28990078D01*
X26591741Y-28972616D01*
X26614759Y-28920228D01*
X26591741Y-28867444D01*
X26544116Y-28849584D01*
X26444103Y-28849584D01*
X26444103Y-28990078D01*
G37*
D11*
%TO.C,SW7*%
X24500000Y-42500000D02*
X32500000Y-42500000D01*
X32500000Y-42500000D02*
X32500000Y-51500000D01*
X32500000Y-51500000D02*
X24500000Y-51500000D01*
X24500000Y-51500000D02*
X24500000Y-42500000D01*
D13*
X26500000Y-46000000D02*
G75*
G03*
X26500000Y-46000000I-500000J0D01*
G01*
X31500000Y-48000000D02*
G75*
G03*
X31500000Y-48000000I-500000J0D01*
G01*
D11*
%TO.C,SW3*%
X29250000Y-35850000D02*
X29250000Y-35000000D01*
X29250000Y-33000000D02*
X29250000Y-32470000D01*
X29250000Y-30530000D02*
X29250000Y-29970000D01*
X29250000Y-28030000D02*
X29250000Y-27150000D01*
X29250000Y-27150000D02*
X32950000Y-27150000D01*
X32950000Y-27150000D02*
X32950000Y-28020000D01*
X32950000Y-29980000D02*
X32950000Y-30530000D01*
X32950000Y-32470000D02*
X32950000Y-33030000D01*
X32950000Y-34970000D02*
X32950000Y-35850000D01*
X32950000Y-35850000D02*
X29250000Y-35850000D01*
X29950000Y-36150000D02*
X28950000Y-36150000D01*
X28950000Y-36150000D02*
X28950000Y-35150000D01*
%TO.C,SW6*%
X46500000Y-42500000D02*
X54500000Y-42500000D01*
X54500000Y-42500000D02*
X54500000Y-51500000D01*
X54500000Y-51500000D02*
X46500000Y-51500000D01*
X46500000Y-51500000D02*
X46500000Y-42500000D01*
D13*
X48500000Y-46000000D02*
G75*
G03*
X48500000Y-46000000I-500000J0D01*
G01*
X53500000Y-48000000D02*
G75*
G03*
X53500000Y-48000000I-500000J0D01*
G01*
D11*
%TO.C,SW5*%
X35500000Y-42500000D02*
X43500000Y-42500000D01*
X43500000Y-42500000D02*
X43500000Y-51500000D01*
X43500000Y-51500000D02*
X35500000Y-51500000D01*
X35500000Y-51500000D02*
X35500000Y-42500000D01*
D13*
X37500000Y-46000000D02*
G75*
G03*
X37500000Y-46000000I-500000J0D01*
G01*
X42500000Y-48000000D02*
G75*
G03*
X42500000Y-48000000I-500000J0D01*
G01*
D11*
%TO.C,SW4*%
X63750000Y-27150000D02*
X63750000Y-28000000D01*
X63750000Y-30000000D02*
X63750000Y-30530000D01*
X63750000Y-32470000D02*
X63750000Y-33030000D01*
X63750000Y-34970000D02*
X63750000Y-35850000D01*
X63750000Y-35850000D02*
X60050000Y-35850000D01*
X60050000Y-35850000D02*
X60050000Y-34980000D01*
X60050000Y-33020000D02*
X60050000Y-32470000D01*
X60050000Y-30530000D02*
X60050000Y-29970000D01*
X60050000Y-28030000D02*
X60050000Y-27150000D01*
X60050000Y-27150000D02*
X63750000Y-27150000D01*
X63050000Y-26850000D02*
X64050000Y-26850000D01*
X64050000Y-26850000D02*
X64050000Y-27850000D01*
%TO.C,SW2*%
X51250000Y-35850000D02*
X51250000Y-35000000D01*
X51250000Y-33000000D02*
X51250000Y-32470000D01*
X51250000Y-30530000D02*
X51250000Y-29970000D01*
X51250000Y-28030000D02*
X51250000Y-27150000D01*
X51250000Y-27150000D02*
X54950000Y-27150000D01*
X54950000Y-27150000D02*
X54950000Y-28020000D01*
X54950000Y-29980000D02*
X54950000Y-30530000D01*
X54950000Y-32470000D02*
X54950000Y-33030000D01*
X54950000Y-34970000D02*
X54950000Y-35850000D01*
X54950000Y-35850000D02*
X51250000Y-35850000D01*
X51950000Y-36150000D02*
X50950000Y-36150000D01*
X50950000Y-36150000D02*
X50950000Y-35150000D01*
%TO.C,SW1*%
X43750000Y-27150000D02*
X43750000Y-28000000D01*
X43750000Y-30000000D02*
X43750000Y-30530000D01*
X43750000Y-32470000D02*
X43750000Y-33030000D01*
X43750000Y-34970000D02*
X43750000Y-35850000D01*
X43750000Y-35850000D02*
X40050000Y-35850000D01*
X40050000Y-35850000D02*
X40050000Y-34980000D01*
X40050000Y-33020000D02*
X40050000Y-32470000D01*
X40050000Y-30530000D02*
X40050000Y-29970000D01*
X40050000Y-28030000D02*
X40050000Y-27150000D01*
X40050000Y-27150000D02*
X43750000Y-27150000D01*
X43050000Y-26850000D02*
X44050000Y-26850000D01*
X44050000Y-26850000D02*
X44050000Y-27850000D01*
%TO.C,R4*%
X52171267Y-40910000D02*
X51828733Y-40910000D01*
X52171267Y-39890000D02*
X51828733Y-39890000D01*
%TO.C,R3*%
X25490000Y-39671267D02*
X25490000Y-39328733D01*
X26510000Y-39671267D02*
X26510000Y-39328733D01*
%TO.C,R2*%
X47490000Y-39671267D02*
X47490000Y-39328733D01*
X48510000Y-39671267D02*
X48510000Y-39328733D01*
%TO.C,R1*%
X38171267Y-41510000D02*
X37828733Y-41510000D01*
X38171267Y-40490000D02*
X37828733Y-40490000D01*
%TO.C,J3*%
X45380000Y-15960000D02*
X55540000Y-15960000D01*
X45380000Y-14690000D02*
X45380000Y-22310000D01*
X45380000Y-22310000D02*
X55540000Y-22310000D01*
X55540000Y-22310000D02*
X55540000Y-14690000D01*
X55540000Y-14690000D02*
X45380000Y-14690000D01*
%TO.C,J2*%
X34380000Y-15960000D02*
X44540000Y-15960000D01*
X34380000Y-14690000D02*
X34380000Y-22310000D01*
X34380000Y-22310000D02*
X44540000Y-22310000D01*
X44540000Y-22310000D02*
X44540000Y-14690000D01*
X44540000Y-14690000D02*
X34380000Y-14690000D01*
%TO.C,J1*%
X23380000Y-15960000D02*
X33540000Y-15960000D01*
X23380000Y-14690000D02*
X23380000Y-22310000D01*
X23380000Y-22310000D02*
X33540000Y-22310000D01*
X33540000Y-22310000D02*
X33540000Y-14690000D01*
X33540000Y-14690000D02*
X23380000Y-14690000D01*
%TO.C,SW7*%
D10*
X27166666Y-47904761D02*
X27309523Y-47952380D01*
X27547619Y-47952380D01*
X27642857Y-47904761D01*
X27690476Y-47857142D01*
X27738095Y-47761904D01*
X27738095Y-47666666D01*
X27690476Y-47571428D01*
X27642857Y-47523809D01*
X27547619Y-47476190D01*
X27357142Y-47428571D01*
X27261904Y-47380952D01*
X27214285Y-47333333D01*
X27166666Y-47238095D01*
X27166666Y-47142857D01*
X27214285Y-47047619D01*
X27261904Y-47000000D01*
X27357142Y-46952380D01*
X27595238Y-46952380D01*
X27738095Y-47000000D01*
X28071428Y-46952380D02*
X28309523Y-47952380D01*
X28500000Y-47238095D01*
X28690476Y-47952380D01*
X28928571Y-46952380D01*
X29214285Y-46952380D02*
X29880952Y-46952380D01*
X29452380Y-47952380D01*
%TO.C,SW3*%
X31404761Y-32833333D02*
X31452380Y-32690476D01*
X31452380Y-32452380D01*
X31404761Y-32357142D01*
X31357142Y-32309523D01*
X31261904Y-32261904D01*
X31166666Y-32261904D01*
X31071428Y-32309523D01*
X31023809Y-32357142D01*
X30976190Y-32452380D01*
X30928571Y-32642857D01*
X30880952Y-32738095D01*
X30833333Y-32785714D01*
X30738095Y-32833333D01*
X30642857Y-32833333D01*
X30547619Y-32785714D01*
X30500000Y-32738095D01*
X30452380Y-32642857D01*
X30452380Y-32404761D01*
X30500000Y-32261904D01*
X30452380Y-31928571D02*
X31452380Y-31690476D01*
X30738095Y-31500000D01*
X31452380Y-31309523D01*
X30452380Y-31071428D01*
X30452380Y-30785714D02*
X30452380Y-30166666D01*
X30833333Y-30500000D01*
X30833333Y-30357142D01*
X30880952Y-30261904D01*
X30928571Y-30214285D01*
X31023809Y-30166666D01*
X31261904Y-30166666D01*
X31357142Y-30214285D01*
X31404761Y-30261904D01*
X31452380Y-30357142D01*
X31452380Y-30642857D01*
X31404761Y-30738095D01*
X31357142Y-30785714D01*
%TO.C,SW6*%
X49271666Y-47719761D02*
X49414523Y-47767380D01*
X49652619Y-47767380D01*
X49747857Y-47719761D01*
X49795476Y-47672142D01*
X49843095Y-47576904D01*
X49843095Y-47481666D01*
X49795476Y-47386428D01*
X49747857Y-47338809D01*
X49652619Y-47291190D01*
X49462142Y-47243571D01*
X49366904Y-47195952D01*
X49319285Y-47148333D01*
X49271666Y-47053095D01*
X49271666Y-46957857D01*
X49319285Y-46862619D01*
X49366904Y-46815000D01*
X49462142Y-46767380D01*
X49700238Y-46767380D01*
X49843095Y-46815000D01*
X50176428Y-46767380D02*
X50414523Y-47767380D01*
X50605000Y-47053095D01*
X50795476Y-47767380D01*
X51033571Y-46767380D01*
X51843095Y-46767380D02*
X51652619Y-46767380D01*
X51557380Y-46815000D01*
X51509761Y-46862619D01*
X51414523Y-47005476D01*
X51366904Y-47195952D01*
X51366904Y-47576904D01*
X51414523Y-47672142D01*
X51462142Y-47719761D01*
X51557380Y-47767380D01*
X51747857Y-47767380D01*
X51843095Y-47719761D01*
X51890714Y-47672142D01*
X51938333Y-47576904D01*
X51938333Y-47338809D01*
X51890714Y-47243571D01*
X51843095Y-47195952D01*
X51747857Y-47148333D01*
X51557380Y-47148333D01*
X51462142Y-47195952D01*
X51414523Y-47243571D01*
X51366904Y-47338809D01*
%TO.C,SW5*%
X38166666Y-47904761D02*
X38309523Y-47952380D01*
X38547619Y-47952380D01*
X38642857Y-47904761D01*
X38690476Y-47857142D01*
X38738095Y-47761904D01*
X38738095Y-47666666D01*
X38690476Y-47571428D01*
X38642857Y-47523809D01*
X38547619Y-47476190D01*
X38357142Y-47428571D01*
X38261904Y-47380952D01*
X38214285Y-47333333D01*
X38166666Y-47238095D01*
X38166666Y-47142857D01*
X38214285Y-47047619D01*
X38261904Y-47000000D01*
X38357142Y-46952380D01*
X38595238Y-46952380D01*
X38738095Y-47000000D01*
X39071428Y-46952380D02*
X39309523Y-47952380D01*
X39500000Y-47238095D01*
X39690476Y-47952380D01*
X39928571Y-46952380D01*
X40785714Y-46952380D02*
X40309523Y-46952380D01*
X40261904Y-47428571D01*
X40309523Y-47380952D01*
X40404761Y-47333333D01*
X40642857Y-47333333D01*
X40738095Y-47380952D01*
X40785714Y-47428571D01*
X40833333Y-47523809D01*
X40833333Y-47761904D01*
X40785714Y-47857142D01*
X40738095Y-47904761D01*
X40642857Y-47952380D01*
X40404761Y-47952380D01*
X40309523Y-47904761D01*
X40261904Y-47857142D01*
%TO.C,SW4*%
X62404761Y-32833333D02*
X62452380Y-32690476D01*
X62452380Y-32452380D01*
X62404761Y-32357142D01*
X62357142Y-32309523D01*
X62261904Y-32261904D01*
X62166666Y-32261904D01*
X62071428Y-32309523D01*
X62023809Y-32357142D01*
X61976190Y-32452380D01*
X61928571Y-32642857D01*
X61880952Y-32738095D01*
X61833333Y-32785714D01*
X61738095Y-32833333D01*
X61642857Y-32833333D01*
X61547619Y-32785714D01*
X61500000Y-32738095D01*
X61452380Y-32642857D01*
X61452380Y-32404761D01*
X61500000Y-32261904D01*
X61452380Y-31928571D02*
X62452380Y-31690476D01*
X61738095Y-31500000D01*
X62452380Y-31309523D01*
X61452380Y-31071428D01*
X61785714Y-30261904D02*
X62452380Y-30261904D01*
X61404761Y-30500000D02*
X62119047Y-30738095D01*
X62119047Y-30119047D01*
%TO.C,SW2*%
X53404761Y-32833333D02*
X53452380Y-32690476D01*
X53452380Y-32452380D01*
X53404761Y-32357142D01*
X53357142Y-32309523D01*
X53261904Y-32261904D01*
X53166666Y-32261904D01*
X53071428Y-32309523D01*
X53023809Y-32357142D01*
X52976190Y-32452380D01*
X52928571Y-32642857D01*
X52880952Y-32738095D01*
X52833333Y-32785714D01*
X52738095Y-32833333D01*
X52642857Y-32833333D01*
X52547619Y-32785714D01*
X52500000Y-32738095D01*
X52452380Y-32642857D01*
X52452380Y-32404761D01*
X52500000Y-32261904D01*
X52452380Y-31928571D02*
X53452380Y-31690476D01*
X52738095Y-31500000D01*
X53452380Y-31309523D01*
X52452380Y-31071428D01*
X52547619Y-30738095D02*
X52500000Y-30690476D01*
X52452380Y-30595238D01*
X52452380Y-30357142D01*
X52500000Y-30261904D01*
X52547619Y-30214285D01*
X52642857Y-30166666D01*
X52738095Y-30166666D01*
X52880952Y-30214285D01*
X53452380Y-30785714D01*
X53452380Y-30166666D01*
%TO.C,SW1*%
X42404761Y-32833333D02*
X42452380Y-32690476D01*
X42452380Y-32452380D01*
X42404761Y-32357142D01*
X42357142Y-32309523D01*
X42261904Y-32261904D01*
X42166666Y-32261904D01*
X42071428Y-32309523D01*
X42023809Y-32357142D01*
X41976190Y-32452380D01*
X41928571Y-32642857D01*
X41880952Y-32738095D01*
X41833333Y-32785714D01*
X41738095Y-32833333D01*
X41642857Y-32833333D01*
X41547619Y-32785714D01*
X41500000Y-32738095D01*
X41452380Y-32642857D01*
X41452380Y-32404761D01*
X41500000Y-32261904D01*
X41452380Y-31928571D02*
X42452380Y-31690476D01*
X41738095Y-31500000D01*
X42452380Y-31309523D01*
X41452380Y-31071428D01*
X42452380Y-30166666D02*
X42452380Y-30738095D01*
X42452380Y-30452380D02*
X41452380Y-30452380D01*
X41595238Y-30547619D01*
X41690476Y-30642857D01*
X41738095Y-30738095D01*
%TO.C,R4*%
X51833333Y-39352380D02*
X51500000Y-38876190D01*
X51261904Y-39352380D02*
X51261904Y-38352380D01*
X51642857Y-38352380D01*
X51738095Y-38400000D01*
X51785714Y-38447619D01*
X51833333Y-38542857D01*
X51833333Y-38685714D01*
X51785714Y-38780952D01*
X51738095Y-38828571D01*
X51642857Y-38876190D01*
X51261904Y-38876190D01*
X52690476Y-38685714D02*
X52690476Y-39352380D01*
X52452380Y-38304761D02*
X52214285Y-39019047D01*
X52833333Y-39019047D01*
%TO.C,R3*%
X27952380Y-39666666D02*
X27476190Y-40000000D01*
X27952380Y-40238095D02*
X26952380Y-40238095D01*
X26952380Y-39857142D01*
X27000000Y-39761904D01*
X27047619Y-39714285D01*
X27142857Y-39666666D01*
X27285714Y-39666666D01*
X27380952Y-39714285D01*
X27428571Y-39761904D01*
X27476190Y-39857142D01*
X27476190Y-40238095D01*
X26952380Y-39333333D02*
X26952380Y-38714285D01*
X27333333Y-39047619D01*
X27333333Y-38904761D01*
X27380952Y-38809523D01*
X27428571Y-38761904D01*
X27523809Y-38714285D01*
X27761904Y-38714285D01*
X27857142Y-38761904D01*
X27904761Y-38809523D01*
X27952380Y-38904761D01*
X27952380Y-39190476D01*
X27904761Y-39285714D01*
X27857142Y-39333333D01*
%TO.C,R2*%
X47022380Y-39666666D02*
X46546190Y-40000000D01*
X47022380Y-40238095D02*
X46022380Y-40238095D01*
X46022380Y-39857142D01*
X46070000Y-39761904D01*
X46117619Y-39714285D01*
X46212857Y-39666666D01*
X46355714Y-39666666D01*
X46450952Y-39714285D01*
X46498571Y-39761904D01*
X46546190Y-39857142D01*
X46546190Y-40238095D01*
X46117619Y-39285714D02*
X46070000Y-39238095D01*
X46022380Y-39142857D01*
X46022380Y-38904761D01*
X46070000Y-38809523D01*
X46117619Y-38761904D01*
X46212857Y-38714285D01*
X46308095Y-38714285D01*
X46450952Y-38761904D01*
X47022380Y-39333333D01*
X47022380Y-38714285D01*
%TO.C,R1*%
X37833333Y-39952380D02*
X37500000Y-39476190D01*
X37261904Y-39952380D02*
X37261904Y-38952380D01*
X37642857Y-38952380D01*
X37738095Y-39000000D01*
X37785714Y-39047619D01*
X37833333Y-39142857D01*
X37833333Y-39285714D01*
X37785714Y-39380952D01*
X37738095Y-39428571D01*
X37642857Y-39476190D01*
X37261904Y-39476190D01*
X38785714Y-39952380D02*
X38214285Y-39952380D01*
X38500000Y-39952380D02*
X38500000Y-38952380D01*
X38404761Y-39095238D01*
X38309523Y-39190476D01*
X38214285Y-39238095D01*
%TO.C,J3*%
X50166666Y-20452380D02*
X50166666Y-21166666D01*
X50119047Y-21309523D01*
X50023809Y-21404761D01*
X49880952Y-21452380D01*
X49785714Y-21452380D01*
X50547619Y-20452380D02*
X51166666Y-20452380D01*
X50833333Y-20833333D01*
X50976190Y-20833333D01*
X51071428Y-20880952D01*
X51119047Y-20928571D01*
X51166666Y-21023809D01*
X51166666Y-21261904D01*
X51119047Y-21357142D01*
X51071428Y-21404761D01*
X50976190Y-21452380D01*
X50690476Y-21452380D01*
X50595238Y-21404761D01*
X50547619Y-21357142D01*
%TO.C,J2*%
X39166666Y-20452380D02*
X39166666Y-21166666D01*
X39119047Y-21309523D01*
X39023809Y-21404761D01*
X38880952Y-21452380D01*
X38785714Y-21452380D01*
X39595238Y-20547619D02*
X39642857Y-20500000D01*
X39738095Y-20452380D01*
X39976190Y-20452380D01*
X40071428Y-20500000D01*
X40119047Y-20547619D01*
X40166666Y-20642857D01*
X40166666Y-20738095D01*
X40119047Y-20880952D01*
X39547619Y-21452380D01*
X40166666Y-21452380D01*
%TO.C,J1*%
X28166666Y-20452380D02*
X28166666Y-21166666D01*
X28119047Y-21309523D01*
X28023809Y-21404761D01*
X27880952Y-21452380D01*
X27785714Y-21452380D01*
X29166666Y-21452380D02*
X28595238Y-21452380D01*
X28880952Y-21452380D02*
X28880952Y-20452380D01*
X28785714Y-20595238D01*
X28690476Y-20690476D01*
X28595238Y-20738095D01*
%TD*%
M02*
