%TF.GenerationSoftware,KiCad,Pcbnew,(6.0.4-0)*%
%TF.CreationDate,2023-06-16T16:22:12+02:00*%
%TF.ProjectId,EOL,454f4c2e-6b69-4636-9164-5f7063625858,rev?*%
%TF.SameCoordinates,Original*%
%TF.FileFunction,Soldermask,Bot*%
%TF.FilePolarity,Negative*%
%FSLAX46Y46*%
G04 Gerber Fmt 4.6, Leading zero omitted, Abs format (unit mm)*
G04 Created by KiCad (PCBNEW (6.0.4-0)) date 2023-06-16 16:22:12*
%MOMM*%
%LPD*%
G01*
G04 APERTURE LIST*
G04 Aperture macros list*
%AMRoundRect*
0 Rectangle with rounded corners*
0 $1 Rounding radius*
0 $2 $3 $4 $5 $6 $7 $8 $9 X,Y pos of 4 corners*
0 Add a 4 corners polygon primitive as box body*
4,1,4,$2,$3,$4,$5,$6,$7,$8,$9,$2,$3,0*
0 Add four circle primitives for the rounded corners*
1,1,$1+$1,$2,$3*
1,1,$1+$1,$4,$5*
1,1,$1+$1,$6,$7*
1,1,$1+$1,$8,$9*
0 Add four rect primitives between the rounded corners*
20,1,$1+$1,$2,$3,$4,$5,0*
20,1,$1+$1,$4,$5,$6,$7,0*
20,1,$1+$1,$6,$7,$8,$9,0*
20,1,$1+$1,$8,$9,$2,$3,0*%
G04 Aperture macros list end*
%ADD10C,0.900000*%
%ADD11C,6.500000*%
%ADD12RoundRect,0.050000X-0.800000X0.800000X-0.800000X-0.800000X0.800000X-0.800000X0.800000X0.800000X0*%
%ADD13C,1.700000*%
%ADD14RoundRect,0.050000X0.800000X-0.800000X0.800000X0.800000X-0.800000X0.800000X-0.800000X-0.800000X0*%
%ADD15C,1.624000*%
%ADD16RoundRect,0.050000X1.300000X1.300000X-1.300000X1.300000X-1.300000X-1.300000X1.300000X-1.300000X0*%
%ADD17C,2.700000*%
G04 APERTURE END LIST*
D10*
%TO.C,H1*%
X18000000Y-50600000D03*
D11*
X18000000Y-53000000D03*
D10*
X18000000Y-55400000D03*
X16302944Y-51302944D03*
X20400000Y-53000000D03*
X19697056Y-51302944D03*
X15600000Y-53000000D03*
X19697056Y-54697056D03*
X16302944Y-54697056D03*
%TD*%
%TO.C,H2*%
X61000000Y-11350000D03*
X62697056Y-12052944D03*
X59302944Y-12052944D03*
X59302944Y-15447056D03*
X61000000Y-16150000D03*
D11*
X61000000Y-13750000D03*
D10*
X63400000Y-13750000D03*
X58600000Y-13750000D03*
X62697056Y-15447056D03*
%TD*%
%TO.C,H3*%
X18000000Y-11350000D03*
X15600000Y-13750000D03*
D11*
X18000000Y-13750000D03*
D10*
X19697056Y-15447056D03*
X18000000Y-16150000D03*
X16302944Y-15447056D03*
X16302944Y-12052944D03*
X20400000Y-13750000D03*
X19697056Y-12052944D03*
%TD*%
%TO.C,H4*%
X61000000Y-50600000D03*
X61000000Y-55400000D03*
X62697056Y-54697056D03*
X59302944Y-51302944D03*
D11*
X61000000Y-53000000D03*
D10*
X58600000Y-53000000D03*
X63400000Y-53000000D03*
X59302944Y-54697056D03*
X62697056Y-51302944D03*
%TD*%
D12*
%TO.C,SW1*%
X43500000Y-29000000D03*
D13*
X43500000Y-31500000D03*
X43500000Y-34000000D03*
X40300000Y-29000000D03*
X40300000Y-31500000D03*
X40300000Y-34000000D03*
%TD*%
D14*
%TO.C,SW2*%
X51500000Y-34000000D03*
D13*
X51500000Y-31500000D03*
X51500000Y-29000000D03*
X54700000Y-34000000D03*
X54700000Y-31500000D03*
X54700000Y-29000000D03*
%TD*%
D14*
%TO.C,SW3*%
X29500000Y-34000000D03*
D13*
X29500000Y-31500000D03*
X29500000Y-29000000D03*
X32700000Y-34000000D03*
X32700000Y-31500000D03*
X32700000Y-29000000D03*
%TD*%
D12*
%TO.C,SW4*%
X63500000Y-29000000D03*
D13*
X63500000Y-31500000D03*
X63500000Y-34000000D03*
X60300000Y-29000000D03*
X60300000Y-31500000D03*
X60300000Y-34000000D03*
%TD*%
D15*
%TO.C,SW5*%
X42000000Y-44000000D03*
X37000000Y-44000000D03*
X39500000Y-44000000D03*
X37000000Y-50000000D03*
X42000000Y-50000000D03*
X39500000Y-50000000D03*
%TD*%
%TO.C,SW6*%
X53000000Y-44000000D03*
X48000000Y-44000000D03*
X50500000Y-44000000D03*
X48000000Y-50000000D03*
X53000000Y-50000000D03*
X50500000Y-50000000D03*
%TD*%
%TO.C,SW7*%
X31000000Y-44000000D03*
X26000000Y-44000000D03*
X28500000Y-44000000D03*
X26000000Y-50000000D03*
X31000000Y-50000000D03*
X28500000Y-50000000D03*
%TD*%
D16*
%TO.C,J1*%
X52000000Y-17195000D03*
D17*
X47000000Y-17195000D03*
X42000000Y-17195000D03*
X37000000Y-17195000D03*
X32000000Y-17195000D03*
X27000000Y-17195000D03*
%TD*%
M02*
