M48
; DRILL file {KiCad (6.0.4-0)} date 2023 June 16, Friday 16:22:07
; FORMAT={-:-/ absolute / inch / decimal}
; #@! TF.CreationDate,2023-06-16T16:22:07+02:00
; #@! TF.GenerationSoftware,Kicad,Pcbnew,(6.0.4-0)
; #@! TF.FileFunction,MixedPlating,1,2
FMAT,2
INCH
; #@! TA.AperFunction,Plated,PTH,ComponentDrill
T1C0.0197
; #@! TA.AperFunction,Plated,PTH,ComponentDrill
T2C0.0315
; #@! TA.AperFunction,Plated,PTH,ComponentDrill
T3C0.0512
; #@! TA.AperFunction,Plated,PTH,ComponentDrill
T4C0.1260
%
G90
G05
T1
X0.6142Y-0.5413
X0.6142Y-2.0866
X0.6418Y-0.4745
X0.6418Y-0.6082
X0.6418Y-2.0198
X0.6418Y-2.1534
X0.7087Y-0.4469
X0.7087Y-0.6358
X0.7087Y-1.9921
X0.7087Y-2.1811
X0.7755Y-0.4745
X0.7755Y-0.6082
X0.7755Y-2.0198
X0.7755Y-2.1534
X0.8031Y-0.5413
X0.8031Y-2.0866
X2.3071Y-0.5413
X2.3071Y-2.0866
X2.3348Y-0.4745
X2.3348Y-0.6082
X2.3348Y-2.0198
X2.3348Y-2.1534
X2.4016Y-0.4469
X2.4016Y-0.6358
X2.4016Y-1.9921
X2.4016Y-2.1811
X2.4684Y-0.4745
X2.4684Y-0.6082
X2.4684Y-2.0198
X2.4684Y-2.1534
X2.4961Y-0.5413
X2.4961Y-2.0866
T2
X1.0236Y-1.7323
X1.0236Y-1.9685
X1.122Y-1.7323
X1.122Y-1.9685
X1.1614Y-1.1417
X1.1614Y-1.2402
X1.1614Y-1.3386
X1.2205Y-1.7323
X1.2205Y-1.9685
X1.2874Y-1.1417
X1.2874Y-1.2402
X1.2874Y-1.3386
X1.4567Y-1.7323
X1.4567Y-1.9685
X1.5551Y-1.7323
X1.5551Y-1.9685
X1.5866Y-1.1417
X1.5866Y-1.2402
X1.5866Y-1.3386
X1.6535Y-1.7323
X1.6535Y-1.9685
X1.7126Y-1.1417
X1.7126Y-1.2402
X1.7126Y-1.3386
X1.8898Y-1.7323
X1.8898Y-1.9685
X1.9882Y-1.7323
X1.9882Y-1.9685
X2.0276Y-1.1417
X2.0276Y-1.2402
X2.0276Y-1.3386
X2.0866Y-1.7323
X2.0866Y-1.9685
X2.1535Y-1.1417
X2.1535Y-1.2402
X2.1535Y-1.3386
X2.374Y-1.1417
X2.374Y-1.2402
X2.374Y-1.3386
X2.5Y-1.1417
X2.5Y-1.2402
X2.5Y-1.3386
T3
X1.063Y-0.677
X1.2598Y-0.677
X1.4567Y-0.677
X1.6535Y-0.677
X1.8504Y-0.677
X2.0472Y-0.677
T4
X0.7087Y-0.5413
X0.7087Y-2.0866
X2.4016Y-0.5413
X2.4016Y-2.0866
T0
M30
