M48
; DRILL file {KiCad (5.1.6-0-10_14)} date Saturday, March 19, 2022 at 06:54:12 PM
; FORMAT={-:-/ absolute / inch / decimal}
; #@! TF.CreationDate,2022-03-19T18:54:12+01:00
; #@! TF.GenerationSoftware,Kicad,Pcbnew,(5.1.6-0-10_14)
FMAT,2
INCH
T1C0.0197
T2C0.0315
T3C0.0598
T4C0.1260
%
G90
G05
T1
X2.3071Y-0.6496
X2.3348Y-0.5828
X2.3348Y-0.7164
X2.4016Y-0.5551
X2.4016Y-0.7441
X2.4684Y-0.5828
X2.4684Y-0.7164
X2.4961Y-0.6496
X0.6142Y-0.6496
X0.6418Y-0.5828
X0.6418Y-0.7164
X0.7087Y-0.5551
X0.7087Y-0.7441
X0.7755Y-0.5828
X0.7755Y-0.7164
X0.8031Y-0.6496
X2.3071Y-2.0866
X2.3348Y-2.0198
X2.3348Y-2.1534
X2.4016Y-1.9921
X2.4016Y-2.1811
X2.4684Y-2.0198
X2.4684Y-2.1534
X2.4961Y-2.0866
X0.6142Y-2.0866
X0.6418Y-2.0198
X0.6418Y-2.1534
X0.7087Y-1.9921
X0.7087Y-2.1811
X0.7755Y-2.0198
X0.7755Y-2.1534
X0.8031Y-2.0866
T2
X2.0276Y-1.1417
X2.0276Y-1.2402
X2.0276Y-1.3386
X2.1535Y-1.1417
X2.1535Y-1.2402
X2.1535Y-1.3386
X1.8898Y-1.7323
X1.8898Y-1.9685
X1.9882Y-1.7323
X1.9882Y-1.9685
X2.0866Y-1.7323
X2.0866Y-1.9685
X1.1614Y-1.1417
X1.1614Y-1.2402
X1.1614Y-1.3386
X1.2874Y-1.1417
X1.2874Y-1.2402
X1.2874Y-1.3386
X1.0236Y-1.7323
X1.0236Y-1.9685
X1.122Y-1.7323
X1.122Y-1.9685
X1.2205Y-1.7323
X1.2205Y-1.9685
X2.374Y-1.1417
X2.374Y-1.2402
X2.374Y-1.3386
X2.5Y-1.1417
X2.5Y-1.2402
X2.5Y-1.3386
X1.4567Y-1.7323
X1.4567Y-1.9685
X1.5551Y-1.7323
X1.5551Y-1.9685
X1.6535Y-1.7323
X1.6535Y-1.9685
X1.5866Y-1.1417
X1.5866Y-1.2402
X1.5866Y-1.3386
X1.7126Y-1.1417
X1.7126Y-1.2402
X1.7126Y-1.3386
T3
X1.0205Y-0.7283
X1.2205Y-0.7283
X1.4535Y-0.7283
X1.6535Y-0.7283
X1.8866Y-0.7283
X2.0866Y-0.7283
T4
X2.4016Y-0.6496
X0.7087Y-0.6496
X2.4016Y-2.0866
X0.7087Y-2.0866
T0
M30
